G04 #@! TF.FileFunction,Glue,Bot*
%FSLAX46Y46*%
G04 Gerber Fmt 4.6, Leading zero omitted, Abs format (unit mm)*
G04 Created by KiCad (PCBNEW 4.0.1-stable) date Saturday, January 28, 2017 'PMt' 02:32:07 PM*
%MOMM*%
G01*
G04 APERTURE LIST*
%ADD10C,0.100000*%
%ADD11C,0.381000*%
G04 APERTURE END LIST*
D10*
D11*
X5651180Y-10300000D02*
G75*
G03X5651180Y-10300000I-551180J0D01*
G01*
X5300660Y-10300000D02*
G75*
G03X5300660Y-10300000I-200660J0D01*
G01*
X20051180Y-10300000D02*
G75*
G03X20051180Y-10300000I-551180J0D01*
G01*
X19700660Y-10300000D02*
G75*
G03X19700660Y-10300000I-200660J0D01*
G01*
X38551180Y-10300000D02*
G75*
G03X38551180Y-10300000I-551180J0D01*
G01*
X38200660Y-10300000D02*
G75*
G03X38200660Y-10300000I-200660J0D01*
G01*
X55651180Y-12000000D02*
G75*
G03X55651180Y-12000000I-551180J0D01*
G01*
X55300660Y-12000000D02*
G75*
G03X55300660Y-12000000I-200660J0D01*
G01*
X88951180Y-10200000D02*
G75*
G03X88951180Y-10200000I-551180J0D01*
G01*
X88600660Y-10200000D02*
G75*
G03X88600660Y-10200000I-200660J0D01*
G01*
X94051180Y-10200000D02*
G75*
G03X94051180Y-10200000I-551180J0D01*
G01*
X93700660Y-10200000D02*
G75*
G03X93700660Y-10200000I-200660J0D01*
G01*
X138251180Y-10200000D02*
G75*
G03X138251180Y-10200000I-551180J0D01*
G01*
X137900660Y-10200000D02*
G75*
G03X137900660Y-10200000I-200660J0D01*
G01*
X143351180Y-10200000D02*
G75*
G03X143351180Y-10200000I-551180J0D01*
G01*
X143000660Y-10200000D02*
G75*
G03X143000660Y-10200000I-200660J0D01*
G01*
X161851180Y-10200000D02*
G75*
G03X161851180Y-10200000I-551180J0D01*
G01*
X161500660Y-10200000D02*
G75*
G03X161500660Y-10200000I-200660J0D01*
G01*
X180351180Y-10100000D02*
G75*
G03X180351180Y-10100000I-551180J0D01*
G01*
X180000660Y-10100000D02*
G75*
G03X180000660Y-10100000I-200660J0D01*
G01*
X198751180Y-10200000D02*
G75*
G03X198751180Y-10200000I-551180J0D01*
G01*
X198400660Y-10200000D02*
G75*
G03X198400660Y-10200000I-200660J0D01*
G01*
X217351180Y-10200000D02*
G75*
G03X217351180Y-10200000I-551180J0D01*
G01*
X217000660Y-10200000D02*
G75*
G03X217000660Y-10200000I-200660J0D01*
G01*
X5651180Y-26000000D02*
G75*
G03X5651180Y-26000000I-551180J0D01*
G01*
X5300660Y-26000000D02*
G75*
G03X5300660Y-26000000I-200660J0D01*
G01*
X20151180Y-26000000D02*
G75*
G03X20151180Y-26000000I-551180J0D01*
G01*
X19800660Y-26000000D02*
G75*
G03X19800660Y-26000000I-200660J0D01*
G01*
X38651180Y-25900000D02*
G75*
G03X38651180Y-25900000I-551180J0D01*
G01*
X38300660Y-25900000D02*
G75*
G03X38300660Y-25900000I-200660J0D01*
G01*
X57151180Y-26000000D02*
G75*
G03X57151180Y-26000000I-551180J0D01*
G01*
X56800660Y-26000000D02*
G75*
G03X56800660Y-26000000I-200660J0D01*
G01*
X75651180Y-26000000D02*
G75*
G03X75651180Y-26000000I-551180J0D01*
G01*
X75300660Y-26000000D02*
G75*
G03X75300660Y-26000000I-200660J0D01*
G01*
X94151180Y-25900000D02*
G75*
G03X94151180Y-25900000I-551180J0D01*
G01*
X93800660Y-25900000D02*
G75*
G03X93800660Y-25900000I-200660J0D01*
G01*
X124851180Y-25900000D02*
G75*
G03X124851180Y-25900000I-551180J0D01*
G01*
X124500660Y-25900000D02*
G75*
G03X124500660Y-25900000I-200660J0D01*
G01*
X143351180Y-25900000D02*
G75*
G03X143351180Y-25900000I-551180J0D01*
G01*
X143000660Y-25900000D02*
G75*
G03X143000660Y-25900000I-200660J0D01*
G01*
X161901180Y-25850000D02*
G75*
G03X161901180Y-25850000I-551180J0D01*
G01*
X161550660Y-25850000D02*
G75*
G03X161550660Y-25850000I-200660J0D01*
G01*
X180351180Y-25900000D02*
G75*
G03X180351180Y-25900000I-551180J0D01*
G01*
X180000660Y-25900000D02*
G75*
G03X180000660Y-25900000I-200660J0D01*
G01*
X198851180Y-25900000D02*
G75*
G03X198851180Y-25900000I-551180J0D01*
G01*
X198500660Y-25900000D02*
G75*
G03X198500660Y-25900000I-200660J0D01*
G01*
X217351180Y-25900000D02*
G75*
G03X217351180Y-25900000I-551180J0D01*
G01*
X217000660Y-25900000D02*
G75*
G03X217000660Y-25900000I-200660J0D01*
G01*
X5751180Y-41700000D02*
G75*
G03X5751180Y-41700000I-551180J0D01*
G01*
X5400660Y-41700000D02*
G75*
G03X5400660Y-41700000I-200660J0D01*
G01*
X20151180Y-41700000D02*
G75*
G03X20151180Y-41700000I-551180J0D01*
G01*
X19800660Y-41700000D02*
G75*
G03X19800660Y-41700000I-200660J0D01*
G01*
X38651180Y-41800000D02*
G75*
G03X38651180Y-41800000I-551180J0D01*
G01*
X38300660Y-41800000D02*
G75*
G03X38300660Y-41800000I-200660J0D01*
G01*
X57151180Y-41700000D02*
G75*
G03X57151180Y-41700000I-551180J0D01*
G01*
X56800660Y-41700000D02*
G75*
G03X56800660Y-41700000I-200660J0D01*
G01*
X75651180Y-41700000D02*
G75*
G03X75651180Y-41700000I-551180J0D01*
G01*
X75300660Y-41700000D02*
G75*
G03X75300660Y-41700000I-200660J0D01*
G01*
X94151180Y-38600000D02*
G75*
G03X94151180Y-38600000I-551180J0D01*
G01*
X93800660Y-38600000D02*
G75*
G03X93800660Y-38600000I-200660J0D01*
G01*
X124851180Y-35700000D02*
G75*
G03X124851180Y-35700000I-551180J0D01*
G01*
X124500660Y-35700000D02*
G75*
G03X124500660Y-35700000I-200660J0D01*
G01*
X143351180Y-35700000D02*
G75*
G03X143351180Y-35700000I-551180J0D01*
G01*
X143000660Y-35700000D02*
G75*
G03X143000660Y-35700000I-200660J0D01*
G01*
X161851180Y-35700000D02*
G75*
G03X161851180Y-35700000I-551180J0D01*
G01*
X161500660Y-35700000D02*
G75*
G03X161500660Y-35700000I-200660J0D01*
G01*
X180351180Y-35700000D02*
G75*
G03X180351180Y-35700000I-551180J0D01*
G01*
X180000660Y-35700000D02*
G75*
G03X180000660Y-35700000I-200660J0D01*
G01*
X198851180Y-35700000D02*
G75*
G03X198851180Y-35700000I-551180J0D01*
G01*
X198500660Y-35700000D02*
G75*
G03X198500660Y-35700000I-200660J0D01*
G01*
X217351180Y-35700000D02*
G75*
G03X217351180Y-35700000I-551180J0D01*
G01*
X217000660Y-35700000D02*
G75*
G03X217000660Y-35700000I-200660J0D01*
G01*
X67551180Y-48100000D02*
G75*
G03X67551180Y-48100000I-551180J0D01*
G01*
X67200660Y-48100000D02*
G75*
G03X67200660Y-48100000I-200660J0D01*
G01*
X86051180Y-48000000D02*
G75*
G03X86051180Y-48000000I-551180J0D01*
G01*
X85700660Y-48000000D02*
G75*
G03X85700660Y-48000000I-200660J0D01*
G01*
X137251180Y-42600000D02*
G75*
G03X137251180Y-42600000I-551180J0D01*
G01*
X136900660Y-42600000D02*
G75*
G03X136900660Y-42600000I-200660J0D01*
G01*
X155651180Y-42700000D02*
G75*
G03X155651180Y-42700000I-551180J0D01*
G01*
X155300660Y-42700000D02*
G75*
G03X155300660Y-42700000I-200660J0D01*
G01*
M02*
