M48
METRIC,TZ
T1C1.000
T2C1.600
%
G90
G05
T1
X2.Y-22.
X2.Y-24.5
X2.Y-27.
X3.Y-3.
X5.5Y-3.
X5.75Y-37.
X5.85Y-21.6
X5.85Y-26.2
X8.Y-3.
X10.25Y-40.
X10.5Y-3.
X13.Y-3.
X13.75Y-37.
X13.85Y-21.6
X13.85Y-26.2
X24.25Y-37.
X24.35Y-21.6
X24.35Y-26.2
X28.75Y-40.
X32.25Y-37.
X32.35Y-21.6
X32.35Y-26.2
X42.75Y-37.
X42.85Y-21.6
X42.85Y-26.2
X50.75Y-37.
X50.85Y-21.6
X50.85Y-26.2
X61.25Y-37.
X61.35Y-21.6
X61.35Y-26.2
X65.75Y-40.
X69.25Y-37.
X69.35Y-21.6
X69.35Y-26.2
X75.85Y-21.6
X75.85Y-26.2
X76.Y-3.
X78.25Y-37.
X78.5Y-3.
X81.Y-3.
X83.5Y-3.
X83.85Y-21.6
X83.85Y-26.2
X84.25Y-40.
X86.Y-3.
X86.25Y-37.
X87.Y-22.
X87.Y-24.5
X87.Y-27.
T2
X5.25Y-10.4
X5.25Y-17.7
X5.25Y-33.5
X10.25Y-10.9
X10.25Y-18.2
X10.25Y-34.
X23.75Y-10.4
X23.75Y-17.7
X23.75Y-33.5
X28.75Y-10.9
X28.75Y-18.2
X28.75Y-34.
X42.25Y-10.4
X42.25Y-17.7
X42.25Y-33.5
X47.25Y-10.9
X47.25Y-18.2
X47.25Y-34.
X60.75Y-10.4
X60.75Y-17.7
X60.75Y-33.5
X65.75Y-10.9
X65.75Y-18.2
X65.75Y-34.
X79.25Y-10.4
X79.25Y-17.7
X79.25Y-33.5
X84.25Y-10.9
X84.25Y-18.2
X84.25Y-34.
T0
M30
