M48
;DRILL file {KiCad 4.0.1-stable} date Monday, January 25, 2016 'AMt' 02:55:17 AM
;FORMAT={-:-/ absolute / metric / decimal}
FMAT,2
METRIC,TZ
T1C1.000
T2C1.600
%
G90
G05
M71
T1
X2.Y-16.55
X2.Y-26.
X2.Y-29.
X5.Y-3.
X8.Y-3.
X11.Y-3.
X14.Y-3.
X17.Y-3.
X73.Y-3.
X76.Y-3.
X79.Y-3.
X82.Y-3.
X85.Y-3.
X88.Y-16.55
X88.Y-26.
X88.Y-29.
T2
X5.25Y-9.5
X5.25Y-19.6
X5.25Y-35.4
X10.25Y-9.
X10.25Y-19.1
X10.25Y-34.9
X10.25Y-40.
X23.75Y-9.5
X23.75Y-19.6
X23.75Y-35.4
X28.75Y-9.
X28.75Y-19.1
X28.75Y-34.9
X28.75Y-40.
X42.25Y-9.5
X42.25Y-19.6
X42.25Y-35.4
X47.25Y-9.
X47.25Y-19.1
X47.25Y-34.9
X60.75Y-9.5
X60.75Y-19.6
X60.75Y-35.4
X65.75Y-9.
X65.75Y-19.1
X65.75Y-34.9
X65.75Y-40.
X79.25Y-9.5
X79.25Y-19.6
X79.25Y-35.4
X84.25Y-9.
X84.25Y-19.1
X84.25Y-34.9
X84.25Y-40.
T0
M30
