M48
METRIC,TZ
T1C1.000
T2C1.600
%
G90
G05
T1
X2.Y-22.
X2.Y-24.5
X2.Y-27.
X3.Y-3.
X5.5Y-3.
X8.Y-3.
X10.25Y-40.
X10.5Y-3.
X13.Y-3.
X28.75Y-40.
X65.75Y-40.
X76.Y-3.
X78.5Y-3.
X81.Y-3.
X83.5Y-3.
X84.25Y-40.
X86.Y-3.
X87.Y-22.
X87.Y-24.5
X87.Y-27.
T2
X5.25Y-10.4
X5.25Y-17.7
X5.25Y-33.5
X10.25Y-10.9
X10.25Y-18.2
X10.25Y-34.
X23.75Y-10.4
X23.75Y-17.7
X23.75Y-33.5
X28.75Y-10.9
X28.75Y-18.2
X28.75Y-34.
X42.25Y-10.4
X42.25Y-17.7
X42.25Y-33.5
X47.25Y-10.9
X47.25Y-18.2
X47.25Y-34.
X60.75Y-10.4
X60.75Y-17.7
X60.75Y-33.5
X65.75Y-10.9
X65.75Y-18.2
X65.75Y-34.
X79.25Y-10.4
X79.25Y-17.7
X79.25Y-33.5
X84.25Y-10.9
X84.25Y-18.2
X84.25Y-34.
T0
M30
