G04 #@! TF.FileFunction,Legend,Top*
%FSLAX46Y46*%
G04 Gerber Fmt 4.6, Leading zero omitted, Abs format (unit mm)*
G04 Created by KiCad (PCBNEW 4.0.1-stable) date Sunday, May 29, 2016 'PMt' 06:37:48 PM*
%MOMM*%
G01*
G04 APERTURE LIST*
%ADD10C,0.100000*%
%ADD11C,0.200000*%
%ADD12C,0.150000*%
G04 APERTURE END LIST*
D10*
D11*
X19314398Y-14499468D02*
X19814398Y-14499468D01*
X19814398Y-14499468D02*
X19314398Y-15499468D01*
X19814398Y-15499468D02*
X18814398Y-15499468D01*
X19317436Y-22444136D02*
X18817436Y-22444136D01*
X19317436Y-23444136D02*
X19317436Y-24444136D01*
X18817436Y-22444136D02*
X19317436Y-23444136D01*
X19817436Y-23444136D02*
X18817436Y-23444136D01*
X19317436Y-22444136D02*
X19817436Y-22444136D01*
X19817436Y-22444136D02*
X19317436Y-23444136D01*
X19317436Y-21444136D02*
X19317436Y-22444136D01*
X19314398Y-14499468D02*
X18814398Y-14499468D01*
X19314398Y-15499468D02*
X19314398Y-16499468D01*
X19314398Y-13499468D02*
X19314398Y-14499468D01*
X18814398Y-14499468D02*
X19314398Y-15499468D01*
X37814398Y-14499468D02*
X38314398Y-14499468D01*
X38314398Y-14499468D02*
X37814398Y-15499468D01*
X38314398Y-15499468D02*
X37314398Y-15499468D01*
X37817436Y-22444136D02*
X37317436Y-22444136D01*
X37817436Y-23444136D02*
X37817436Y-24444136D01*
X37317436Y-22444136D02*
X37817436Y-23444136D01*
X38317436Y-23444136D02*
X37317436Y-23444136D01*
X37817436Y-22444136D02*
X38317436Y-22444136D01*
X38317436Y-22444136D02*
X37817436Y-23444136D01*
X37817436Y-21444136D02*
X37817436Y-22444136D01*
X37814398Y-14499468D02*
X37314398Y-14499468D01*
X37814398Y-15499468D02*
X37814398Y-16499468D01*
X37814398Y-13499468D02*
X37814398Y-14499468D01*
X37314398Y-14499468D02*
X37814398Y-15499468D01*
X77000000Y-35800000D02*
X77000000Y-34800000D01*
X77000000Y-36800000D02*
X77500000Y-36800000D01*
X77500000Y-36800000D02*
X77000000Y-35800000D01*
X76500000Y-35800000D02*
X77500000Y-35800000D01*
X77000000Y-36800000D02*
X76500000Y-36800000D01*
X77000000Y-37800000D02*
X77000000Y-36800000D01*
X76500000Y-36800000D02*
X77000000Y-35800000D01*
X72500000Y-34700000D02*
X72500000Y-33700000D01*
X72500000Y-35700000D02*
X73000000Y-35700000D01*
X73000000Y-35700000D02*
X72500000Y-34700000D01*
X72000000Y-34700000D02*
X73000000Y-34700000D01*
X72500000Y-35700000D02*
X72000000Y-35700000D01*
X72500000Y-36700000D02*
X72500000Y-35700000D01*
X72000000Y-35700000D02*
X72500000Y-34700000D01*
X18850000Y-34650000D02*
X19850000Y-34650000D01*
X19350000Y-34650000D02*
X19350000Y-33650000D01*
X19850000Y-35650000D02*
X19350000Y-34650000D01*
X19350000Y-35650000D02*
X19850000Y-35650000D01*
X18850000Y-35650000D02*
X19350000Y-34650000D01*
X19350000Y-35650000D02*
X18850000Y-35650000D01*
X19350000Y-36650000D02*
X19350000Y-35650000D01*
X37350000Y-34600000D02*
X38350000Y-34600000D01*
X37850000Y-34600000D02*
X37850000Y-33600000D01*
X38350000Y-35600000D02*
X37850000Y-34600000D01*
X37850000Y-35600000D02*
X38350000Y-35600000D01*
X37350000Y-35600000D02*
X37850000Y-34600000D01*
X37850000Y-35600000D02*
X37350000Y-35600000D01*
X37850000Y-36600000D02*
X37850000Y-35600000D01*
X72454736Y-22508258D02*
X71954736Y-22508258D01*
X71954736Y-22508258D02*
X72454736Y-23508258D01*
X72454736Y-21508258D02*
X72454736Y-22508258D01*
X72454736Y-22508258D02*
X72954736Y-22508258D01*
X72954736Y-22508258D02*
X72454736Y-23508258D01*
X72454736Y-23508258D02*
X72454736Y-24508258D01*
X72954736Y-23508258D02*
X71954736Y-23508258D01*
X78390218Y-22342850D02*
X77890218Y-22342850D01*
X77890218Y-22342850D02*
X78390218Y-23342850D01*
X78390218Y-21342850D02*
X78390218Y-22342850D01*
X78390218Y-22342850D02*
X78890218Y-22342850D01*
X78890218Y-22342850D02*
X78390218Y-23342850D01*
X78390218Y-23342850D02*
X78390218Y-24342850D01*
X78890218Y-23342850D02*
X77890218Y-23342850D01*
X78244046Y-13960606D02*
X77744046Y-13960606D01*
X77744046Y-13960606D02*
X78244046Y-14960606D01*
X78244046Y-12960606D02*
X78244046Y-13960606D01*
X78244046Y-13960606D02*
X78744046Y-13960606D01*
X78744046Y-13960606D02*
X78244046Y-14960606D01*
X78244046Y-14960606D02*
X78244046Y-15960606D01*
X78744046Y-14960606D02*
X77744046Y-14960606D01*
X72357998Y-14483836D02*
X71857998Y-14483836D01*
X71857998Y-14483836D02*
X72357998Y-15483836D01*
X72357998Y-13483836D02*
X72357998Y-14483836D01*
X72357998Y-14483836D02*
X72857998Y-14483836D01*
X72857998Y-14483836D02*
X72357998Y-15483836D01*
X72357998Y-15483836D02*
X72357998Y-16483836D01*
X72857998Y-15483836D02*
X71857998Y-15483836D01*
X56364398Y-13499468D02*
X56364398Y-14499468D01*
X55864398Y-14499468D02*
X56364398Y-15499468D01*
X56364398Y-15499468D02*
X56364398Y-16499468D01*
X56864398Y-14499468D02*
X56364398Y-15499468D01*
X56864398Y-15499468D02*
X55864398Y-15499468D01*
X56364398Y-14499468D02*
X56864398Y-14499468D01*
X56364398Y-14499468D02*
X55864398Y-14499468D01*
X56367436Y-23444136D02*
X56367436Y-24444136D01*
X56867436Y-23444136D02*
X55867436Y-23444136D01*
X56367436Y-21444136D02*
X56367436Y-22444136D01*
X56867436Y-22444136D02*
X56367436Y-23444136D01*
X56367436Y-22444136D02*
X56867436Y-22444136D01*
X56367436Y-22444136D02*
X55867436Y-22444136D01*
X55867436Y-22444136D02*
X56367436Y-23444136D01*
X56900000Y-35650000D02*
X56400000Y-34650000D01*
X56400000Y-35650000D02*
X56900000Y-35650000D01*
X55900000Y-34650000D02*
X56900000Y-34650000D01*
X56400000Y-34650000D02*
X56400000Y-33650000D01*
X55900000Y-35650000D02*
X56400000Y-34650000D01*
X56400000Y-35650000D02*
X55900000Y-35650000D01*
X56400000Y-36650000D02*
X56400000Y-35650000D01*
X15500000Y-1000000D02*
X15500000Y-5350000D01*
X1000000Y-31600000D02*
X88000000Y-31600000D01*
X1000000Y-28600000D02*
X88000000Y-28600000D01*
X1000000Y-15800000D02*
X88000000Y-15800000D01*
X1000000Y-12800000D02*
X88000000Y-12800000D01*
X71000000Y-1000000D02*
X71000000Y-42000000D01*
X52500000Y-1000000D02*
X52500000Y-42000000D01*
X34000000Y-1000000D02*
X34000000Y-42000000D01*
X74000000Y-1000000D02*
X74000000Y-42000000D01*
X55500000Y-1000000D02*
X55500000Y-42000000D01*
X37000000Y-1000000D02*
X37000000Y-42000000D01*
X18500000Y-1000000D02*
X18500000Y-42000000D01*
X15500000Y-7150000D02*
X15500000Y-42000000D01*
D12*
X1166667Y-5020000D02*
X1400000Y-5020000D01*
X1500000Y-5386667D02*
X1166667Y-5386667D01*
X1166667Y-4686667D01*
X1500000Y-4686667D01*
X2200000Y-5386667D02*
X1966666Y-5053333D01*
X1800000Y-5386667D02*
X1800000Y-4686667D01*
X2066666Y-4686667D01*
X2133333Y-4720000D01*
X2166666Y-4753333D01*
X2200000Y-4820000D01*
X2200000Y-4920000D01*
X2166666Y-4986667D01*
X2133333Y-5020000D01*
X2066666Y-5053333D01*
X1800000Y-5053333D01*
X2833333Y-5386667D02*
X2500000Y-5386667D01*
X2500000Y-4686667D01*
X3600000Y-5386667D02*
X3600000Y-4686667D01*
X3866666Y-4686667D01*
X3933333Y-4720000D01*
X3966666Y-4753333D01*
X4000000Y-4820000D01*
X4000000Y-4920000D01*
X3966666Y-4986667D01*
X3933333Y-5020000D01*
X3866666Y-5053333D01*
X3600000Y-5053333D01*
X4700000Y-5320000D02*
X4666666Y-5353333D01*
X4566666Y-5386667D01*
X4500000Y-5386667D01*
X4400000Y-5353333D01*
X4333333Y-5286667D01*
X4300000Y-5220000D01*
X4266666Y-5086667D01*
X4266666Y-4986667D01*
X4300000Y-4853333D01*
X4333333Y-4786667D01*
X4400000Y-4720000D01*
X4500000Y-4686667D01*
X4566666Y-4686667D01*
X4666666Y-4720000D01*
X4700000Y-4753333D01*
X5233333Y-5020000D02*
X5333333Y-5053333D01*
X5366666Y-5086667D01*
X5400000Y-5153333D01*
X5400000Y-5253333D01*
X5366666Y-5320000D01*
X5333333Y-5353333D01*
X5266666Y-5386667D01*
X5000000Y-5386667D01*
X5000000Y-4686667D01*
X5233333Y-4686667D01*
X5300000Y-4720000D01*
X5333333Y-4753333D01*
X5366666Y-4820000D01*
X5366666Y-4886667D01*
X5333333Y-4953333D01*
X5300000Y-4986667D01*
X5233333Y-5020000D01*
X5000000Y-5020000D01*
X6166666Y-4920000D02*
X6333333Y-5386667D01*
X6499999Y-4920000D01*
X7133332Y-5386667D02*
X6733332Y-5386667D01*
X6933332Y-5386667D02*
X6933332Y-4686667D01*
X6866666Y-4786667D01*
X6799999Y-4853333D01*
X6733332Y-4886667D01*
X7433333Y-5320000D02*
X7466666Y-5353333D01*
X7433333Y-5386667D01*
X7399999Y-5353333D01*
X7433333Y-5320000D01*
X7433333Y-5386667D01*
X7899999Y-4686667D02*
X7966666Y-4686667D01*
X8033332Y-4720000D01*
X8066666Y-4753333D01*
X8099999Y-4820000D01*
X8133332Y-4953333D01*
X8133332Y-5120000D01*
X8099999Y-5253333D01*
X8066666Y-5320000D01*
X8033332Y-5353333D01*
X7966666Y-5386667D01*
X7899999Y-5386667D01*
X7833332Y-5353333D01*
X7799999Y-5320000D01*
X7766666Y-5253333D01*
X7733332Y-5120000D01*
X7733332Y-4953333D01*
X7766666Y-4820000D01*
X7799999Y-4753333D01*
X7833332Y-4720000D01*
X7899999Y-4686667D01*
X8433333Y-5320000D02*
X8466666Y-5353333D01*
X8433333Y-5386667D01*
X8399999Y-5353333D01*
X8433333Y-5320000D01*
X8433333Y-5386667D01*
X8899999Y-4686667D02*
X8966666Y-4686667D01*
X9033332Y-4720000D01*
X9066666Y-4753333D01*
X9099999Y-4820000D01*
X9133332Y-4953333D01*
X9133332Y-5120000D01*
X9099999Y-5253333D01*
X9066666Y-5320000D01*
X9033332Y-5353333D01*
X8966666Y-5386667D01*
X8899999Y-5386667D01*
X8833332Y-5353333D01*
X8799999Y-5320000D01*
X8766666Y-5253333D01*
X8733332Y-5120000D01*
X8733332Y-4953333D01*
X8766666Y-4820000D01*
X8799999Y-4753333D01*
X8833332Y-4720000D01*
X8899999Y-4686667D01*
X9433333Y-5320000D02*
X9466666Y-5353333D01*
X9433333Y-5386667D01*
X9399999Y-5353333D01*
X9433333Y-5320000D01*
X9433333Y-5386667D01*
X9899999Y-4686667D02*
X9966666Y-4686667D01*
X10033332Y-4720000D01*
X10066666Y-4753333D01*
X10099999Y-4820000D01*
X10133332Y-4953333D01*
X10133332Y-5120000D01*
X10099999Y-5253333D01*
X10066666Y-5320000D01*
X10033332Y-5353333D01*
X9966666Y-5386667D01*
X9899999Y-5386667D01*
X9833332Y-5353333D01*
X9799999Y-5320000D01*
X9766666Y-5253333D01*
X9733332Y-5120000D01*
X9733332Y-4953333D01*
X9766666Y-4820000D01*
X9799999Y-4753333D01*
X9833332Y-4720000D01*
X9899999Y-4686667D01*
X10433333Y-5320000D02*
X10466666Y-5353333D01*
X10433333Y-5386667D01*
X10399999Y-5353333D01*
X10433333Y-5320000D01*
X10433333Y-5386667D01*
X10899999Y-4686667D02*
X10966666Y-4686667D01*
X11033332Y-4720000D01*
X11066666Y-4753333D01*
X11099999Y-4820000D01*
X11133332Y-4953333D01*
X11133332Y-5120000D01*
X11099999Y-5253333D01*
X11066666Y-5320000D01*
X11033332Y-5353333D01*
X10966666Y-5386667D01*
X10899999Y-5386667D01*
X10833332Y-5353333D01*
X10799999Y-5320000D01*
X10766666Y-5253333D01*
X10733332Y-5120000D01*
X10733332Y-4953333D01*
X10766666Y-4820000D01*
X10799999Y-4753333D01*
X10833332Y-4720000D01*
X10899999Y-4686667D01*
X11433333Y-5320000D02*
X11466666Y-5353333D01*
X11433333Y-5386667D01*
X11399999Y-5353333D01*
X11433333Y-5320000D01*
X11433333Y-5386667D01*
X11899999Y-4686667D02*
X11966666Y-4686667D01*
X12033332Y-4720000D01*
X12066666Y-4753333D01*
X12099999Y-4820000D01*
X12133332Y-4953333D01*
X12133332Y-5120000D01*
X12099999Y-5253333D01*
X12066666Y-5320000D01*
X12033332Y-5353333D01*
X11966666Y-5386667D01*
X11899999Y-5386667D01*
X11833332Y-5353333D01*
X11799999Y-5320000D01*
X11766666Y-5253333D01*
X11733332Y-5120000D01*
X11733332Y-4953333D01*
X11766666Y-4820000D01*
X11799999Y-4753333D01*
X11833332Y-4720000D01*
X11899999Y-4686667D01*
X12433333Y-5320000D02*
X12466666Y-5353333D01*
X12433333Y-5386667D01*
X12399999Y-5353333D01*
X12433333Y-5320000D01*
X12433333Y-5386667D01*
X12899999Y-4686667D02*
X12966666Y-4686667D01*
X13033332Y-4720000D01*
X13066666Y-4753333D01*
X13099999Y-4820000D01*
X13133332Y-4953333D01*
X13133332Y-5120000D01*
X13099999Y-5253333D01*
X13066666Y-5320000D01*
X13033332Y-5353333D01*
X12966666Y-5386667D01*
X12899999Y-5386667D01*
X12833332Y-5353333D01*
X12799999Y-5320000D01*
X12766666Y-5253333D01*
X12733332Y-5120000D01*
X12733332Y-4953333D01*
X12766666Y-4820000D01*
X12799999Y-4753333D01*
X12833332Y-4720000D01*
X12899999Y-4686667D01*
X13433333Y-5320000D02*
X13466666Y-5353333D01*
X13433333Y-5386667D01*
X13399999Y-5353333D01*
X13433333Y-5320000D01*
X13433333Y-5386667D01*
X13899999Y-4686667D02*
X13966666Y-4686667D01*
X14033332Y-4720000D01*
X14066666Y-4753333D01*
X14099999Y-4820000D01*
X14133332Y-4953333D01*
X14133332Y-5120000D01*
X14099999Y-5253333D01*
X14066666Y-5320000D01*
X14033332Y-5353333D01*
X13966666Y-5386667D01*
X13899999Y-5386667D01*
X13833332Y-5353333D01*
X13799999Y-5320000D01*
X13766666Y-5253333D01*
X13733332Y-5120000D01*
X13733332Y-4953333D01*
X13766666Y-4820000D01*
X13799999Y-4753333D01*
X13833332Y-4720000D01*
X13899999Y-4686667D01*
X1566667Y-6450000D02*
X1533333Y-6483333D01*
X1433333Y-6516667D01*
X1366667Y-6516667D01*
X1266667Y-6483333D01*
X1200000Y-6416667D01*
X1166667Y-6350000D01*
X1133333Y-6216667D01*
X1133333Y-6116667D01*
X1166667Y-5983333D01*
X1200000Y-5916667D01*
X1266667Y-5850000D01*
X1366667Y-5816667D01*
X1433333Y-5816667D01*
X1533333Y-5850000D01*
X1566667Y-5883333D01*
X1966667Y-6516667D02*
X1900000Y-6483333D01*
X1866667Y-6450000D01*
X1833333Y-6383333D01*
X1833333Y-6183333D01*
X1866667Y-6116667D01*
X1900000Y-6083333D01*
X1966667Y-6050000D01*
X2066667Y-6050000D01*
X2133333Y-6083333D01*
X2166667Y-6116667D01*
X2200000Y-6183333D01*
X2200000Y-6383333D01*
X2166667Y-6450000D01*
X2133333Y-6483333D01*
X2066667Y-6516667D01*
X1966667Y-6516667D01*
X2500000Y-6050000D02*
X2500000Y-6750000D01*
X2500000Y-6083333D02*
X2566666Y-6050000D01*
X2700000Y-6050000D01*
X2766666Y-6083333D01*
X2800000Y-6116667D01*
X2833333Y-6183333D01*
X2833333Y-6383333D01*
X2800000Y-6450000D01*
X2766666Y-6483333D01*
X2700000Y-6516667D01*
X2566666Y-6516667D01*
X2500000Y-6483333D01*
X3066666Y-6050000D02*
X3233333Y-6516667D01*
X3399999Y-6050000D02*
X3233333Y-6516667D01*
X3166666Y-6683333D01*
X3133333Y-6716667D01*
X3066666Y-6750000D01*
X3666666Y-6516667D02*
X3666666Y-6050000D01*
X3666666Y-6183333D02*
X3699999Y-6116667D01*
X3733332Y-6083333D01*
X3799999Y-6050000D01*
X3866666Y-6050000D01*
X4099999Y-6516667D02*
X4099999Y-6050000D01*
X4099999Y-5816667D02*
X4066665Y-5850000D01*
X4099999Y-5883333D01*
X4133332Y-5850000D01*
X4099999Y-5816667D01*
X4099999Y-5883333D01*
X4733332Y-6050000D02*
X4733332Y-6616667D01*
X4699998Y-6683333D01*
X4666665Y-6716667D01*
X4599998Y-6750000D01*
X4499998Y-6750000D01*
X4433332Y-6716667D01*
X4733332Y-6483333D02*
X4666665Y-6516667D01*
X4533332Y-6516667D01*
X4466665Y-6483333D01*
X4433332Y-6450000D01*
X4399998Y-6383333D01*
X4399998Y-6183333D01*
X4433332Y-6116667D01*
X4466665Y-6083333D01*
X4533332Y-6050000D01*
X4666665Y-6050000D01*
X4733332Y-6083333D01*
X5066665Y-6516667D02*
X5066665Y-5816667D01*
X5366665Y-6516667D02*
X5366665Y-6150000D01*
X5333331Y-6083333D01*
X5266665Y-6050000D01*
X5166665Y-6050000D01*
X5099998Y-6083333D01*
X5066665Y-6116667D01*
X5599998Y-6050000D02*
X5866664Y-6050000D01*
X5699998Y-5816667D02*
X5699998Y-6416667D01*
X5733331Y-6483333D01*
X5799998Y-6516667D01*
X5866664Y-6516667D01*
X6599997Y-6483333D02*
X6699997Y-6516667D01*
X6866664Y-6516667D01*
X6933331Y-6483333D01*
X6966664Y-6450000D01*
X6999997Y-6383333D01*
X6999997Y-6316667D01*
X6966664Y-6250000D01*
X6933331Y-6216667D01*
X6866664Y-6183333D01*
X6733331Y-6150000D01*
X6666664Y-6116667D01*
X6633331Y-6083333D01*
X6599997Y-6016667D01*
X6599997Y-5950000D01*
X6633331Y-5883333D01*
X6666664Y-5850000D01*
X6733331Y-5816667D01*
X6899997Y-5816667D01*
X6999997Y-5850000D01*
X7433331Y-5816667D02*
X7566664Y-5816667D01*
X7633331Y-5850000D01*
X7699998Y-5916667D01*
X7733331Y-6050000D01*
X7733331Y-6283333D01*
X7699998Y-6416667D01*
X7633331Y-6483333D01*
X7566664Y-6516667D01*
X7433331Y-6516667D01*
X7366664Y-6483333D01*
X7299998Y-6416667D01*
X7266664Y-6283333D01*
X7266664Y-6050000D01*
X7299998Y-5916667D01*
X7366664Y-5850000D01*
X7433331Y-5816667D01*
X8266664Y-6150000D02*
X8033331Y-6150000D01*
X8033331Y-6516667D02*
X8033331Y-5816667D01*
X8366664Y-5816667D01*
X8533331Y-5816667D02*
X8933331Y-5816667D01*
X8733331Y-6516667D02*
X8733331Y-5816667D01*
X9666664Y-5783333D02*
X9066664Y-6683333D01*
X9899997Y-6516667D02*
X9899997Y-5816667D01*
X9899997Y-6150000D02*
X10299997Y-6150000D01*
X10299997Y-6516667D02*
X10299997Y-5816667D01*
X11033330Y-6516667D02*
X10799996Y-6183333D01*
X10633330Y-6516667D02*
X10633330Y-5816667D01*
X10899996Y-5816667D01*
X10966663Y-5850000D01*
X10999996Y-5883333D01*
X11033330Y-5950000D01*
X11033330Y-6050000D01*
X10999996Y-6116667D01*
X10966663Y-6150000D01*
X10899996Y-6183333D01*
X10633330Y-6183333D01*
X11333330Y-5816667D02*
X11333330Y-6383333D01*
X11366663Y-6450000D01*
X11399996Y-6483333D01*
X11466663Y-6516667D01*
X11599996Y-6516667D01*
X11666663Y-6483333D01*
X11699996Y-6450000D01*
X11733330Y-6383333D01*
X11733330Y-5816667D01*
X12299996Y-6150000D02*
X12066663Y-6150000D01*
X12066663Y-6516667D02*
X12066663Y-5816667D01*
X12399996Y-5816667D01*
X13533329Y-6516667D02*
X13199996Y-6516667D01*
X13199996Y-5816667D01*
X14099996Y-6516667D02*
X13766663Y-6516667D01*
X13766663Y-5816667D01*
X14733330Y-6450000D02*
X14699996Y-6483333D01*
X14599996Y-6516667D01*
X14533330Y-6516667D01*
X14433330Y-6483333D01*
X14366663Y-6416667D01*
X14333330Y-6350000D01*
X14299996Y-6216667D01*
X14299996Y-6116667D01*
X14333330Y-5983333D01*
X14366663Y-5916667D01*
X14433330Y-5850000D01*
X14533330Y-5816667D01*
X14599996Y-5816667D01*
X14699996Y-5850000D01*
X14733330Y-5883333D01*
X15066663Y-6483333D02*
X15066663Y-6516667D01*
X15033330Y-6583333D01*
X14999996Y-6616667D01*
X15866662Y-5883333D02*
X15899996Y-5850000D01*
X15966662Y-5816667D01*
X16133329Y-5816667D01*
X16199996Y-5850000D01*
X16233329Y-5883333D01*
X16266662Y-5950000D01*
X16266662Y-6016667D01*
X16233329Y-6116667D01*
X15833329Y-6516667D01*
X16266662Y-6516667D01*
X16699996Y-5816667D02*
X16766663Y-5816667D01*
X16833329Y-5850000D01*
X16866663Y-5883333D01*
X16899996Y-5950000D01*
X16933329Y-6083333D01*
X16933329Y-6250000D01*
X16899996Y-6383333D01*
X16866663Y-6450000D01*
X16833329Y-6483333D01*
X16766663Y-6516667D01*
X16699996Y-6516667D01*
X16633329Y-6483333D01*
X16599996Y-6450000D01*
X16566663Y-6383333D01*
X16533329Y-6250000D01*
X16533329Y-6083333D01*
X16566663Y-5950000D01*
X16599996Y-5883333D01*
X16633329Y-5850000D01*
X16699996Y-5816667D01*
X17599996Y-6516667D02*
X17199996Y-6516667D01*
X17399996Y-6516667D02*
X17399996Y-5816667D01*
X17333330Y-5916667D01*
X17266663Y-5983333D01*
X17199996Y-6016667D01*
X18199997Y-5816667D02*
X18066663Y-5816667D01*
X17999997Y-5850000D01*
X17966663Y-5883333D01*
X17899997Y-5983333D01*
X17866663Y-6116667D01*
X17866663Y-6383333D01*
X17899997Y-6450000D01*
X17933330Y-6483333D01*
X17999997Y-6516667D01*
X18133330Y-6516667D01*
X18199997Y-6483333D01*
X18233330Y-6450000D01*
X18266663Y-6383333D01*
X18266663Y-6216667D01*
X18233330Y-6150000D01*
X18199997Y-6116667D01*
X18133330Y-6083333D01*
X17999997Y-6083333D01*
X17933330Y-6116667D01*
X17899997Y-6150000D01*
X17866663Y-6216667D01*
X1500000Y-7646667D02*
X1166667Y-7646667D01*
X1166667Y-6946667D01*
X1733334Y-7646667D02*
X1733334Y-7180000D01*
X1733334Y-6946667D02*
X1700000Y-6980000D01*
X1733334Y-7013333D01*
X1766667Y-6980000D01*
X1733334Y-6946667D01*
X1733334Y-7013333D01*
X2366667Y-7613333D02*
X2300000Y-7646667D01*
X2166667Y-7646667D01*
X2100000Y-7613333D01*
X2066667Y-7580000D01*
X2033333Y-7513333D01*
X2033333Y-7313333D01*
X2066667Y-7246667D01*
X2100000Y-7213333D01*
X2166667Y-7180000D01*
X2300000Y-7180000D01*
X2366667Y-7213333D01*
X2933333Y-7613333D02*
X2866667Y-7646667D01*
X2733333Y-7646667D01*
X2666667Y-7613333D01*
X2633333Y-7546667D01*
X2633333Y-7280000D01*
X2666667Y-7213333D01*
X2733333Y-7180000D01*
X2866667Y-7180000D01*
X2933333Y-7213333D01*
X2966667Y-7280000D01*
X2966667Y-7346667D01*
X2633333Y-7413333D01*
X3266667Y-7180000D02*
X3266667Y-7646667D01*
X3266667Y-7246667D02*
X3300000Y-7213333D01*
X3366667Y-7180000D01*
X3466667Y-7180000D01*
X3533333Y-7213333D01*
X3566667Y-7280000D01*
X3566667Y-7646667D01*
X3866666Y-7613333D02*
X3933333Y-7646667D01*
X4066666Y-7646667D01*
X4133333Y-7613333D01*
X4166666Y-7546667D01*
X4166666Y-7513333D01*
X4133333Y-7446667D01*
X4066666Y-7413333D01*
X3966666Y-7413333D01*
X3900000Y-7380000D01*
X3866666Y-7313333D01*
X3866666Y-7280000D01*
X3900000Y-7213333D01*
X3966666Y-7180000D01*
X4066666Y-7180000D01*
X4133333Y-7213333D01*
X4733333Y-7613333D02*
X4666667Y-7646667D01*
X4533333Y-7646667D01*
X4466667Y-7613333D01*
X4433333Y-7546667D01*
X4433333Y-7280000D01*
X4466667Y-7213333D01*
X4533333Y-7180000D01*
X4666667Y-7180000D01*
X4733333Y-7213333D01*
X4766667Y-7280000D01*
X4766667Y-7346667D01*
X4433333Y-7413333D01*
X5366667Y-7646667D02*
X5366667Y-6946667D01*
X5366667Y-7613333D02*
X5300000Y-7646667D01*
X5166667Y-7646667D01*
X5100000Y-7613333D01*
X5066667Y-7580000D01*
X5033333Y-7513333D01*
X5033333Y-7313333D01*
X5066667Y-7246667D01*
X5100000Y-7213333D01*
X5166667Y-7180000D01*
X5300000Y-7180000D01*
X5366667Y-7213333D01*
X6533333Y-7180000D02*
X6533333Y-7646667D01*
X6233333Y-7180000D02*
X6233333Y-7546667D01*
X6266666Y-7613333D01*
X6333333Y-7646667D01*
X6433333Y-7646667D01*
X6499999Y-7613333D01*
X6533333Y-7580000D01*
X6866666Y-7180000D02*
X6866666Y-7646667D01*
X6866666Y-7246667D02*
X6899999Y-7213333D01*
X6966666Y-7180000D01*
X7066666Y-7180000D01*
X7133332Y-7213333D01*
X7166666Y-7280000D01*
X7166666Y-7646667D01*
X7799999Y-7646667D02*
X7799999Y-6946667D01*
X7799999Y-7613333D02*
X7733332Y-7646667D01*
X7599999Y-7646667D01*
X7533332Y-7613333D01*
X7499999Y-7580000D01*
X7466665Y-7513333D01*
X7466665Y-7313333D01*
X7499999Y-7246667D01*
X7533332Y-7213333D01*
X7599999Y-7180000D01*
X7733332Y-7180000D01*
X7799999Y-7213333D01*
X8399998Y-7613333D02*
X8333332Y-7646667D01*
X8199998Y-7646667D01*
X8133332Y-7613333D01*
X8099998Y-7546667D01*
X8099998Y-7280000D01*
X8133332Y-7213333D01*
X8199998Y-7180000D01*
X8333332Y-7180000D01*
X8399998Y-7213333D01*
X8433332Y-7280000D01*
X8433332Y-7346667D01*
X8099998Y-7413333D01*
X8733332Y-7646667D02*
X8733332Y-7180000D01*
X8733332Y-7313333D02*
X8766665Y-7246667D01*
X8799998Y-7213333D01*
X8866665Y-7180000D01*
X8933332Y-7180000D01*
X10066664Y-6980000D02*
X9999998Y-6946667D01*
X9899998Y-6946667D01*
X9799998Y-6980000D01*
X9733331Y-7046667D01*
X9699998Y-7113333D01*
X9666664Y-7246667D01*
X9666664Y-7346667D01*
X9699998Y-7480000D01*
X9733331Y-7546667D01*
X9799998Y-7613333D01*
X9899998Y-7646667D01*
X9966664Y-7646667D01*
X10066664Y-7613333D01*
X10099998Y-7580000D01*
X10099998Y-7346667D01*
X9966664Y-7346667D01*
X10399998Y-7646667D02*
X10399998Y-6946667D01*
X10666664Y-6946667D01*
X10733331Y-6980000D01*
X10766664Y-7013333D01*
X10799998Y-7080000D01*
X10799998Y-7180000D01*
X10766664Y-7246667D01*
X10733331Y-7280000D01*
X10666664Y-7313333D01*
X10399998Y-7313333D01*
X11433331Y-7646667D02*
X11099998Y-7646667D01*
X11099998Y-6946667D01*
X11599998Y-7180000D02*
X11766665Y-7646667D01*
X11933331Y-7180000D01*
X12133331Y-6946667D02*
X12566664Y-6946667D01*
X12333331Y-7213333D01*
X12433331Y-7213333D01*
X12499998Y-7246667D01*
X12533331Y-7280000D01*
X12566664Y-7346667D01*
X12566664Y-7513333D01*
X12533331Y-7580000D01*
X12499998Y-7613333D01*
X12433331Y-7646667D01*
X12233331Y-7646667D01*
X12166664Y-7613333D01*
X12133331Y-7580000D01*
X18250000Y-17725000D02*
X15750000Y-17725000D01*
X17650000Y-15975000D02*
X16350000Y-15975000D01*
X16350000Y-15575000D02*
X17650000Y-15575000D01*
X17650000Y-15775000D02*
X16350000Y-15775000D01*
X17650000Y-13975000D02*
X17650000Y-15975000D01*
X16350000Y-15975000D02*
X16350000Y-13975000D01*
X36750000Y-17725000D02*
X34250000Y-17725000D01*
X36150000Y-15975000D02*
X34850000Y-15975000D01*
X34850000Y-15575000D02*
X36150000Y-15575000D01*
X36150000Y-15775000D02*
X34850000Y-15775000D01*
X36150000Y-13975000D02*
X36150000Y-15975000D01*
X34850000Y-15975000D02*
X34850000Y-13975000D01*
X55250000Y-17725000D02*
X52750000Y-17725000D01*
X54650000Y-15975000D02*
X53350000Y-15975000D01*
X53350000Y-15575000D02*
X54650000Y-15575000D01*
X54650000Y-15775000D02*
X53350000Y-15775000D01*
X54650000Y-13975000D02*
X54650000Y-15975000D01*
X53350000Y-15975000D02*
X53350000Y-13975000D01*
X71450000Y-17725000D02*
X68950000Y-17725000D01*
X70850000Y-15975000D02*
X69550000Y-15975000D01*
X69550000Y-15575000D02*
X70850000Y-15575000D01*
X70850000Y-15775000D02*
X69550000Y-15775000D01*
X70850000Y-13975000D02*
X70850000Y-15975000D01*
X69550000Y-15975000D02*
X69550000Y-13975000D01*
X76050000Y-17725000D02*
X73550000Y-17725000D01*
X75450000Y-15975000D02*
X74150000Y-15975000D01*
X74150000Y-15575000D02*
X75450000Y-15575000D01*
X75450000Y-15775000D02*
X74150000Y-15775000D01*
X75450000Y-13975000D02*
X75450000Y-15975000D01*
X74150000Y-15975000D02*
X74150000Y-13975000D01*
X18250000Y-25650000D02*
X15750000Y-25650000D01*
X17650000Y-23900000D02*
X16350000Y-23900000D01*
X16350000Y-23500000D02*
X17650000Y-23500000D01*
X17650000Y-23700000D02*
X16350000Y-23700000D01*
X17650000Y-21900000D02*
X17650000Y-23900000D01*
X16350000Y-23900000D02*
X16350000Y-21900000D01*
X36750000Y-25625000D02*
X34250000Y-25625000D01*
X36150000Y-23875000D02*
X34850000Y-23875000D01*
X34850000Y-23475000D02*
X36150000Y-23475000D01*
X36150000Y-23675000D02*
X34850000Y-23675000D01*
X36150000Y-21875000D02*
X36150000Y-23875000D01*
X34850000Y-23875000D02*
X34850000Y-21875000D01*
X55250000Y-25625000D02*
X52750000Y-25625000D01*
X54650000Y-23875000D02*
X53350000Y-23875000D01*
X53350000Y-23475000D02*
X54650000Y-23475000D01*
X54650000Y-23675000D02*
X53350000Y-23675000D01*
X54650000Y-21875000D02*
X54650000Y-23875000D01*
X53350000Y-23875000D02*
X53350000Y-21875000D01*
X71450000Y-25650000D02*
X68950000Y-25650000D01*
X70850000Y-23900000D02*
X69550000Y-23900000D01*
X69550000Y-23500000D02*
X70850000Y-23500000D01*
X70850000Y-23700000D02*
X69550000Y-23700000D01*
X70850000Y-21900000D02*
X70850000Y-23900000D01*
X69550000Y-23900000D02*
X69550000Y-21900000D01*
X76050000Y-25625000D02*
X73550000Y-25625000D01*
X75450000Y-23875000D02*
X74150000Y-23875000D01*
X74150000Y-23475000D02*
X75450000Y-23475000D01*
X75450000Y-23675000D02*
X74150000Y-23675000D01*
X75450000Y-21875000D02*
X75450000Y-23875000D01*
X74150000Y-23875000D02*
X74150000Y-21875000D01*
X15750000Y-32375000D02*
X18250000Y-32375000D01*
X16350000Y-34125000D02*
X17650000Y-34125000D01*
X17650000Y-34525000D02*
X16350000Y-34525000D01*
X16350000Y-34325000D02*
X17650000Y-34325000D01*
X16350000Y-36125000D02*
X16350000Y-34125000D01*
X17650000Y-34125000D02*
X17650000Y-36125000D01*
X34250000Y-32350000D02*
X36750000Y-32350000D01*
X34850000Y-34100000D02*
X36150000Y-34100000D01*
X36150000Y-34500000D02*
X34850000Y-34500000D01*
X34850000Y-34300000D02*
X36150000Y-34300000D01*
X34850000Y-36100000D02*
X34850000Y-34100000D01*
X36150000Y-34100000D02*
X36150000Y-36100000D01*
X52750000Y-32350000D02*
X55250000Y-32350000D01*
X53350000Y-34100000D02*
X54650000Y-34100000D01*
X54650000Y-34500000D02*
X53350000Y-34500000D01*
X53350000Y-34300000D02*
X54650000Y-34300000D01*
X53350000Y-36100000D02*
X53350000Y-34100000D01*
X54650000Y-34100000D02*
X54650000Y-36100000D01*
X68950000Y-32375000D02*
X71450000Y-32375000D01*
X69550000Y-34125000D02*
X70850000Y-34125000D01*
X70850000Y-34525000D02*
X69550000Y-34525000D01*
X69550000Y-34325000D02*
X70850000Y-34325000D01*
X69550000Y-36125000D02*
X69550000Y-34125000D01*
X70850000Y-34125000D02*
X70850000Y-36125000D01*
X73550000Y-32375000D02*
X76050000Y-32375000D01*
X74150000Y-34125000D02*
X75450000Y-34125000D01*
X75450000Y-34525000D02*
X74150000Y-34525000D01*
X74150000Y-34325000D02*
X75450000Y-34325000D01*
X74150000Y-36125000D02*
X74150000Y-34125000D01*
X75450000Y-34125000D02*
X75450000Y-36125000D01*
X15261905Y-15540476D02*
X14461905Y-15540476D01*
X14461905Y-15350000D01*
X14500000Y-15235714D01*
X14576190Y-15159523D01*
X14652381Y-15121428D01*
X14804762Y-15083333D01*
X14919048Y-15083333D01*
X15071429Y-15121428D01*
X15147619Y-15159523D01*
X15223810Y-15235714D01*
X15261905Y-15350000D01*
X15261905Y-15540476D01*
X15261905Y-14321428D02*
X15261905Y-14778571D01*
X15261905Y-14550000D02*
X14461905Y-14550000D01*
X14576190Y-14626190D01*
X14652381Y-14702381D01*
X14690476Y-14778571D01*
X33761905Y-15540476D02*
X32961905Y-15540476D01*
X32961905Y-15350000D01*
X33000000Y-15235714D01*
X33076190Y-15159523D01*
X33152381Y-15121428D01*
X33304762Y-15083333D01*
X33419048Y-15083333D01*
X33571429Y-15121428D01*
X33647619Y-15159523D01*
X33723810Y-15235714D01*
X33761905Y-15350000D01*
X33761905Y-15540476D01*
X33038095Y-14778571D02*
X33000000Y-14740476D01*
X32961905Y-14664285D01*
X32961905Y-14473809D01*
X33000000Y-14397619D01*
X33038095Y-14359523D01*
X33114286Y-14321428D01*
X33190476Y-14321428D01*
X33304762Y-14359523D01*
X33761905Y-14816666D01*
X33761905Y-14321428D01*
X52211905Y-15540476D02*
X51411905Y-15540476D01*
X51411905Y-15350000D01*
X51450000Y-15235714D01*
X51526190Y-15159523D01*
X51602381Y-15121428D01*
X51754762Y-15083333D01*
X51869048Y-15083333D01*
X52021429Y-15121428D01*
X52097619Y-15159523D01*
X52173810Y-15235714D01*
X52211905Y-15350000D01*
X52211905Y-15540476D01*
X51411905Y-14816666D02*
X51411905Y-14321428D01*
X51716667Y-14588095D01*
X51716667Y-14473809D01*
X51754762Y-14397619D01*
X51792857Y-14359523D01*
X51869048Y-14321428D01*
X52059524Y-14321428D01*
X52135714Y-14359523D01*
X52173810Y-14397619D01*
X52211905Y-14473809D01*
X52211905Y-14702381D01*
X52173810Y-14778571D01*
X52135714Y-14816666D01*
X68661905Y-15590476D02*
X67861905Y-15590476D01*
X67861905Y-15400000D01*
X67900000Y-15285714D01*
X67976190Y-15209523D01*
X68052381Y-15171428D01*
X68204762Y-15133333D01*
X68319048Y-15133333D01*
X68471429Y-15171428D01*
X68547619Y-15209523D01*
X68623810Y-15285714D01*
X68661905Y-15400000D01*
X68661905Y-15590476D01*
X68128571Y-14447619D02*
X68661905Y-14447619D01*
X67823810Y-14638095D02*
X68395238Y-14828571D01*
X68395238Y-14333333D01*
X77361905Y-14965476D02*
X76561905Y-14965476D01*
X76561905Y-14775000D01*
X76600000Y-14660714D01*
X76676190Y-14584523D01*
X76752381Y-14546428D01*
X76904762Y-14508333D01*
X77019048Y-14508333D01*
X77171429Y-14546428D01*
X77247619Y-14584523D01*
X77323810Y-14660714D01*
X77361905Y-14775000D01*
X77361905Y-14965476D01*
X76561905Y-13784523D02*
X76561905Y-14165476D01*
X76942857Y-14203571D01*
X76904762Y-14165476D01*
X76866667Y-14089285D01*
X76866667Y-13898809D01*
X76904762Y-13822619D01*
X76942857Y-13784523D01*
X77019048Y-13746428D01*
X77209524Y-13746428D01*
X77285714Y-13784523D01*
X77323810Y-13822619D01*
X77361905Y-13898809D01*
X77361905Y-14089285D01*
X77323810Y-14165476D01*
X77285714Y-14203571D01*
X15261905Y-23490476D02*
X14461905Y-23490476D01*
X14461905Y-23300000D01*
X14500000Y-23185714D01*
X14576190Y-23109523D01*
X14652381Y-23071428D01*
X14804762Y-23033333D01*
X14919048Y-23033333D01*
X15071429Y-23071428D01*
X15147619Y-23109523D01*
X15223810Y-23185714D01*
X15261905Y-23300000D01*
X15261905Y-23490476D01*
X14461905Y-22347619D02*
X14461905Y-22500000D01*
X14500000Y-22576190D01*
X14538095Y-22614285D01*
X14652381Y-22690476D01*
X14804762Y-22728571D01*
X15109524Y-22728571D01*
X15185714Y-22690476D01*
X15223810Y-22652381D01*
X15261905Y-22576190D01*
X15261905Y-22423809D01*
X15223810Y-22347619D01*
X15185714Y-22309523D01*
X15109524Y-22271428D01*
X14919048Y-22271428D01*
X14842857Y-22309523D01*
X14804762Y-22347619D01*
X14766667Y-22423809D01*
X14766667Y-22576190D01*
X14804762Y-22652381D01*
X14842857Y-22690476D01*
X14919048Y-22728571D01*
X33711905Y-23490476D02*
X32911905Y-23490476D01*
X32911905Y-23300000D01*
X32950000Y-23185714D01*
X33026190Y-23109523D01*
X33102381Y-23071428D01*
X33254762Y-23033333D01*
X33369048Y-23033333D01*
X33521429Y-23071428D01*
X33597619Y-23109523D01*
X33673810Y-23185714D01*
X33711905Y-23300000D01*
X33711905Y-23490476D01*
X32911905Y-22766666D02*
X32911905Y-22233333D01*
X33711905Y-22576190D01*
X52261905Y-23440476D02*
X51461905Y-23440476D01*
X51461905Y-23250000D01*
X51500000Y-23135714D01*
X51576190Y-23059523D01*
X51652381Y-23021428D01*
X51804762Y-22983333D01*
X51919048Y-22983333D01*
X52071429Y-23021428D01*
X52147619Y-23059523D01*
X52223810Y-23135714D01*
X52261905Y-23250000D01*
X52261905Y-23440476D01*
X51804762Y-22526190D02*
X51766667Y-22602381D01*
X51728571Y-22640476D01*
X51652381Y-22678571D01*
X51614286Y-22678571D01*
X51538095Y-22640476D01*
X51500000Y-22602381D01*
X51461905Y-22526190D01*
X51461905Y-22373809D01*
X51500000Y-22297619D01*
X51538095Y-22259523D01*
X51614286Y-22221428D01*
X51652381Y-22221428D01*
X51728571Y-22259523D01*
X51766667Y-22297619D01*
X51804762Y-22373809D01*
X51804762Y-22526190D01*
X51842857Y-22602381D01*
X51880952Y-22640476D01*
X51957143Y-22678571D01*
X52109524Y-22678571D01*
X52185714Y-22640476D01*
X52223810Y-22602381D01*
X52261905Y-22526190D01*
X52261905Y-22373809D01*
X52223810Y-22297619D01*
X52185714Y-22259523D01*
X52109524Y-22221428D01*
X51957143Y-22221428D01*
X51880952Y-22259523D01*
X51842857Y-22297619D01*
X51804762Y-22373809D01*
X68661905Y-23490476D02*
X67861905Y-23490476D01*
X67861905Y-23300000D01*
X67900000Y-23185714D01*
X67976190Y-23109523D01*
X68052381Y-23071428D01*
X68204762Y-23033333D01*
X68319048Y-23033333D01*
X68471429Y-23071428D01*
X68547619Y-23109523D01*
X68623810Y-23185714D01*
X68661905Y-23300000D01*
X68661905Y-23490476D01*
X68661905Y-22652381D02*
X68661905Y-22500000D01*
X68623810Y-22423809D01*
X68585714Y-22385714D01*
X68471429Y-22309523D01*
X68319048Y-22271428D01*
X68014286Y-22271428D01*
X67938095Y-22309523D01*
X67900000Y-22347619D01*
X67861905Y-22423809D01*
X67861905Y-22576190D01*
X67900000Y-22652381D01*
X67938095Y-22690476D01*
X68014286Y-22728571D01*
X68204762Y-22728571D01*
X68280952Y-22690476D01*
X68319048Y-22652381D01*
X68357143Y-22576190D01*
X68357143Y-22423809D01*
X68319048Y-22347619D01*
X68280952Y-22309523D01*
X68204762Y-22271428D01*
X77361905Y-23871429D02*
X76561905Y-23871429D01*
X76561905Y-23680953D01*
X76600000Y-23566667D01*
X76676190Y-23490476D01*
X76752381Y-23452381D01*
X76904762Y-23414286D01*
X77019048Y-23414286D01*
X77171429Y-23452381D01*
X77247619Y-23490476D01*
X77323810Y-23566667D01*
X77361905Y-23680953D01*
X77361905Y-23871429D01*
X77361905Y-22652381D02*
X77361905Y-23109524D01*
X77361905Y-22880953D02*
X76561905Y-22880953D01*
X76676190Y-22957143D01*
X76752381Y-23033334D01*
X76790476Y-23109524D01*
X76561905Y-22157143D02*
X76561905Y-22080952D01*
X76600000Y-22004762D01*
X76638095Y-21966667D01*
X76714286Y-21928571D01*
X76866667Y-21890476D01*
X77057143Y-21890476D01*
X77209524Y-21928571D01*
X77285714Y-21966667D01*
X77323810Y-22004762D01*
X77361905Y-22080952D01*
X77361905Y-22157143D01*
X77323810Y-22233333D01*
X77285714Y-22271429D01*
X77209524Y-22309524D01*
X77057143Y-22347619D01*
X76866667Y-22347619D01*
X76714286Y-22309524D01*
X76638095Y-22271429D01*
X76600000Y-22233333D01*
X76561905Y-22157143D01*
X15261905Y-36121429D02*
X14461905Y-36121429D01*
X14461905Y-35930953D01*
X14500000Y-35816667D01*
X14576190Y-35740476D01*
X14652381Y-35702381D01*
X14804762Y-35664286D01*
X14919048Y-35664286D01*
X15071429Y-35702381D01*
X15147619Y-35740476D01*
X15223810Y-35816667D01*
X15261905Y-35930953D01*
X15261905Y-36121429D01*
X15261905Y-34902381D02*
X15261905Y-35359524D01*
X15261905Y-35130953D02*
X14461905Y-35130953D01*
X14576190Y-35207143D01*
X14652381Y-35283334D01*
X14690476Y-35359524D01*
X15261905Y-34140476D02*
X15261905Y-34597619D01*
X15261905Y-34369048D02*
X14461905Y-34369048D01*
X14576190Y-34445238D01*
X14652381Y-34521429D01*
X14690476Y-34597619D01*
X33711905Y-36071429D02*
X32911905Y-36071429D01*
X32911905Y-35880953D01*
X32950000Y-35766667D01*
X33026190Y-35690476D01*
X33102381Y-35652381D01*
X33254762Y-35614286D01*
X33369048Y-35614286D01*
X33521429Y-35652381D01*
X33597619Y-35690476D01*
X33673810Y-35766667D01*
X33711905Y-35880953D01*
X33711905Y-36071429D01*
X33711905Y-34852381D02*
X33711905Y-35309524D01*
X33711905Y-35080953D02*
X32911905Y-35080953D01*
X33026190Y-35157143D01*
X33102381Y-35233334D01*
X33140476Y-35309524D01*
X32988095Y-34547619D02*
X32950000Y-34509524D01*
X32911905Y-34433333D01*
X32911905Y-34242857D01*
X32950000Y-34166667D01*
X32988095Y-34128571D01*
X33064286Y-34090476D01*
X33140476Y-34090476D01*
X33254762Y-34128571D01*
X33711905Y-34585714D01*
X33711905Y-34090476D01*
X52261905Y-36071429D02*
X51461905Y-36071429D01*
X51461905Y-35880953D01*
X51500000Y-35766667D01*
X51576190Y-35690476D01*
X51652381Y-35652381D01*
X51804762Y-35614286D01*
X51919048Y-35614286D01*
X52071429Y-35652381D01*
X52147619Y-35690476D01*
X52223810Y-35766667D01*
X52261905Y-35880953D01*
X52261905Y-36071429D01*
X52261905Y-34852381D02*
X52261905Y-35309524D01*
X52261905Y-35080953D02*
X51461905Y-35080953D01*
X51576190Y-35157143D01*
X51652381Y-35233334D01*
X51690476Y-35309524D01*
X51461905Y-34585714D02*
X51461905Y-34090476D01*
X51766667Y-34357143D01*
X51766667Y-34242857D01*
X51804762Y-34166667D01*
X51842857Y-34128571D01*
X51919048Y-34090476D01*
X52109524Y-34090476D01*
X52185714Y-34128571D01*
X52223810Y-34166667D01*
X52261905Y-34242857D01*
X52261905Y-34471429D01*
X52223810Y-34547619D01*
X52185714Y-34585714D01*
X68661905Y-36071429D02*
X67861905Y-36071429D01*
X67861905Y-35880953D01*
X67900000Y-35766667D01*
X67976190Y-35690476D01*
X68052381Y-35652381D01*
X68204762Y-35614286D01*
X68319048Y-35614286D01*
X68471429Y-35652381D01*
X68547619Y-35690476D01*
X68623810Y-35766667D01*
X68661905Y-35880953D01*
X68661905Y-36071429D01*
X68661905Y-34852381D02*
X68661905Y-35309524D01*
X68661905Y-35080953D02*
X67861905Y-35080953D01*
X67976190Y-35157143D01*
X68052381Y-35233334D01*
X68090476Y-35309524D01*
X68128571Y-34166667D02*
X68661905Y-34166667D01*
X67823810Y-34357143D02*
X68395238Y-34547619D01*
X68395238Y-34052381D01*
X77361905Y-34371429D02*
X76561905Y-34371429D01*
X76561905Y-34180953D01*
X76600000Y-34066667D01*
X76676190Y-33990476D01*
X76752381Y-33952381D01*
X76904762Y-33914286D01*
X77019048Y-33914286D01*
X77171429Y-33952381D01*
X77247619Y-33990476D01*
X77323810Y-34066667D01*
X77361905Y-34180953D01*
X77361905Y-34371429D01*
X77361905Y-33152381D02*
X77361905Y-33609524D01*
X77361905Y-33380953D02*
X76561905Y-33380953D01*
X76676190Y-33457143D01*
X76752381Y-33533334D01*
X76790476Y-33609524D01*
X76561905Y-32428571D02*
X76561905Y-32809524D01*
X76942857Y-32847619D01*
X76904762Y-32809524D01*
X76866667Y-32733333D01*
X76866667Y-32542857D01*
X76904762Y-32466667D01*
X76942857Y-32428571D01*
X77019048Y-32390476D01*
X77209524Y-32390476D01*
X77285714Y-32428571D01*
X77323810Y-32466667D01*
X77361905Y-32542857D01*
X77361905Y-32733333D01*
X77323810Y-32809524D01*
X77285714Y-32847619D01*
M02*
