%FSLAX45Y45*%
G04 Gerber Fmt 4.5, Leading zero omitted, Abs format (unit mm)*
G04 Created by KiCad (PCBNEW 4.0.1-stable) date Saturday, January 28, 2017 'PMt' 02:32:04 PM*
%MOMM*%
G01*
G04 APERTURE LIST*
%ADD10C,0.127000*%
%ADD11C,0.150000*%
%ADD12C,0.200000*%
%ADD13C,0.300000*%
G04 APERTURE END LIST*
D10*
D11*
X4520000Y200000D02*
X0Y200000D01*
X10800000Y570000D02*
X10800000Y200000D01*
X4520000Y570000D02*
X10800000Y570000D01*
X4520000Y200000D02*
X4520000Y570000D01*
X23120000Y-4500000D02*
X23120000Y200000D01*
X16570000Y-6300000D02*
X23120000Y-4500000D01*
X13070000Y-6300000D02*
X16570000Y-6300000D01*
X13070000Y-4500000D02*
X13070000Y-6300000D01*
X10800000Y-4500000D02*
X13070000Y-4500000D01*
X10050000Y-4500000D02*
X10800000Y-4500000D01*
X10050000Y-6300000D02*
X10050000Y-4500000D01*
X6550000Y-6300000D02*
X10050000Y-6300000D01*
X0Y-4500000D02*
X6550000Y-6300000D01*
X0Y200000D02*
X0Y-4500000D01*
X10800000Y200000D02*
X23120000Y200000D01*
D12*
X5198500Y112000D02*
X5238500Y72000D01*
X5238500Y112000D02*
X5198500Y72000D01*
X5683500Y112000D02*
X5723500Y72000D01*
X5723500Y112000D02*
X5683500Y72000D01*
X5139750Y392000D02*
G75*
G03X5139750Y392000I-30000J0D01*
G01*
X5842250Y392000D02*
G75*
G03X5842250Y392000I-30000J0D01*
G01*
X10682000Y-462000D02*
X10682000Y-782000D01*
X10522000Y-622000D02*
X10842000Y-622000D01*
X10682000Y-1605000D02*
X10682000Y-1925000D01*
X10522000Y-1765000D02*
X10842000Y-1765000D01*
X12436000Y-112000D02*
X12436000Y-432000D01*
X12276000Y-272000D02*
X12596000Y-272000D01*
X12436000Y-1255000D02*
X12436000Y-1575000D01*
X12276000Y-1415000D02*
X12596000Y-1415000D01*
D13*
X263929Y-6773214D02*
X263929Y-6473214D01*
X335357Y-6473214D01*
X378214Y-6487500D01*
X406786Y-6516071D01*
X421071Y-6544643D01*
X435357Y-6601786D01*
X435357Y-6644643D01*
X421071Y-6701786D01*
X406786Y-6730357D01*
X378214Y-6758929D01*
X335357Y-6773214D01*
X263929Y-6773214D01*
X563929Y-6773214D02*
X563929Y-6573214D01*
X563929Y-6630357D02*
X578214Y-6601786D01*
X592500Y-6587500D01*
X621071Y-6573214D01*
X649643Y-6573214D01*
X749643Y-6773214D02*
X749643Y-6573214D01*
X749643Y-6473214D02*
X735357Y-6487500D01*
X749643Y-6501786D01*
X763928Y-6487500D01*
X749643Y-6473214D01*
X749643Y-6501786D01*
X935357Y-6773214D02*
X906786Y-6758929D01*
X892500Y-6730357D01*
X892500Y-6473214D01*
X1092500Y-6773214D02*
X1063929Y-6758929D01*
X1049643Y-6730357D01*
X1049643Y-6473214D01*
X1435357Y-6773214D02*
X1435357Y-6473214D01*
X1535357Y-6687500D01*
X1635357Y-6473214D01*
X1635357Y-6773214D01*
X1906786Y-6773214D02*
X1906786Y-6616071D01*
X1892500Y-6587500D01*
X1863928Y-6573214D01*
X1806786Y-6573214D01*
X1778214Y-6587500D01*
X1906786Y-6758929D02*
X1878214Y-6773214D01*
X1806786Y-6773214D01*
X1778214Y-6758929D01*
X1763928Y-6730357D01*
X1763928Y-6701786D01*
X1778214Y-6673214D01*
X1806786Y-6658929D01*
X1878214Y-6658929D01*
X1906786Y-6644643D01*
X2049643Y-6573214D02*
X2049643Y-6873214D01*
X2049643Y-6587500D02*
X2078214Y-6573214D01*
X2135357Y-6573214D01*
X2163929Y-6587500D01*
X2178214Y-6601786D01*
X2192500Y-6630357D01*
X2192500Y-6716071D01*
X2178214Y-6744643D01*
X2163929Y-6758929D01*
X2135357Y-6773214D01*
X2078214Y-6773214D01*
X2049643Y-6758929D01*
X2321071Y-6744643D02*
X2335357Y-6758929D01*
X2321071Y-6773214D01*
X2306786Y-6758929D01*
X2321071Y-6744643D01*
X2321071Y-6773214D01*
X2321071Y-6587500D02*
X2335357Y-6601786D01*
X2321071Y-6616071D01*
X2306786Y-6601786D01*
X2321071Y-6587500D01*
X2321071Y-6616071D01*
X-47500Y-7247500D02*
X-7500Y-7287500D01*
X-7500Y-7247500D02*
X-47500Y-7287500D01*
X321071Y-7103214D02*
X349643Y-7103214D01*
X378214Y-7117500D01*
X392500Y-7131786D01*
X406786Y-7160357D01*
X421071Y-7217500D01*
X421071Y-7288929D01*
X406786Y-7346071D01*
X392500Y-7374643D01*
X378214Y-7388929D01*
X349643Y-7403214D01*
X321071Y-7403214D01*
X292500Y-7388929D01*
X278214Y-7374643D01*
X263929Y-7346071D01*
X249643Y-7288929D01*
X249643Y-7217500D01*
X263929Y-7160357D01*
X278214Y-7131786D01*
X292500Y-7117500D01*
X321071Y-7103214D01*
X549643Y-7374643D02*
X563929Y-7388929D01*
X549643Y-7403214D01*
X535357Y-7388929D01*
X549643Y-7374643D01*
X549643Y-7403214D01*
X821071Y-7203214D02*
X821071Y-7403214D01*
X749643Y-7088929D02*
X678214Y-7303214D01*
X863928Y-7303214D01*
X1035357Y-7103214D02*
X1063929Y-7103214D01*
X1092500Y-7117500D01*
X1106786Y-7131786D01*
X1121071Y-7160357D01*
X1135357Y-7217500D01*
X1135357Y-7288929D01*
X1121071Y-7346071D01*
X1106786Y-7374643D01*
X1092500Y-7388929D01*
X1063929Y-7403214D01*
X1035357Y-7403214D01*
X1006786Y-7388929D01*
X992500Y-7374643D01*
X978214Y-7346071D01*
X963928Y-7288929D01*
X963928Y-7217500D01*
X978214Y-7160357D01*
X992500Y-7131786D01*
X1006786Y-7117500D01*
X1035357Y-7103214D01*
X1263929Y-7403214D02*
X1263929Y-7203214D01*
X1263929Y-7231786D02*
X1278214Y-7217500D01*
X1306786Y-7203214D01*
X1349643Y-7203214D01*
X1378214Y-7217500D01*
X1392500Y-7246071D01*
X1392500Y-7403214D01*
X1392500Y-7246071D02*
X1406786Y-7217500D01*
X1435357Y-7203214D01*
X1478214Y-7203214D01*
X1506786Y-7217500D01*
X1521071Y-7246071D01*
X1521071Y-7403214D01*
X1663928Y-7403214D02*
X1663928Y-7203214D01*
X1663928Y-7231786D02*
X1678214Y-7217500D01*
X1706786Y-7203214D01*
X1749643Y-7203214D01*
X1778214Y-7217500D01*
X1792500Y-7246071D01*
X1792500Y-7403214D01*
X1792500Y-7246071D02*
X1806786Y-7217500D01*
X1835357Y-7203214D01*
X1878214Y-7203214D01*
X1906786Y-7217500D01*
X1921071Y-7246071D01*
X1921071Y-7403214D01*
X2506786Y-7088929D02*
X2249643Y-7474643D01*
X2892500Y-7103214D02*
X2921071Y-7103214D01*
X2949643Y-7117500D01*
X2963928Y-7131786D01*
X2978214Y-7160357D01*
X2992500Y-7217500D01*
X2992500Y-7288929D01*
X2978214Y-7346071D01*
X2963928Y-7374643D01*
X2949643Y-7388929D01*
X2921071Y-7403214D01*
X2892500Y-7403214D01*
X2863928Y-7388929D01*
X2849643Y-7374643D01*
X2835357Y-7346071D01*
X2821071Y-7288929D01*
X2821071Y-7217500D01*
X2835357Y-7160357D01*
X2849643Y-7131786D01*
X2863928Y-7117500D01*
X2892500Y-7103214D01*
X3121071Y-7374643D02*
X3135357Y-7388929D01*
X3121071Y-7403214D01*
X3106786Y-7388929D01*
X3121071Y-7374643D01*
X3121071Y-7403214D01*
X3321071Y-7103214D02*
X3349643Y-7103214D01*
X3378214Y-7117500D01*
X3392500Y-7131786D01*
X3406785Y-7160357D01*
X3421071Y-7217500D01*
X3421071Y-7288929D01*
X3406785Y-7346071D01*
X3392500Y-7374643D01*
X3378214Y-7388929D01*
X3349643Y-7403214D01*
X3321071Y-7403214D01*
X3292500Y-7388929D01*
X3278214Y-7374643D01*
X3263928Y-7346071D01*
X3249643Y-7288929D01*
X3249643Y-7217500D01*
X3263928Y-7160357D01*
X3278214Y-7131786D01*
X3292500Y-7117500D01*
X3321071Y-7103214D01*
X3706785Y-7403214D02*
X3535357Y-7403214D01*
X3621071Y-7403214D02*
X3621071Y-7103214D01*
X3592500Y-7146071D01*
X3563928Y-7174643D01*
X3535357Y-7188929D01*
X3963928Y-7103214D02*
X3906785Y-7103214D01*
X3878214Y-7117500D01*
X3863928Y-7131786D01*
X3835357Y-7174643D01*
X3821071Y-7231786D01*
X3821071Y-7346071D01*
X3835357Y-7374643D01*
X3849643Y-7388929D01*
X3878214Y-7403214D01*
X3935357Y-7403214D01*
X3963928Y-7388929D01*
X3978214Y-7374643D01*
X3992500Y-7346071D01*
X3992500Y-7274643D01*
X3978214Y-7246071D01*
X3963928Y-7231786D01*
X3935357Y-7217500D01*
X3878214Y-7217500D01*
X3849643Y-7231786D01*
X3835357Y-7246071D01*
X3821071Y-7274643D01*
X4106786Y-7103214D02*
X4106786Y-7160357D01*
X4221071Y-7103214D02*
X4221071Y-7160357D01*
X4663928Y-7517500D02*
X4649643Y-7503214D01*
X4621071Y-7460357D01*
X4606786Y-7431786D01*
X4592500Y-7388929D01*
X4578214Y-7317500D01*
X4578214Y-7260357D01*
X4592500Y-7188929D01*
X4606786Y-7146071D01*
X4621071Y-7117500D01*
X4649643Y-7074643D01*
X4663928Y-7060357D01*
X4763928Y-7131786D02*
X4778214Y-7117500D01*
X4806786Y-7103214D01*
X4878214Y-7103214D01*
X4906786Y-7117500D01*
X4921071Y-7131786D01*
X4935357Y-7160357D01*
X4935357Y-7188929D01*
X4921071Y-7231786D01*
X4749643Y-7403214D01*
X4935357Y-7403214D01*
X5292500Y-7403214D02*
X5292500Y-7103214D01*
X5421071Y-7403214D02*
X5421071Y-7246071D01*
X5406786Y-7217500D01*
X5378214Y-7203214D01*
X5335357Y-7203214D01*
X5306786Y-7217500D01*
X5292500Y-7231786D01*
X5606785Y-7403214D02*
X5578214Y-7388929D01*
X5563928Y-7374643D01*
X5549643Y-7346071D01*
X5549643Y-7260357D01*
X5563928Y-7231786D01*
X5578214Y-7217500D01*
X5606785Y-7203214D01*
X5649643Y-7203214D01*
X5678214Y-7217500D01*
X5692500Y-7231786D01*
X5706785Y-7260357D01*
X5706785Y-7346071D01*
X5692500Y-7374643D01*
X5678214Y-7388929D01*
X5649643Y-7403214D01*
X5606785Y-7403214D01*
X5878214Y-7403214D02*
X5849643Y-7388929D01*
X5835357Y-7360357D01*
X5835357Y-7103214D01*
X6106786Y-7388929D02*
X6078214Y-7403214D01*
X6021071Y-7403214D01*
X5992500Y-7388929D01*
X5978214Y-7360357D01*
X5978214Y-7246071D01*
X5992500Y-7217500D01*
X6021071Y-7203214D01*
X6078214Y-7203214D01*
X6106786Y-7217500D01*
X6121071Y-7246071D01*
X6121071Y-7274643D01*
X5978214Y-7303214D01*
X6235357Y-7388929D02*
X6263928Y-7403214D01*
X6321071Y-7403214D01*
X6349643Y-7388929D01*
X6363928Y-7360357D01*
X6363928Y-7346071D01*
X6349643Y-7317500D01*
X6321071Y-7303214D01*
X6278214Y-7303214D01*
X6249643Y-7288929D01*
X6235357Y-7260357D01*
X6235357Y-7246071D01*
X6249643Y-7217500D01*
X6278214Y-7203214D01*
X6321071Y-7203214D01*
X6349643Y-7217500D01*
X6463928Y-7517500D02*
X6478214Y-7503214D01*
X6506786Y-7460357D01*
X6521071Y-7431786D01*
X6535357Y-7388929D01*
X6549643Y-7317500D01*
X6549643Y-7260357D01*
X6535357Y-7188929D01*
X6521071Y-7146071D01*
X6506786Y-7117500D01*
X6478214Y-7074643D01*
X6463928Y-7060357D01*
X7006786Y-7517500D02*
X6992500Y-7503214D01*
X6963928Y-7460357D01*
X6949643Y-7431786D01*
X6935357Y-7388929D01*
X6921071Y-7317500D01*
X6921071Y-7260357D01*
X6935357Y-7188929D01*
X6949643Y-7146071D01*
X6963928Y-7117500D01*
X6992500Y-7074643D01*
X7006786Y-7060357D01*
X7121071Y-7203214D02*
X7121071Y-7403214D01*
X7121071Y-7231786D02*
X7135357Y-7217500D01*
X7163928Y-7203214D01*
X7206786Y-7203214D01*
X7235357Y-7217500D01*
X7249643Y-7246071D01*
X7249643Y-7403214D01*
X7435357Y-7403214D02*
X7406786Y-7388929D01*
X7392500Y-7374643D01*
X7378214Y-7346071D01*
X7378214Y-7260357D01*
X7392500Y-7231786D01*
X7406786Y-7217500D01*
X7435357Y-7203214D01*
X7478214Y-7203214D01*
X7506786Y-7217500D01*
X7521071Y-7231786D01*
X7535357Y-7260357D01*
X7535357Y-7346071D01*
X7521071Y-7374643D01*
X7506786Y-7388929D01*
X7478214Y-7403214D01*
X7435357Y-7403214D01*
X7621071Y-7203214D02*
X7735357Y-7203214D01*
X7663928Y-7103214D02*
X7663928Y-7360357D01*
X7678214Y-7388929D01*
X7706786Y-7403214D01*
X7735357Y-7403214D01*
X8063928Y-7203214D02*
X8063928Y-7503214D01*
X8063928Y-7217500D02*
X8092500Y-7203214D01*
X8149643Y-7203214D01*
X8178214Y-7217500D01*
X8192500Y-7231786D01*
X8206786Y-7260357D01*
X8206786Y-7346071D01*
X8192500Y-7374643D01*
X8178214Y-7388929D01*
X8149643Y-7403214D01*
X8092500Y-7403214D01*
X8063928Y-7388929D01*
X8378214Y-7403214D02*
X8349643Y-7388929D01*
X8335357Y-7360357D01*
X8335357Y-7103214D01*
X8621071Y-7403214D02*
X8621071Y-7246071D01*
X8606786Y-7217500D01*
X8578214Y-7203214D01*
X8521071Y-7203214D01*
X8492500Y-7217500D01*
X8621071Y-7388929D02*
X8592500Y-7403214D01*
X8521071Y-7403214D01*
X8492500Y-7388929D01*
X8478214Y-7360357D01*
X8478214Y-7331786D01*
X8492500Y-7303214D01*
X8521071Y-7288929D01*
X8592500Y-7288929D01*
X8621071Y-7274643D01*
X8721071Y-7203214D02*
X8835357Y-7203214D01*
X8763929Y-7103214D02*
X8763929Y-7360357D01*
X8778214Y-7388929D01*
X8806786Y-7403214D01*
X8835357Y-7403214D01*
X9049643Y-7388929D02*
X9021072Y-7403214D01*
X8963929Y-7403214D01*
X8935357Y-7388929D01*
X8921072Y-7360357D01*
X8921072Y-7246071D01*
X8935357Y-7217500D01*
X8963929Y-7203214D01*
X9021072Y-7203214D01*
X9049643Y-7217500D01*
X9063929Y-7246071D01*
X9063929Y-7274643D01*
X8921072Y-7303214D01*
X9321072Y-7403214D02*
X9321072Y-7103214D01*
X9321072Y-7388929D02*
X9292500Y-7403214D01*
X9235357Y-7403214D01*
X9206786Y-7388929D01*
X9192500Y-7374643D01*
X9178214Y-7346071D01*
X9178214Y-7260357D01*
X9192500Y-7231786D01*
X9206786Y-7217500D01*
X9235357Y-7203214D01*
X9292500Y-7203214D01*
X9321072Y-7217500D01*
X9435357Y-7517500D02*
X9449643Y-7503214D01*
X9478214Y-7460357D01*
X9492500Y-7431786D01*
X9506786Y-7388929D01*
X9521072Y-7317500D01*
X9521072Y-7260357D01*
X9506786Y-7188929D01*
X9492500Y-7146071D01*
X9478214Y-7117500D01*
X9449643Y-7074643D01*
X9435357Y-7060357D01*
X-7500Y-7663500D02*
G75*
G03X-7500Y-7663500I-30000J0D01*
G01*
X321071Y-7499214D02*
X349643Y-7499214D01*
X378214Y-7513500D01*
X392500Y-7527786D01*
X406786Y-7556357D01*
X421071Y-7613500D01*
X421071Y-7684929D01*
X406786Y-7742071D01*
X392500Y-7770643D01*
X378214Y-7784929D01*
X349643Y-7799214D01*
X321071Y-7799214D01*
X292500Y-7784929D01*
X278214Y-7770643D01*
X263929Y-7742071D01*
X249643Y-7684929D01*
X249643Y-7613500D01*
X263929Y-7556357D01*
X278214Y-7527786D01*
X292500Y-7513500D01*
X321071Y-7499214D01*
X549643Y-7770643D02*
X563929Y-7784929D01*
X549643Y-7799214D01*
X535357Y-7784929D01*
X549643Y-7770643D01*
X549643Y-7799214D01*
X821071Y-7499214D02*
X763928Y-7499214D01*
X735357Y-7513500D01*
X721071Y-7527786D01*
X692500Y-7570643D01*
X678214Y-7627786D01*
X678214Y-7742071D01*
X692500Y-7770643D01*
X706786Y-7784929D01*
X735357Y-7799214D01*
X792500Y-7799214D01*
X821071Y-7784929D01*
X835357Y-7770643D01*
X849643Y-7742071D01*
X849643Y-7670643D01*
X835357Y-7642071D01*
X821071Y-7627786D01*
X792500Y-7613500D01*
X735357Y-7613500D01*
X706786Y-7627786D01*
X692500Y-7642071D01*
X678214Y-7670643D01*
X1035357Y-7499214D02*
X1063929Y-7499214D01*
X1092500Y-7513500D01*
X1106786Y-7527786D01*
X1121071Y-7556357D01*
X1135357Y-7613500D01*
X1135357Y-7684929D01*
X1121071Y-7742071D01*
X1106786Y-7770643D01*
X1092500Y-7784929D01*
X1063929Y-7799214D01*
X1035357Y-7799214D01*
X1006786Y-7784929D01*
X992500Y-7770643D01*
X978214Y-7742071D01*
X963928Y-7684929D01*
X963928Y-7613500D01*
X978214Y-7556357D01*
X992500Y-7527786D01*
X1006786Y-7513500D01*
X1035357Y-7499214D01*
X1263929Y-7799214D02*
X1263929Y-7599214D01*
X1263929Y-7627786D02*
X1278214Y-7613500D01*
X1306786Y-7599214D01*
X1349643Y-7599214D01*
X1378214Y-7613500D01*
X1392500Y-7642071D01*
X1392500Y-7799214D01*
X1392500Y-7642071D02*
X1406786Y-7613500D01*
X1435357Y-7599214D01*
X1478214Y-7599214D01*
X1506786Y-7613500D01*
X1521071Y-7642071D01*
X1521071Y-7799214D01*
X1663928Y-7799214D02*
X1663928Y-7599214D01*
X1663928Y-7627786D02*
X1678214Y-7613500D01*
X1706786Y-7599214D01*
X1749643Y-7599214D01*
X1778214Y-7613500D01*
X1792500Y-7642071D01*
X1792500Y-7799214D01*
X1792500Y-7642071D02*
X1806786Y-7613500D01*
X1835357Y-7599214D01*
X1878214Y-7599214D01*
X1906786Y-7613500D01*
X1921071Y-7642071D01*
X1921071Y-7799214D01*
X2506786Y-7484929D02*
X2249643Y-7870643D01*
X2892500Y-7499214D02*
X2921071Y-7499214D01*
X2949643Y-7513500D01*
X2963928Y-7527786D01*
X2978214Y-7556357D01*
X2992500Y-7613500D01*
X2992500Y-7684929D01*
X2978214Y-7742071D01*
X2963928Y-7770643D01*
X2949643Y-7784929D01*
X2921071Y-7799214D01*
X2892500Y-7799214D01*
X2863928Y-7784929D01*
X2849643Y-7770643D01*
X2835357Y-7742071D01*
X2821071Y-7684929D01*
X2821071Y-7613500D01*
X2835357Y-7556357D01*
X2849643Y-7527786D01*
X2863928Y-7513500D01*
X2892500Y-7499214D01*
X3121071Y-7770643D02*
X3135357Y-7784929D01*
X3121071Y-7799214D01*
X3106786Y-7784929D01*
X3121071Y-7770643D01*
X3121071Y-7799214D01*
X3321071Y-7499214D02*
X3349643Y-7499214D01*
X3378214Y-7513500D01*
X3392500Y-7527786D01*
X3406785Y-7556357D01*
X3421071Y-7613500D01*
X3421071Y-7684929D01*
X3406785Y-7742071D01*
X3392500Y-7770643D01*
X3378214Y-7784929D01*
X3349643Y-7799214D01*
X3321071Y-7799214D01*
X3292500Y-7784929D01*
X3278214Y-7770643D01*
X3263928Y-7742071D01*
X3249643Y-7684929D01*
X3249643Y-7613500D01*
X3263928Y-7556357D01*
X3278214Y-7527786D01*
X3292500Y-7513500D01*
X3321071Y-7499214D01*
X3535357Y-7527786D02*
X3549643Y-7513500D01*
X3578214Y-7499214D01*
X3649643Y-7499214D01*
X3678214Y-7513500D01*
X3692500Y-7527786D01*
X3706785Y-7556357D01*
X3706785Y-7584929D01*
X3692500Y-7627786D01*
X3521071Y-7799214D01*
X3706785Y-7799214D01*
X3963928Y-7599214D02*
X3963928Y-7799214D01*
X3892500Y-7484929D02*
X3821071Y-7699214D01*
X4006785Y-7699214D01*
X4106786Y-7499214D02*
X4106786Y-7556357D01*
X4221071Y-7499214D02*
X4221071Y-7556357D01*
X4663928Y-7913500D02*
X4649643Y-7899214D01*
X4621071Y-7856357D01*
X4606786Y-7827786D01*
X4592500Y-7784929D01*
X4578214Y-7713500D01*
X4578214Y-7656357D01*
X4592500Y-7584929D01*
X4606786Y-7542071D01*
X4621071Y-7513500D01*
X4649643Y-7470643D01*
X4663928Y-7456357D01*
X4763928Y-7527786D02*
X4778214Y-7513500D01*
X4806786Y-7499214D01*
X4878214Y-7499214D01*
X4906786Y-7513500D01*
X4921071Y-7527786D01*
X4935357Y-7556357D01*
X4935357Y-7584929D01*
X4921071Y-7627786D01*
X4749643Y-7799214D01*
X4935357Y-7799214D01*
X5292500Y-7799214D02*
X5292500Y-7499214D01*
X5421071Y-7799214D02*
X5421071Y-7642071D01*
X5406786Y-7613500D01*
X5378214Y-7599214D01*
X5335357Y-7599214D01*
X5306786Y-7613500D01*
X5292500Y-7627786D01*
X5606785Y-7799214D02*
X5578214Y-7784929D01*
X5563928Y-7770643D01*
X5549643Y-7742071D01*
X5549643Y-7656357D01*
X5563928Y-7627786D01*
X5578214Y-7613500D01*
X5606785Y-7599214D01*
X5649643Y-7599214D01*
X5678214Y-7613500D01*
X5692500Y-7627786D01*
X5706785Y-7656357D01*
X5706785Y-7742071D01*
X5692500Y-7770643D01*
X5678214Y-7784929D01*
X5649643Y-7799214D01*
X5606785Y-7799214D01*
X5878214Y-7799214D02*
X5849643Y-7784929D01*
X5835357Y-7756357D01*
X5835357Y-7499214D01*
X6106786Y-7784929D02*
X6078214Y-7799214D01*
X6021071Y-7799214D01*
X5992500Y-7784929D01*
X5978214Y-7756357D01*
X5978214Y-7642071D01*
X5992500Y-7613500D01*
X6021071Y-7599214D01*
X6078214Y-7599214D01*
X6106786Y-7613500D01*
X6121071Y-7642071D01*
X6121071Y-7670643D01*
X5978214Y-7699214D01*
X6235357Y-7784929D02*
X6263928Y-7799214D01*
X6321071Y-7799214D01*
X6349643Y-7784929D01*
X6363928Y-7756357D01*
X6363928Y-7742071D01*
X6349643Y-7713500D01*
X6321071Y-7699214D01*
X6278214Y-7699214D01*
X6249643Y-7684929D01*
X6235357Y-7656357D01*
X6235357Y-7642071D01*
X6249643Y-7613500D01*
X6278214Y-7599214D01*
X6321071Y-7599214D01*
X6349643Y-7613500D01*
X6463928Y-7913500D02*
X6478214Y-7899214D01*
X6506786Y-7856357D01*
X6521071Y-7827786D01*
X6535357Y-7784929D01*
X6549643Y-7713500D01*
X6549643Y-7656357D01*
X6535357Y-7584929D01*
X6521071Y-7542071D01*
X6506786Y-7513500D01*
X6478214Y-7470643D01*
X6463928Y-7456357D01*
X7006786Y-7913500D02*
X6992500Y-7899214D01*
X6963928Y-7856357D01*
X6949643Y-7827786D01*
X6935357Y-7784929D01*
X6921071Y-7713500D01*
X6921071Y-7656357D01*
X6935357Y-7584929D01*
X6949643Y-7542071D01*
X6963928Y-7513500D01*
X6992500Y-7470643D01*
X7006786Y-7456357D01*
X7121071Y-7599214D02*
X7121071Y-7799214D01*
X7121071Y-7627786D02*
X7135357Y-7613500D01*
X7163928Y-7599214D01*
X7206786Y-7599214D01*
X7235357Y-7613500D01*
X7249643Y-7642071D01*
X7249643Y-7799214D01*
X7435357Y-7799214D02*
X7406786Y-7784929D01*
X7392500Y-7770643D01*
X7378214Y-7742071D01*
X7378214Y-7656357D01*
X7392500Y-7627786D01*
X7406786Y-7613500D01*
X7435357Y-7599214D01*
X7478214Y-7599214D01*
X7506786Y-7613500D01*
X7521071Y-7627786D01*
X7535357Y-7656357D01*
X7535357Y-7742071D01*
X7521071Y-7770643D01*
X7506786Y-7784929D01*
X7478214Y-7799214D01*
X7435357Y-7799214D01*
X7621071Y-7599214D02*
X7735357Y-7599214D01*
X7663928Y-7499214D02*
X7663928Y-7756357D01*
X7678214Y-7784929D01*
X7706786Y-7799214D01*
X7735357Y-7799214D01*
X8063928Y-7599214D02*
X8063928Y-7899214D01*
X8063928Y-7613500D02*
X8092500Y-7599214D01*
X8149643Y-7599214D01*
X8178214Y-7613500D01*
X8192500Y-7627786D01*
X8206786Y-7656357D01*
X8206786Y-7742071D01*
X8192500Y-7770643D01*
X8178214Y-7784929D01*
X8149643Y-7799214D01*
X8092500Y-7799214D01*
X8063928Y-7784929D01*
X8378214Y-7799214D02*
X8349643Y-7784929D01*
X8335357Y-7756357D01*
X8335357Y-7499214D01*
X8621071Y-7799214D02*
X8621071Y-7642071D01*
X8606786Y-7613500D01*
X8578214Y-7599214D01*
X8521071Y-7599214D01*
X8492500Y-7613500D01*
X8621071Y-7784929D02*
X8592500Y-7799214D01*
X8521071Y-7799214D01*
X8492500Y-7784929D01*
X8478214Y-7756357D01*
X8478214Y-7727786D01*
X8492500Y-7699214D01*
X8521071Y-7684929D01*
X8592500Y-7684929D01*
X8621071Y-7670643D01*
X8721071Y-7599214D02*
X8835357Y-7599214D01*
X8763929Y-7499214D02*
X8763929Y-7756357D01*
X8778214Y-7784929D01*
X8806786Y-7799214D01*
X8835357Y-7799214D01*
X9049643Y-7784929D02*
X9021072Y-7799214D01*
X8963929Y-7799214D01*
X8935357Y-7784929D01*
X8921072Y-7756357D01*
X8921072Y-7642071D01*
X8935357Y-7613500D01*
X8963929Y-7599214D01*
X9021072Y-7599214D01*
X9049643Y-7613500D01*
X9063929Y-7642071D01*
X9063929Y-7670643D01*
X8921072Y-7699214D01*
X9321072Y-7799214D02*
X9321072Y-7499214D01*
X9321072Y-7784929D02*
X9292500Y-7799214D01*
X9235357Y-7799214D01*
X9206786Y-7784929D01*
X9192500Y-7770643D01*
X9178214Y-7742071D01*
X9178214Y-7656357D01*
X9192500Y-7627786D01*
X9206786Y-7613500D01*
X9235357Y-7599214D01*
X9292500Y-7599214D01*
X9321072Y-7613500D01*
X9435357Y-7913500D02*
X9449643Y-7899214D01*
X9478214Y-7856357D01*
X9492500Y-7827786D01*
X9506786Y-7784929D01*
X9521072Y-7713500D01*
X9521072Y-7656357D01*
X9506786Y-7584929D01*
X9492500Y-7542071D01*
X9478214Y-7513500D01*
X9449643Y-7470643D01*
X9435357Y-7456357D01*
X-167500Y-7899500D02*
X-167500Y-8219500D01*
X-327500Y-8059500D02*
X-7500Y-8059500D01*
X235357Y-7895214D02*
X421071Y-7895214D01*
X321071Y-8009500D01*
X363928Y-8009500D01*
X392500Y-8023786D01*
X406786Y-8038071D01*
X421071Y-8066643D01*
X421071Y-8138071D01*
X406786Y-8166643D01*
X392500Y-8180929D01*
X363928Y-8195214D01*
X278214Y-8195214D01*
X249643Y-8180929D01*
X235357Y-8166643D01*
X549643Y-8166643D02*
X563929Y-8180929D01*
X549643Y-8195214D01*
X535357Y-8180929D01*
X549643Y-8166643D01*
X549643Y-8195214D01*
X678214Y-7923786D02*
X692500Y-7909500D01*
X721071Y-7895214D01*
X792500Y-7895214D01*
X821071Y-7909500D01*
X835357Y-7923786D01*
X849643Y-7952357D01*
X849643Y-7980929D01*
X835357Y-8023786D01*
X663928Y-8195214D01*
X849643Y-8195214D01*
X1035357Y-7895214D02*
X1063929Y-7895214D01*
X1092500Y-7909500D01*
X1106786Y-7923786D01*
X1121071Y-7952357D01*
X1135357Y-8009500D01*
X1135357Y-8080929D01*
X1121071Y-8138071D01*
X1106786Y-8166643D01*
X1092500Y-8180929D01*
X1063929Y-8195214D01*
X1035357Y-8195214D01*
X1006786Y-8180929D01*
X992500Y-8166643D01*
X978214Y-8138071D01*
X963928Y-8080929D01*
X963928Y-8009500D01*
X978214Y-7952357D01*
X992500Y-7923786D01*
X1006786Y-7909500D01*
X1035357Y-7895214D01*
X1263929Y-8195214D02*
X1263929Y-7995214D01*
X1263929Y-8023786D02*
X1278214Y-8009500D01*
X1306786Y-7995214D01*
X1349643Y-7995214D01*
X1378214Y-8009500D01*
X1392500Y-8038071D01*
X1392500Y-8195214D01*
X1392500Y-8038071D02*
X1406786Y-8009500D01*
X1435357Y-7995214D01*
X1478214Y-7995214D01*
X1506786Y-8009500D01*
X1521071Y-8038071D01*
X1521071Y-8195214D01*
X1663928Y-8195214D02*
X1663928Y-7995214D01*
X1663928Y-8023786D02*
X1678214Y-8009500D01*
X1706786Y-7995214D01*
X1749643Y-7995214D01*
X1778214Y-8009500D01*
X1792500Y-8038071D01*
X1792500Y-8195214D01*
X1792500Y-8038071D02*
X1806786Y-8009500D01*
X1835357Y-7995214D01*
X1878214Y-7995214D01*
X1906786Y-8009500D01*
X1921071Y-8038071D01*
X1921071Y-8195214D01*
X2506786Y-7880929D02*
X2249643Y-8266643D01*
X2892500Y-7895214D02*
X2921071Y-7895214D01*
X2949643Y-7909500D01*
X2963928Y-7923786D01*
X2978214Y-7952357D01*
X2992500Y-8009500D01*
X2992500Y-8080929D01*
X2978214Y-8138071D01*
X2963928Y-8166643D01*
X2949643Y-8180929D01*
X2921071Y-8195214D01*
X2892500Y-8195214D01*
X2863928Y-8180929D01*
X2849643Y-8166643D01*
X2835357Y-8138071D01*
X2821071Y-8080929D01*
X2821071Y-8009500D01*
X2835357Y-7952357D01*
X2849643Y-7923786D01*
X2863928Y-7909500D01*
X2892500Y-7895214D01*
X3121071Y-8166643D02*
X3135357Y-8180929D01*
X3121071Y-8195214D01*
X3106786Y-8180929D01*
X3121071Y-8166643D01*
X3121071Y-8195214D01*
X3421071Y-8195214D02*
X3249643Y-8195214D01*
X3335357Y-8195214D02*
X3335357Y-7895214D01*
X3306785Y-7938071D01*
X3278214Y-7966643D01*
X3249643Y-7980929D01*
X3535357Y-7923786D02*
X3549643Y-7909500D01*
X3578214Y-7895214D01*
X3649643Y-7895214D01*
X3678214Y-7909500D01*
X3692500Y-7923786D01*
X3706785Y-7952357D01*
X3706785Y-7980929D01*
X3692500Y-8023786D01*
X3521071Y-8195214D01*
X3706785Y-8195214D01*
X3963928Y-7895214D02*
X3906785Y-7895214D01*
X3878214Y-7909500D01*
X3863928Y-7923786D01*
X3835357Y-7966643D01*
X3821071Y-8023786D01*
X3821071Y-8138071D01*
X3835357Y-8166643D01*
X3849643Y-8180929D01*
X3878214Y-8195214D01*
X3935357Y-8195214D01*
X3963928Y-8180929D01*
X3978214Y-8166643D01*
X3992500Y-8138071D01*
X3992500Y-8066643D01*
X3978214Y-8038071D01*
X3963928Y-8023786D01*
X3935357Y-8009500D01*
X3878214Y-8009500D01*
X3849643Y-8023786D01*
X3835357Y-8038071D01*
X3821071Y-8066643D01*
X4106786Y-7895214D02*
X4106786Y-7952357D01*
X4221071Y-7895214D02*
X4221071Y-7952357D01*
X4663928Y-8309500D02*
X4649643Y-8295214D01*
X4621071Y-8252357D01*
X4606786Y-8223786D01*
X4592500Y-8180929D01*
X4578214Y-8109500D01*
X4578214Y-8052357D01*
X4592500Y-7980929D01*
X4606786Y-7938071D01*
X4621071Y-7909500D01*
X4649643Y-7866643D01*
X4663928Y-7852357D01*
X4906786Y-7995214D02*
X4906786Y-8195214D01*
X4835357Y-7880929D02*
X4763928Y-8095214D01*
X4949643Y-8095214D01*
X5292500Y-8195214D02*
X5292500Y-7895214D01*
X5421071Y-8195214D02*
X5421071Y-8038071D01*
X5406786Y-8009500D01*
X5378214Y-7995214D01*
X5335357Y-7995214D01*
X5306786Y-8009500D01*
X5292500Y-8023786D01*
X5606785Y-8195214D02*
X5578214Y-8180929D01*
X5563928Y-8166643D01*
X5549643Y-8138071D01*
X5549643Y-8052357D01*
X5563928Y-8023786D01*
X5578214Y-8009500D01*
X5606785Y-7995214D01*
X5649643Y-7995214D01*
X5678214Y-8009500D01*
X5692500Y-8023786D01*
X5706785Y-8052357D01*
X5706785Y-8138071D01*
X5692500Y-8166643D01*
X5678214Y-8180929D01*
X5649643Y-8195214D01*
X5606785Y-8195214D01*
X5878214Y-8195214D02*
X5849643Y-8180929D01*
X5835357Y-8152357D01*
X5835357Y-7895214D01*
X6106786Y-8180929D02*
X6078214Y-8195214D01*
X6021071Y-8195214D01*
X5992500Y-8180929D01*
X5978214Y-8152357D01*
X5978214Y-8038071D01*
X5992500Y-8009500D01*
X6021071Y-7995214D01*
X6078214Y-7995214D01*
X6106786Y-8009500D01*
X6121071Y-8038071D01*
X6121071Y-8066643D01*
X5978214Y-8095214D01*
X6235357Y-8180929D02*
X6263928Y-8195214D01*
X6321071Y-8195214D01*
X6349643Y-8180929D01*
X6363928Y-8152357D01*
X6363928Y-8138071D01*
X6349643Y-8109500D01*
X6321071Y-8095214D01*
X6278214Y-8095214D01*
X6249643Y-8080929D01*
X6235357Y-8052357D01*
X6235357Y-8038071D01*
X6249643Y-8009500D01*
X6278214Y-7995214D01*
X6321071Y-7995214D01*
X6349643Y-8009500D01*
X6463928Y-8309500D02*
X6478214Y-8295214D01*
X6506786Y-8252357D01*
X6521071Y-8223786D01*
X6535357Y-8180929D01*
X6549643Y-8109500D01*
X6549643Y-8052357D01*
X6535357Y-7980929D01*
X6521071Y-7938071D01*
X6506786Y-7909500D01*
X6478214Y-7866643D01*
X6463928Y-7852357D01*
X7006786Y-8309500D02*
X6992500Y-8295214D01*
X6963928Y-8252357D01*
X6949643Y-8223786D01*
X6935357Y-8180929D01*
X6921071Y-8109500D01*
X6921071Y-8052357D01*
X6935357Y-7980929D01*
X6949643Y-7938071D01*
X6963928Y-7909500D01*
X6992500Y-7866643D01*
X7006786Y-7852357D01*
X7121071Y-7995214D02*
X7121071Y-8195214D01*
X7121071Y-8023786D02*
X7135357Y-8009500D01*
X7163928Y-7995214D01*
X7206786Y-7995214D01*
X7235357Y-8009500D01*
X7249643Y-8038071D01*
X7249643Y-8195214D01*
X7435357Y-8195214D02*
X7406786Y-8180929D01*
X7392500Y-8166643D01*
X7378214Y-8138071D01*
X7378214Y-8052357D01*
X7392500Y-8023786D01*
X7406786Y-8009500D01*
X7435357Y-7995214D01*
X7478214Y-7995214D01*
X7506786Y-8009500D01*
X7521071Y-8023786D01*
X7535357Y-8052357D01*
X7535357Y-8138071D01*
X7521071Y-8166643D01*
X7506786Y-8180929D01*
X7478214Y-8195214D01*
X7435357Y-8195214D01*
X7621071Y-7995214D02*
X7735357Y-7995214D01*
X7663928Y-7895214D02*
X7663928Y-8152357D01*
X7678214Y-8180929D01*
X7706786Y-8195214D01*
X7735357Y-8195214D01*
X8063928Y-7995214D02*
X8063928Y-8295214D01*
X8063928Y-8009500D02*
X8092500Y-7995214D01*
X8149643Y-7995214D01*
X8178214Y-8009500D01*
X8192500Y-8023786D01*
X8206786Y-8052357D01*
X8206786Y-8138071D01*
X8192500Y-8166643D01*
X8178214Y-8180929D01*
X8149643Y-8195214D01*
X8092500Y-8195214D01*
X8063928Y-8180929D01*
X8378214Y-8195214D02*
X8349643Y-8180929D01*
X8335357Y-8152357D01*
X8335357Y-7895214D01*
X8621071Y-8195214D02*
X8621071Y-8038071D01*
X8606786Y-8009500D01*
X8578214Y-7995214D01*
X8521071Y-7995214D01*
X8492500Y-8009500D01*
X8621071Y-8180929D02*
X8592500Y-8195214D01*
X8521071Y-8195214D01*
X8492500Y-8180929D01*
X8478214Y-8152357D01*
X8478214Y-8123786D01*
X8492500Y-8095214D01*
X8521071Y-8080929D01*
X8592500Y-8080929D01*
X8621071Y-8066643D01*
X8721071Y-7995214D02*
X8835357Y-7995214D01*
X8763929Y-7895214D02*
X8763929Y-8152357D01*
X8778214Y-8180929D01*
X8806786Y-8195214D01*
X8835357Y-8195214D01*
X9049643Y-8180929D02*
X9021072Y-8195214D01*
X8963929Y-8195214D01*
X8935357Y-8180929D01*
X8921072Y-8152357D01*
X8921072Y-8038071D01*
X8935357Y-8009500D01*
X8963929Y-7995214D01*
X9021072Y-7995214D01*
X9049643Y-8009500D01*
X9063929Y-8038071D01*
X9063929Y-8066643D01*
X8921072Y-8095214D01*
X9321072Y-8195214D02*
X9321072Y-7895214D01*
X9321072Y-8180929D02*
X9292500Y-8195214D01*
X9235357Y-8195214D01*
X9206786Y-8180929D01*
X9192500Y-8166643D01*
X9178214Y-8138071D01*
X9178214Y-8052357D01*
X9192500Y-8023786D01*
X9206786Y-8009500D01*
X9235357Y-7995214D01*
X9292500Y-7995214D01*
X9321072Y-8009500D01*
X9435357Y-8309500D02*
X9449643Y-8295214D01*
X9478214Y-8252357D01*
X9492500Y-8223786D01*
X9506786Y-8180929D01*
X9521072Y-8109500D01*
X9521072Y-8052357D01*
X9506786Y-7980929D01*
X9492500Y-7938071D01*
X9478214Y-7909500D01*
X9449643Y-7866643D01*
X9435357Y-7852357D01*
M02*
