G04 #@! TF.FileFunction,Other,Fab,Bot*
%FSLAX46Y46*%
G04 Gerber Fmt 4.6, Leading zero omitted, Abs format (unit mm)*
G04 Created by KiCad (PCBNEW 4.0.1-stable) date Saturday, January 28, 2017 'PMt' 02:32:07 PM*
%MOMM*%
G01*
G04 APERTURE LIST*
%ADD10C,0.100000*%
%ADD11C,0.150000*%
G04 APERTURE END LIST*
D10*
D11*
X64392857Y-2402381D02*
X64297618Y-2402381D01*
X64202380Y-2450000D01*
X64154761Y-2497619D01*
X64107142Y-2592857D01*
X64059523Y-2783333D01*
X64059523Y-3021429D01*
X64107142Y-3211905D01*
X64154761Y-3307143D01*
X64202380Y-3354762D01*
X64297618Y-3402381D01*
X64392857Y-3402381D01*
X64488095Y-3354762D01*
X64535714Y-3307143D01*
X64583333Y-3211905D01*
X64630952Y-3021429D01*
X64630952Y-2783333D01*
X64583333Y-2592857D01*
X64535714Y-2497619D01*
X64488095Y-2450000D01*
X64392857Y-2402381D01*
X63630952Y-3307143D02*
X63583333Y-3354762D01*
X63630952Y-3402381D01*
X63678571Y-3354762D01*
X63630952Y-3307143D01*
X63630952Y-3402381D01*
X62630952Y-3402381D02*
X63202381Y-3402381D01*
X62916667Y-3402381D02*
X62916667Y-2402381D01*
X63011905Y-2545238D01*
X63107143Y-2640476D01*
X63202381Y-2688095D01*
X61773809Y-2735714D02*
X61773809Y-3402381D01*
X62202381Y-2735714D02*
X62202381Y-3259524D01*
X62154762Y-3354762D01*
X62059524Y-3402381D01*
X61916666Y-3402381D01*
X61821428Y-3354762D01*
X61773809Y-3307143D01*
X60964285Y-2878571D02*
X61297619Y-2878571D01*
X61297619Y-3402381D02*
X61297619Y-2402381D01*
X60821428Y-2402381D01*
X119662381Y212619D02*
X119662381Y784048D01*
X119662381Y498334D02*
X118662381Y498334D01*
X118805238Y593572D01*
X118900476Y688810D01*
X118948095Y784048D01*
X118662381Y-406428D02*
X118662381Y-501667D01*
X118710000Y-596905D01*
X118757619Y-644524D01*
X118852857Y-692143D01*
X119043333Y-739762D01*
X119281429Y-739762D01*
X119471905Y-692143D01*
X119567143Y-644524D01*
X119614762Y-596905D01*
X119662381Y-501667D01*
X119662381Y-406428D01*
X119614762Y-311190D01*
X119567143Y-263571D01*
X119471905Y-215952D01*
X119281429Y-168333D01*
X119043333Y-168333D01*
X118852857Y-215952D01*
X118757619Y-263571D01*
X118710000Y-311190D01*
X118662381Y-406428D01*
X118995714Y-1168333D02*
X119995714Y-1168333D01*
X119043333Y-1168333D02*
X118995714Y-1263571D01*
X118995714Y-1454048D01*
X119043333Y-1549286D01*
X119090952Y-1596905D01*
X119186190Y-1644524D01*
X119471905Y-1644524D01*
X119567143Y-1596905D01*
X119614762Y-1549286D01*
X119662381Y-1454048D01*
X119662381Y-1263571D01*
X119614762Y-1168333D01*
X119662381Y-2596905D02*
X119662381Y-2025476D01*
X119662381Y-2311190D02*
X118662381Y-2311190D01*
X118805238Y-2215952D01*
X118900476Y-2120714D01*
X118948095Y-2025476D01*
X118662381Y-3215952D02*
X118662381Y-3311191D01*
X118710000Y-3406429D01*
X118757619Y-3454048D01*
X118852857Y-3501667D01*
X119043333Y-3549286D01*
X119281429Y-3549286D01*
X119471905Y-3501667D01*
X119567143Y-3454048D01*
X119614762Y-3406429D01*
X119662381Y-3311191D01*
X119662381Y-3215952D01*
X119614762Y-3120714D01*
X119567143Y-3073095D01*
X119471905Y-3025476D01*
X119281429Y-2977857D01*
X119043333Y-2977857D01*
X118852857Y-3025476D01*
X118757619Y-3073095D01*
X118710000Y-3120714D01*
X118662381Y-3215952D01*
X119614762Y-4406429D02*
X119662381Y-4311191D01*
X119662381Y-4120714D01*
X119614762Y-4025476D01*
X119567143Y-3977857D01*
X119471905Y-3930238D01*
X119186190Y-3930238D01*
X119090952Y-3977857D01*
X119043333Y-4025476D01*
X118995714Y-4120714D01*
X118995714Y-4311191D01*
X119043333Y-4406429D01*
X119757619Y-4596905D02*
X119757619Y-5358810D01*
X119662381Y-6168334D02*
X119186190Y-5835000D01*
X119662381Y-5596905D02*
X118662381Y-5596905D01*
X118662381Y-5977858D01*
X118710000Y-6073096D01*
X118757619Y-6120715D01*
X118852857Y-6168334D01*
X118995714Y-6168334D01*
X119090952Y-6120715D01*
X119138571Y-6073096D01*
X119186190Y-5977858D01*
X119186190Y-5596905D01*
X119662381Y-6596905D02*
X118662381Y-6596905D01*
X118710000Y-7596905D02*
X118662381Y-7501667D01*
X118662381Y-7358810D01*
X118710000Y-7215952D01*
X118805238Y-7120714D01*
X118900476Y-7073095D01*
X119090952Y-7025476D01*
X119233810Y-7025476D01*
X119424286Y-7073095D01*
X119519524Y-7120714D01*
X119614762Y-7215952D01*
X119662381Y-7358810D01*
X119662381Y-7454048D01*
X119614762Y-7596905D01*
X119567143Y-7644524D01*
X119233810Y-7644524D01*
X119233810Y-7454048D01*
X119662381Y-8073095D02*
X118662381Y-8073095D01*
X119138571Y-8073095D02*
X119138571Y-8644524D01*
X119662381Y-8644524D02*
X118662381Y-8644524D01*
X118662381Y-8977857D02*
X118662381Y-9549286D01*
X119662381Y-9263571D02*
X118662381Y-9263571D01*
X112422381Y-11963571D02*
X112422381Y-11392142D01*
X112422381Y-11677856D02*
X111422381Y-11677856D01*
X111565238Y-11582618D01*
X111660476Y-11487380D01*
X111708095Y-11392142D01*
X111422381Y-12582618D02*
X111422381Y-12677857D01*
X111470000Y-12773095D01*
X111517619Y-12820714D01*
X111612857Y-12868333D01*
X111803333Y-12915952D01*
X112041429Y-12915952D01*
X112231905Y-12868333D01*
X112327143Y-12820714D01*
X112374762Y-12773095D01*
X112422381Y-12677857D01*
X112422381Y-12582618D01*
X112374762Y-12487380D01*
X112327143Y-12439761D01*
X112231905Y-12392142D01*
X112041429Y-12344523D01*
X111803333Y-12344523D01*
X111612857Y-12392142D01*
X111517619Y-12439761D01*
X111470000Y-12487380D01*
X111422381Y-12582618D01*
X111755714Y-13344523D02*
X112755714Y-13344523D01*
X111803333Y-13344523D02*
X111755714Y-13439761D01*
X111755714Y-13630238D01*
X111803333Y-13725476D01*
X111850952Y-13773095D01*
X111946190Y-13820714D01*
X112231905Y-13820714D01*
X112327143Y-13773095D01*
X112374762Y-13725476D01*
X112422381Y-13630238D01*
X112422381Y-13439761D01*
X112374762Y-13344523D01*
X112422381Y-14773095D02*
X112422381Y-14201666D01*
X112422381Y-14487380D02*
X111422381Y-14487380D01*
X111565238Y-14392142D01*
X111660476Y-14296904D01*
X111708095Y-14201666D01*
X111422381Y-15392142D02*
X111422381Y-15487381D01*
X111470000Y-15582619D01*
X111517619Y-15630238D01*
X111612857Y-15677857D01*
X111803333Y-15725476D01*
X112041429Y-15725476D01*
X112231905Y-15677857D01*
X112327143Y-15630238D01*
X112374762Y-15582619D01*
X112422381Y-15487381D01*
X112422381Y-15392142D01*
X112374762Y-15296904D01*
X112327143Y-15249285D01*
X112231905Y-15201666D01*
X112041429Y-15154047D01*
X111803333Y-15154047D01*
X111612857Y-15201666D01*
X111517619Y-15249285D01*
X111470000Y-15296904D01*
X111422381Y-15392142D01*
X112374762Y-16582619D02*
X112422381Y-16487381D01*
X112422381Y-16296904D01*
X112374762Y-16201666D01*
X112327143Y-16154047D01*
X112231905Y-16106428D01*
X111946190Y-16106428D01*
X111850952Y-16154047D01*
X111803333Y-16201666D01*
X111755714Y-16296904D01*
X111755714Y-16487381D01*
X111803333Y-16582619D01*
X112517619Y-16773095D02*
X112517619Y-17535000D01*
X112422381Y-18249286D02*
X112422381Y-17773095D01*
X111422381Y-17773095D01*
X111898571Y-18582619D02*
X111898571Y-18915953D01*
X112422381Y-19058810D02*
X112422381Y-18582619D01*
X111422381Y-18582619D01*
X111422381Y-19058810D01*
X111898571Y-19820715D02*
X111898571Y-19487381D01*
X112422381Y-19487381D02*
X111422381Y-19487381D01*
X111422381Y-19963572D01*
X111422381Y-20201667D02*
X111422381Y-20773096D01*
X112422381Y-20487381D02*
X111422381Y-20487381D01*
X66706667Y7805238D02*
X66706667Y7329047D01*
X66992381Y7900476D02*
X65992381Y7567143D01*
X66992381Y7233809D01*
X65992381Y7043333D02*
X66992381Y6710000D01*
X65992381Y6376666D01*
X66992381Y5471904D02*
X66516190Y5805238D01*
X66992381Y6043333D02*
X65992381Y6043333D01*
X65992381Y5662380D01*
X66040000Y5567142D01*
X66087619Y5519523D01*
X66182857Y5471904D01*
X66325714Y5471904D01*
X66420952Y5519523D01*
X66468571Y5567142D01*
X66516190Y5662380D01*
X66516190Y6043333D01*
X66611429Y5043333D02*
X66611429Y4281428D01*
X66992381Y3805238D02*
X65992381Y3805238D01*
X66944762Y3376667D02*
X66992381Y3233810D01*
X66992381Y2995714D01*
X66944762Y2900476D01*
X66897143Y2852857D01*
X66801905Y2805238D01*
X66706667Y2805238D01*
X66611429Y2852857D01*
X66563810Y2900476D01*
X66516190Y2995714D01*
X66468571Y3186191D01*
X66420952Y3281429D01*
X66373333Y3329048D01*
X66278095Y3376667D01*
X66182857Y3376667D01*
X66087619Y3329048D01*
X66040000Y3281429D01*
X65992381Y3186191D01*
X65992381Y2948095D01*
X66040000Y2805238D01*
X66992381Y2376667D02*
X65992381Y2376667D01*
X65992381Y1995714D01*
X66040000Y1900476D01*
X66087619Y1852857D01*
X66182857Y1805238D01*
X66325714Y1805238D01*
X66420952Y1852857D01*
X66468571Y1900476D01*
X66516190Y1995714D01*
X66516190Y2376667D01*
X66611429Y1376667D02*
X66611429Y614762D01*
X65992381Y-290000D02*
X65992381Y-99523D01*
X66040000Y-4285D01*
X66087619Y43334D01*
X66230476Y138572D01*
X66420952Y186191D01*
X66801905Y186191D01*
X66897143Y138572D01*
X66944762Y90953D01*
X66992381Y-4285D01*
X66992381Y-194762D01*
X66944762Y-290000D01*
X66897143Y-337619D01*
X66801905Y-385238D01*
X66563810Y-385238D01*
X66468571Y-337619D01*
X66420952Y-290000D01*
X66373333Y-194762D01*
X66373333Y-4285D01*
X66420952Y90953D01*
X66468571Y138572D01*
X66563810Y186191D01*
X61771428Y-7352381D02*
X62342857Y-7352381D01*
X62057143Y-7352381D02*
X62057143Y-6352381D01*
X62152381Y-6495238D01*
X62247619Y-6590476D01*
X62342857Y-6638095D01*
X61152381Y-6352381D02*
X61057142Y-6352381D01*
X60961904Y-6400000D01*
X60914285Y-6447619D01*
X60866666Y-6542857D01*
X60819047Y-6733333D01*
X60819047Y-6971429D01*
X60866666Y-7161905D01*
X60914285Y-7257143D01*
X60961904Y-7304762D01*
X61057142Y-7352381D01*
X61152381Y-7352381D01*
X61247619Y-7304762D01*
X61295238Y-7257143D01*
X61342857Y-7161905D01*
X61390476Y-6971429D01*
X61390476Y-6733333D01*
X61342857Y-6542857D01*
X61295238Y-6447619D01*
X61247619Y-6400000D01*
X61152381Y-6352381D01*
X59961904Y-6685714D02*
X59961904Y-7352381D01*
X60390476Y-6685714D02*
X60390476Y-7209524D01*
X60342857Y-7304762D01*
X60247619Y-7352381D01*
X60104761Y-7352381D01*
X60009523Y-7304762D01*
X59961904Y-7257143D01*
X59152380Y-6828571D02*
X59485714Y-6828571D01*
X59485714Y-7352381D02*
X59485714Y-6352381D01*
X59009523Y-6352381D01*
X66435238Y-3402381D02*
X67006667Y-3402381D01*
X66720953Y-3402381D02*
X66720953Y-2402381D01*
X66816191Y-2545238D01*
X66911429Y-2640476D01*
X67006667Y-2688095D01*
X65578095Y-2735714D02*
X65578095Y-3402381D01*
X66006667Y-2735714D02*
X66006667Y-3259524D01*
X65959048Y-3354762D01*
X65863810Y-3402381D01*
X65720952Y-3402381D01*
X65625714Y-3354762D01*
X65578095Y-3307143D01*
X64768571Y-2878571D02*
X65101905Y-2878571D01*
X65101905Y-3402381D02*
X65101905Y-2402381D01*
X64625714Y-2402381D01*
X1742381Y-10038095D02*
X742381Y-10038095D01*
X742381Y-10276190D01*
X790000Y-10419048D01*
X885238Y-10514286D01*
X980476Y-10561905D01*
X1170952Y-10609524D01*
X1313810Y-10609524D01*
X1504286Y-10561905D01*
X1599524Y-10514286D01*
X1694762Y-10419048D01*
X1742381Y-10276190D01*
X1742381Y-10038095D01*
X16142381Y-10038095D02*
X15142381Y-10038095D01*
X15142381Y-10276190D01*
X15190000Y-10419048D01*
X15285238Y-10514286D01*
X15380476Y-10561905D01*
X15570952Y-10609524D01*
X15713810Y-10609524D01*
X15904286Y-10561905D01*
X15999524Y-10514286D01*
X16094762Y-10419048D01*
X16142381Y-10276190D01*
X16142381Y-10038095D01*
X34642381Y-10038095D02*
X33642381Y-10038095D01*
X33642381Y-10276190D01*
X33690000Y-10419048D01*
X33785238Y-10514286D01*
X33880476Y-10561905D01*
X34070952Y-10609524D01*
X34213810Y-10609524D01*
X34404286Y-10561905D01*
X34499524Y-10514286D01*
X34594762Y-10419048D01*
X34642381Y-10276190D01*
X34642381Y-10038095D01*
X51742381Y-11738095D02*
X50742381Y-11738095D01*
X50742381Y-11976190D01*
X50790000Y-12119048D01*
X50885238Y-12214286D01*
X50980476Y-12261905D01*
X51170952Y-12309524D01*
X51313810Y-12309524D01*
X51504286Y-12261905D01*
X51599524Y-12214286D01*
X51694762Y-12119048D01*
X51742381Y-11976190D01*
X51742381Y-11738095D01*
X85042381Y-9938095D02*
X84042381Y-9938095D01*
X84042381Y-10176190D01*
X84090000Y-10319048D01*
X84185238Y-10414286D01*
X84280476Y-10461905D01*
X84470952Y-10509524D01*
X84613810Y-10509524D01*
X84804286Y-10461905D01*
X84899524Y-10414286D01*
X84994762Y-10319048D01*
X85042381Y-10176190D01*
X85042381Y-9938095D01*
X90142381Y-9938095D02*
X89142381Y-9938095D01*
X89142381Y-10176190D01*
X89190000Y-10319048D01*
X89285238Y-10414286D01*
X89380476Y-10461905D01*
X89570952Y-10509524D01*
X89713810Y-10509524D01*
X89904286Y-10461905D01*
X89999524Y-10414286D01*
X90094762Y-10319048D01*
X90142381Y-10176190D01*
X90142381Y-9938095D01*
X134342381Y-9938095D02*
X133342381Y-9938095D01*
X133342381Y-10176190D01*
X133390000Y-10319048D01*
X133485238Y-10414286D01*
X133580476Y-10461905D01*
X133770952Y-10509524D01*
X133913810Y-10509524D01*
X134104286Y-10461905D01*
X134199524Y-10414286D01*
X134294762Y-10319048D01*
X134342381Y-10176190D01*
X134342381Y-9938095D01*
X139442381Y-9938095D02*
X138442381Y-9938095D01*
X138442381Y-10176190D01*
X138490000Y-10319048D01*
X138585238Y-10414286D01*
X138680476Y-10461905D01*
X138870952Y-10509524D01*
X139013810Y-10509524D01*
X139204286Y-10461905D01*
X139299524Y-10414286D01*
X139394762Y-10319048D01*
X139442381Y-10176190D01*
X139442381Y-9938095D01*
X157942381Y-9938095D02*
X156942381Y-9938095D01*
X156942381Y-10176190D01*
X156990000Y-10319048D01*
X157085238Y-10414286D01*
X157180476Y-10461905D01*
X157370952Y-10509524D01*
X157513810Y-10509524D01*
X157704286Y-10461905D01*
X157799524Y-10414286D01*
X157894762Y-10319048D01*
X157942381Y-10176190D01*
X157942381Y-9938095D01*
X176442381Y-9838095D02*
X175442381Y-9838095D01*
X175442381Y-10076190D01*
X175490000Y-10219048D01*
X175585238Y-10314286D01*
X175680476Y-10361905D01*
X175870952Y-10409524D01*
X176013810Y-10409524D01*
X176204286Y-10361905D01*
X176299524Y-10314286D01*
X176394762Y-10219048D01*
X176442381Y-10076190D01*
X176442381Y-9838095D01*
X194842381Y-9938095D02*
X193842381Y-9938095D01*
X193842381Y-10176190D01*
X193890000Y-10319048D01*
X193985238Y-10414286D01*
X194080476Y-10461905D01*
X194270952Y-10509524D01*
X194413810Y-10509524D01*
X194604286Y-10461905D01*
X194699524Y-10414286D01*
X194794762Y-10319048D01*
X194842381Y-10176190D01*
X194842381Y-9938095D01*
X213442381Y-9938095D02*
X212442381Y-9938095D01*
X212442381Y-10176190D01*
X212490000Y-10319048D01*
X212585238Y-10414286D01*
X212680476Y-10461905D01*
X212870952Y-10509524D01*
X213013810Y-10509524D01*
X213204286Y-10461905D01*
X213299524Y-10414286D01*
X213394762Y-10319048D01*
X213442381Y-10176190D01*
X213442381Y-9938095D01*
X1742381Y-25738095D02*
X742381Y-25738095D01*
X742381Y-25976190D01*
X790000Y-26119048D01*
X885238Y-26214286D01*
X980476Y-26261905D01*
X1170952Y-26309524D01*
X1313810Y-26309524D01*
X1504286Y-26261905D01*
X1599524Y-26214286D01*
X1694762Y-26119048D01*
X1742381Y-25976190D01*
X1742381Y-25738095D01*
X16242381Y-25738095D02*
X15242381Y-25738095D01*
X15242381Y-25976190D01*
X15290000Y-26119048D01*
X15385238Y-26214286D01*
X15480476Y-26261905D01*
X15670952Y-26309524D01*
X15813810Y-26309524D01*
X16004286Y-26261905D01*
X16099524Y-26214286D01*
X16194762Y-26119048D01*
X16242381Y-25976190D01*
X16242381Y-25738095D01*
X34742381Y-25638095D02*
X33742381Y-25638095D01*
X33742381Y-25876190D01*
X33790000Y-26019048D01*
X33885238Y-26114286D01*
X33980476Y-26161905D01*
X34170952Y-26209524D01*
X34313810Y-26209524D01*
X34504286Y-26161905D01*
X34599524Y-26114286D01*
X34694762Y-26019048D01*
X34742381Y-25876190D01*
X34742381Y-25638095D01*
X53242381Y-25738095D02*
X52242381Y-25738095D01*
X52242381Y-25976190D01*
X52290000Y-26119048D01*
X52385238Y-26214286D01*
X52480476Y-26261905D01*
X52670952Y-26309524D01*
X52813810Y-26309524D01*
X53004286Y-26261905D01*
X53099524Y-26214286D01*
X53194762Y-26119048D01*
X53242381Y-25976190D01*
X53242381Y-25738095D01*
X71742381Y-25738095D02*
X70742381Y-25738095D01*
X70742381Y-25976190D01*
X70790000Y-26119048D01*
X70885238Y-26214286D01*
X70980476Y-26261905D01*
X71170952Y-26309524D01*
X71313810Y-26309524D01*
X71504286Y-26261905D01*
X71599524Y-26214286D01*
X71694762Y-26119048D01*
X71742381Y-25976190D01*
X71742381Y-25738095D01*
X90242381Y-25638095D02*
X89242381Y-25638095D01*
X89242381Y-25876190D01*
X89290000Y-26019048D01*
X89385238Y-26114286D01*
X89480476Y-26161905D01*
X89670952Y-26209524D01*
X89813810Y-26209524D01*
X90004286Y-26161905D01*
X90099524Y-26114286D01*
X90194762Y-26019048D01*
X90242381Y-25876190D01*
X90242381Y-25638095D01*
X120942381Y-25638095D02*
X119942381Y-25638095D01*
X119942381Y-25876190D01*
X119990000Y-26019048D01*
X120085238Y-26114286D01*
X120180476Y-26161905D01*
X120370952Y-26209524D01*
X120513810Y-26209524D01*
X120704286Y-26161905D01*
X120799524Y-26114286D01*
X120894762Y-26019048D01*
X120942381Y-25876190D01*
X120942381Y-25638095D01*
X139442381Y-25638095D02*
X138442381Y-25638095D01*
X138442381Y-25876190D01*
X138490000Y-26019048D01*
X138585238Y-26114286D01*
X138680476Y-26161905D01*
X138870952Y-26209524D01*
X139013810Y-26209524D01*
X139204286Y-26161905D01*
X139299524Y-26114286D01*
X139394762Y-26019048D01*
X139442381Y-25876190D01*
X139442381Y-25638095D01*
X157992381Y-25588095D02*
X156992381Y-25588095D01*
X156992381Y-25826190D01*
X157040000Y-25969048D01*
X157135238Y-26064286D01*
X157230476Y-26111905D01*
X157420952Y-26159524D01*
X157563810Y-26159524D01*
X157754286Y-26111905D01*
X157849524Y-26064286D01*
X157944762Y-25969048D01*
X157992381Y-25826190D01*
X157992381Y-25588095D01*
X176442381Y-25638095D02*
X175442381Y-25638095D01*
X175442381Y-25876190D01*
X175490000Y-26019048D01*
X175585238Y-26114286D01*
X175680476Y-26161905D01*
X175870952Y-26209524D01*
X176013810Y-26209524D01*
X176204286Y-26161905D01*
X176299524Y-26114286D01*
X176394762Y-26019048D01*
X176442381Y-25876190D01*
X176442381Y-25638095D01*
X194942381Y-25638095D02*
X193942381Y-25638095D01*
X193942381Y-25876190D01*
X193990000Y-26019048D01*
X194085238Y-26114286D01*
X194180476Y-26161905D01*
X194370952Y-26209524D01*
X194513810Y-26209524D01*
X194704286Y-26161905D01*
X194799524Y-26114286D01*
X194894762Y-26019048D01*
X194942381Y-25876190D01*
X194942381Y-25638095D01*
X213442381Y-25638095D02*
X212442381Y-25638095D01*
X212442381Y-25876190D01*
X212490000Y-26019048D01*
X212585238Y-26114286D01*
X212680476Y-26161905D01*
X212870952Y-26209524D01*
X213013810Y-26209524D01*
X213204286Y-26161905D01*
X213299524Y-26114286D01*
X213394762Y-26019048D01*
X213442381Y-25876190D01*
X213442381Y-25638095D01*
X1842381Y-41438095D02*
X842381Y-41438095D01*
X842381Y-41676190D01*
X890000Y-41819048D01*
X985238Y-41914286D01*
X1080476Y-41961905D01*
X1270952Y-42009524D01*
X1413810Y-42009524D01*
X1604286Y-41961905D01*
X1699524Y-41914286D01*
X1794762Y-41819048D01*
X1842381Y-41676190D01*
X1842381Y-41438095D01*
X16242381Y-41438095D02*
X15242381Y-41438095D01*
X15242381Y-41676190D01*
X15290000Y-41819048D01*
X15385238Y-41914286D01*
X15480476Y-41961905D01*
X15670952Y-42009524D01*
X15813810Y-42009524D01*
X16004286Y-41961905D01*
X16099524Y-41914286D01*
X16194762Y-41819048D01*
X16242381Y-41676190D01*
X16242381Y-41438095D01*
X34742381Y-41538095D02*
X33742381Y-41538095D01*
X33742381Y-41776190D01*
X33790000Y-41919048D01*
X33885238Y-42014286D01*
X33980476Y-42061905D01*
X34170952Y-42109524D01*
X34313810Y-42109524D01*
X34504286Y-42061905D01*
X34599524Y-42014286D01*
X34694762Y-41919048D01*
X34742381Y-41776190D01*
X34742381Y-41538095D01*
X53242381Y-41438095D02*
X52242381Y-41438095D01*
X52242381Y-41676190D01*
X52290000Y-41819048D01*
X52385238Y-41914286D01*
X52480476Y-41961905D01*
X52670952Y-42009524D01*
X52813810Y-42009524D01*
X53004286Y-41961905D01*
X53099524Y-41914286D01*
X53194762Y-41819048D01*
X53242381Y-41676190D01*
X53242381Y-41438095D01*
X71742381Y-41438095D02*
X70742381Y-41438095D01*
X70742381Y-41676190D01*
X70790000Y-41819048D01*
X70885238Y-41914286D01*
X70980476Y-41961905D01*
X71170952Y-42009524D01*
X71313810Y-42009524D01*
X71504286Y-41961905D01*
X71599524Y-41914286D01*
X71694762Y-41819048D01*
X71742381Y-41676190D01*
X71742381Y-41438095D01*
X90242381Y-38338095D02*
X89242381Y-38338095D01*
X89242381Y-38576190D01*
X89290000Y-38719048D01*
X89385238Y-38814286D01*
X89480476Y-38861905D01*
X89670952Y-38909524D01*
X89813810Y-38909524D01*
X90004286Y-38861905D01*
X90099524Y-38814286D01*
X90194762Y-38719048D01*
X90242381Y-38576190D01*
X90242381Y-38338095D01*
X120942381Y-35438095D02*
X119942381Y-35438095D01*
X119942381Y-35676190D01*
X119990000Y-35819048D01*
X120085238Y-35914286D01*
X120180476Y-35961905D01*
X120370952Y-36009524D01*
X120513810Y-36009524D01*
X120704286Y-35961905D01*
X120799524Y-35914286D01*
X120894762Y-35819048D01*
X120942381Y-35676190D01*
X120942381Y-35438095D01*
X139442381Y-35438095D02*
X138442381Y-35438095D01*
X138442381Y-35676190D01*
X138490000Y-35819048D01*
X138585238Y-35914286D01*
X138680476Y-35961905D01*
X138870952Y-36009524D01*
X139013810Y-36009524D01*
X139204286Y-35961905D01*
X139299524Y-35914286D01*
X139394762Y-35819048D01*
X139442381Y-35676190D01*
X139442381Y-35438095D01*
X157942381Y-35438095D02*
X156942381Y-35438095D01*
X156942381Y-35676190D01*
X156990000Y-35819048D01*
X157085238Y-35914286D01*
X157180476Y-35961905D01*
X157370952Y-36009524D01*
X157513810Y-36009524D01*
X157704286Y-35961905D01*
X157799524Y-35914286D01*
X157894762Y-35819048D01*
X157942381Y-35676190D01*
X157942381Y-35438095D01*
X176442381Y-35438095D02*
X175442381Y-35438095D01*
X175442381Y-35676190D01*
X175490000Y-35819048D01*
X175585238Y-35914286D01*
X175680476Y-35961905D01*
X175870952Y-36009524D01*
X176013810Y-36009524D01*
X176204286Y-35961905D01*
X176299524Y-35914286D01*
X176394762Y-35819048D01*
X176442381Y-35676190D01*
X176442381Y-35438095D01*
X194942381Y-35438095D02*
X193942381Y-35438095D01*
X193942381Y-35676190D01*
X193990000Y-35819048D01*
X194085238Y-35914286D01*
X194180476Y-35961905D01*
X194370952Y-36009524D01*
X194513810Y-36009524D01*
X194704286Y-35961905D01*
X194799524Y-35914286D01*
X194894762Y-35819048D01*
X194942381Y-35676190D01*
X194942381Y-35438095D01*
X213442381Y-35438095D02*
X212442381Y-35438095D01*
X212442381Y-35676190D01*
X212490000Y-35819048D01*
X212585238Y-35914286D01*
X212680476Y-35961905D01*
X212870952Y-36009524D01*
X213013810Y-36009524D01*
X213204286Y-35961905D01*
X213299524Y-35914286D01*
X213394762Y-35819048D01*
X213442381Y-35676190D01*
X213442381Y-35438095D01*
X71262381Y-47838095D02*
X70262381Y-47838095D01*
X70262381Y-48076190D01*
X70310000Y-48219048D01*
X70405238Y-48314286D01*
X70500476Y-48361905D01*
X70690952Y-48409524D01*
X70833810Y-48409524D01*
X71024286Y-48361905D01*
X71119524Y-48314286D01*
X71214762Y-48219048D01*
X71262381Y-48076190D01*
X71262381Y-47838095D01*
X89762381Y-47738095D02*
X88762381Y-47738095D01*
X88762381Y-47976190D01*
X88810000Y-48119048D01*
X88905238Y-48214286D01*
X89000476Y-48261905D01*
X89190952Y-48309524D01*
X89333810Y-48309524D01*
X89524286Y-48261905D01*
X89619524Y-48214286D01*
X89714762Y-48119048D01*
X89762381Y-47976190D01*
X89762381Y-47738095D01*
X140962381Y-42338095D02*
X139962381Y-42338095D01*
X139962381Y-42576190D01*
X140010000Y-42719048D01*
X140105238Y-42814286D01*
X140200476Y-42861905D01*
X140390952Y-42909524D01*
X140533810Y-42909524D01*
X140724286Y-42861905D01*
X140819524Y-42814286D01*
X140914762Y-42719048D01*
X140962381Y-42576190D01*
X140962381Y-42338095D01*
X159362381Y-42438095D02*
X158362381Y-42438095D01*
X158362381Y-42676190D01*
X158410000Y-42819048D01*
X158505238Y-42914286D01*
X158600476Y-42961905D01*
X158790952Y-43009524D01*
X158933810Y-43009524D01*
X159124286Y-42961905D01*
X159219524Y-42914286D01*
X159314762Y-42819048D01*
X159362381Y-42676190D01*
X159362381Y-42438095D01*
X56574797Y-6012040D02*
X56574797Y-5944696D01*
X56541125Y-5843681D01*
X56372766Y-5675322D01*
X56271751Y-5641650D01*
X56204407Y-5641650D01*
X56103392Y-5675322D01*
X56036049Y-5742665D01*
X55968705Y-5877352D01*
X55968705Y-6685475D01*
X55530972Y-6247742D01*
X55901362Y-5338604D02*
X55901362Y-5271261D01*
X55867690Y-5170246D01*
X55699331Y-5001887D01*
X55598316Y-4968215D01*
X55530972Y-4968215D01*
X55429957Y-5001887D01*
X55362614Y-5069230D01*
X55295270Y-5203917D01*
X55295270Y-6012040D01*
X54857537Y-5574306D01*
X55836020Y-7644627D02*
X55818590Y-7579578D01*
X55759921Y-7490720D01*
X55553724Y-7371672D01*
X55447436Y-7365292D01*
X55382387Y-7382722D01*
X55293529Y-7441391D01*
X55245910Y-7523870D01*
X55215720Y-7671397D01*
X55424878Y-8451983D01*
X54888767Y-8142459D01*
X55011233Y-7168437D02*
X54993804Y-7103388D01*
X54935135Y-7014530D01*
X54728937Y-6895482D01*
X54622649Y-6889102D01*
X54557601Y-6906532D01*
X54468742Y-6965201D01*
X54421123Y-7047679D01*
X54390934Y-7195206D01*
X54600092Y-7975793D01*
X54063980Y-7666269D01*
X54792857Y2478571D02*
X53592857Y2478571D01*
X54792857Y1907142D02*
X53592857Y1907142D01*
X53592857Y1449999D01*
X53650000Y1335713D01*
X53707143Y1278570D01*
X53821429Y1221427D01*
X53992857Y1221427D01*
X54107143Y1278570D01*
X54164286Y1335713D01*
X54221429Y1449999D01*
X54221429Y1907142D01*
X53992857Y192856D02*
X54792857Y192856D01*
X53535714Y478570D02*
X54392857Y764285D01*
X54392857Y21427D01*
X53707143Y-378572D02*
X53650000Y-435715D01*
X53592857Y-550001D01*
X53592857Y-835715D01*
X53650000Y-950001D01*
X53707143Y-1007144D01*
X53821429Y-1064287D01*
X53935714Y-1064287D01*
X54107143Y-1007144D01*
X54792857Y-321430D01*
X54792857Y-1064287D01*
X53592857Y-1464287D02*
X53592857Y-2207144D01*
X54050000Y-1807144D01*
X54050000Y-1978572D01*
X54107143Y-2092858D01*
X54164286Y-2150001D01*
X54278571Y-2207144D01*
X54564286Y-2207144D01*
X54678571Y-2150001D01*
X54735714Y-2092858D01*
X54792857Y-1978572D01*
X54792857Y-1635715D01*
X54735714Y-1521429D01*
X54678571Y-1464287D01*
X53992857Y-3235715D02*
X54792857Y-3235715D01*
X53535714Y-2950001D02*
X54392857Y-2664286D01*
X54392857Y-3407144D01*
X54678571Y-4550001D02*
X54735714Y-4492858D01*
X54792857Y-4321429D01*
X54792857Y-4207143D01*
X54735714Y-4035715D01*
X54621429Y-3921429D01*
X54507143Y-3864286D01*
X54278571Y-3807143D01*
X54107143Y-3807143D01*
X53878571Y-3864286D01*
X53764286Y-3921429D01*
X53650000Y-4035715D01*
X53592857Y-4207143D01*
X53592857Y-4321429D01*
X53650000Y-4492858D01*
X53707143Y-4550001D01*
X53592857Y-4950001D02*
X53592857Y-5750001D01*
X54792857Y-4950001D01*
X54792857Y-5750001D01*
X53592857Y-6721429D02*
X53592857Y-6492858D01*
X53650000Y-6378572D01*
X53707143Y-6321429D01*
X53878571Y-6207143D01*
X54107143Y-6150000D01*
X54564286Y-6150000D01*
X54678571Y-6207143D01*
X54735714Y-6264286D01*
X54792857Y-6378572D01*
X54792857Y-6607143D01*
X54735714Y-6721429D01*
X54678571Y-6778572D01*
X54564286Y-6835715D01*
X54278571Y-6835715D01*
X54164286Y-6778572D01*
X54107143Y-6721429D01*
X54050000Y-6607143D01*
X54050000Y-6378572D01*
X54107143Y-6264286D01*
X54164286Y-6207143D01*
X54278571Y-6150000D01*
X81893750Y-9293561D02*
X81557033Y-8956843D01*
X81759064Y-9562935D02*
X82230468Y-8620126D01*
X81287659Y-9091530D01*
X81860079Y-8249737D02*
X81456017Y-7845675D01*
X80950942Y-8754813D02*
X81658048Y-8047706D01*
X80513209Y-8317080D02*
X80984613Y-7845675D01*
X80917270Y-7913019D02*
X80917270Y-7845675D01*
X80883598Y-7744660D01*
X80782582Y-7643644D01*
X80681567Y-7609972D01*
X80580552Y-7643644D01*
X80210162Y-8014034D01*
X80580552Y-7643644D02*
X80614224Y-7542629D01*
X80580552Y-7441614D01*
X80479537Y-7340599D01*
X80378522Y-7306927D01*
X80277507Y-7340599D01*
X79907117Y-7710988D01*
X79334697Y-7071225D02*
X79368369Y-7172240D01*
X79503056Y-7306928D01*
X79604072Y-7340599D01*
X79705087Y-7306928D01*
X79974461Y-7037553D01*
X80008133Y-6936538D01*
X79974461Y-6835523D01*
X79839774Y-6700835D01*
X79738758Y-6667164D01*
X79637743Y-6700835D01*
X79570399Y-6768180D01*
X79839774Y-7172241D01*
X79132667Y-5993729D02*
X78560247Y-6566149D01*
X78526575Y-6667164D01*
X78526575Y-6734507D01*
X78560248Y-6835523D01*
X78661263Y-6936538D01*
X78762278Y-6970210D01*
X78694934Y-6431462D02*
X78728605Y-6532477D01*
X78863293Y-6667164D01*
X78964308Y-6700836D01*
X79031652Y-6700836D01*
X79132667Y-6667164D01*
X79334698Y-6465133D01*
X79368370Y-6364118D01*
X79368370Y-6296775D01*
X79334698Y-6195760D01*
X79200010Y-6061072D01*
X79098995Y-6027400D01*
X78021499Y-5825370D02*
X78391888Y-5454980D01*
X78492903Y-5421309D01*
X78593919Y-5454980D01*
X78728606Y-5589668D01*
X78762278Y-5690683D01*
X78055170Y-5791698D02*
X78088842Y-5892713D01*
X78257201Y-6061073D01*
X78358217Y-6094744D01*
X78459232Y-6061073D01*
X78526575Y-5993729D01*
X78560247Y-5892714D01*
X78526575Y-5791699D01*
X78358216Y-5623340D01*
X78324544Y-5522325D01*
X78459232Y-4848890D02*
X78021499Y-4411156D01*
X77987828Y-4916233D01*
X77886812Y-4815217D01*
X77785797Y-4781545D01*
X77718453Y-4781545D01*
X77617437Y-4815218D01*
X77449079Y-4983576D01*
X77415407Y-5084592D01*
X77415407Y-5151935D01*
X77449079Y-5252950D01*
X77651110Y-5454981D01*
X77752125Y-5488653D01*
X77819468Y-5488653D01*
X77684782Y-4209126D02*
X77684782Y-4141783D01*
X77651110Y-4040768D01*
X77482750Y-3872408D01*
X77381735Y-3838737D01*
X77314392Y-3838737D01*
X77213377Y-3872408D01*
X77146033Y-3939752D01*
X77078690Y-4074439D01*
X77078690Y-4882561D01*
X76640957Y-4444828D01*
X77045018Y-3434676D02*
X76472598Y-4007096D01*
X76371583Y-4040768D01*
X76304240Y-4040768D01*
X76203225Y-4007096D01*
X76068537Y-3872408D01*
X76034865Y-3771393D01*
X76034865Y-3704050D01*
X76068537Y-3603035D01*
X76640957Y-3030615D01*
X75765491Y-2626553D02*
X75294087Y-3097958D01*
X76203225Y-2525539D02*
X75866507Y-3198974D01*
X75428774Y-2761241D01*
X75193072Y-2458195D02*
X74654323Y-1919447D01*
X74283934Y-1683745D02*
X73947217Y-1347027D01*
X74149248Y-1953119D02*
X74620652Y-1010310D01*
X73677843Y-1481714D01*
X74149248Y-538905D02*
X73576828Y-1111325D01*
X73475813Y-1144997D01*
X73408469Y-1144997D01*
X73307454Y-1111325D01*
X73172766Y-976638D01*
X73139095Y-875623D01*
X73139095Y-808279D01*
X73172766Y-707264D01*
X73745186Y-134844D01*
X72390476Y-24052381D02*
X72961905Y-24052381D01*
X72676191Y-24052381D02*
X72676191Y-23052381D01*
X72771429Y-23195238D01*
X72866667Y-23290476D01*
X72961905Y-23338095D01*
X71771429Y-23052381D02*
X71676190Y-23052381D01*
X71580952Y-23100000D01*
X71533333Y-23147619D01*
X71485714Y-23242857D01*
X71438095Y-23433333D01*
X71438095Y-23671429D01*
X71485714Y-23861905D01*
X71533333Y-23957143D01*
X71580952Y-24004762D01*
X71676190Y-24052381D01*
X71771429Y-24052381D01*
X71866667Y-24004762D01*
X71914286Y-23957143D01*
X71961905Y-23861905D01*
X72009524Y-23671429D01*
X72009524Y-23433333D01*
X71961905Y-23242857D01*
X71914286Y-23147619D01*
X71866667Y-23100000D01*
X71771429Y-23052381D01*
X71009524Y-24052381D02*
X71009524Y-23052381D01*
X70438095Y-24052381D02*
X70866667Y-23480952D01*
X70438095Y-23052381D02*
X71009524Y-23623810D01*
X85457143Y-2254285D02*
X85504762Y-2206666D01*
X85552381Y-2063809D01*
X85552381Y-1968571D01*
X85504762Y-1825713D01*
X85409524Y-1730475D01*
X85314286Y-1682856D01*
X85123810Y-1635237D01*
X84980952Y-1635237D01*
X84790476Y-1682856D01*
X84695238Y-1730475D01*
X84600000Y-1825713D01*
X84552381Y-1968571D01*
X84552381Y-2063809D01*
X84600000Y-2206666D01*
X84647619Y-2254285D01*
X85552381Y-2682856D02*
X84885714Y-2682856D01*
X85076190Y-2682856D02*
X84980952Y-2730475D01*
X84933333Y-2778094D01*
X84885714Y-2873332D01*
X84885714Y-2968571D01*
X84885714Y-3206666D02*
X85552381Y-3444761D01*
X84885714Y-3682857D02*
X85552381Y-3444761D01*
X85790476Y-3349523D01*
X85838095Y-3301904D01*
X85885714Y-3206666D01*
X85504762Y-4016190D02*
X85552381Y-4111428D01*
X85552381Y-4301904D01*
X85504762Y-4397143D01*
X85409524Y-4444762D01*
X85361905Y-4444762D01*
X85266667Y-4397143D01*
X85219048Y-4301904D01*
X85219048Y-4159047D01*
X85171429Y-4063809D01*
X85076190Y-4016190D01*
X85028571Y-4016190D01*
X84933333Y-4063809D01*
X84885714Y-4159047D01*
X84885714Y-4301904D01*
X84933333Y-4397143D01*
X84885714Y-4730476D02*
X84885714Y-5111428D01*
X84552381Y-4873333D02*
X85409524Y-4873333D01*
X85504762Y-4920952D01*
X85552381Y-5016190D01*
X85552381Y-5111428D01*
X85552381Y-5873334D02*
X85028571Y-5873334D01*
X84933333Y-5825715D01*
X84885714Y-5730477D01*
X84885714Y-5540000D01*
X84933333Y-5444762D01*
X85504762Y-5873334D02*
X85552381Y-5778096D01*
X85552381Y-5540000D01*
X85504762Y-5444762D01*
X85409524Y-5397143D01*
X85314286Y-5397143D01*
X85219048Y-5444762D01*
X85171429Y-5540000D01*
X85171429Y-5778096D01*
X85123810Y-5873334D01*
X85552381Y-6492381D02*
X85504762Y-6397143D01*
X85409524Y-6349524D01*
X84552381Y-6349524D01*
X85647619Y-6635239D02*
X85647619Y-7397144D01*
X85504762Y-7587620D02*
X85552381Y-7730477D01*
X85552381Y-7968573D01*
X85504762Y-8063811D01*
X85457143Y-8111430D01*
X85361905Y-8159049D01*
X85266667Y-8159049D01*
X85171429Y-8111430D01*
X85123810Y-8063811D01*
X85076190Y-7968573D01*
X85028571Y-7778096D01*
X84980952Y-7682858D01*
X84933333Y-7635239D01*
X84838095Y-7587620D01*
X84742857Y-7587620D01*
X84647619Y-7635239D01*
X84600000Y-7682858D01*
X84552381Y-7778096D01*
X84552381Y-8016192D01*
X84600000Y-8159049D01*
X85552381Y-8587620D02*
X84885714Y-8587620D01*
X84980952Y-8587620D02*
X84933333Y-8635239D01*
X84885714Y-8730477D01*
X84885714Y-8873335D01*
X84933333Y-8968573D01*
X85028571Y-9016192D01*
X85552381Y-9016192D01*
X85028571Y-9016192D02*
X84933333Y-9063811D01*
X84885714Y-9159049D01*
X84885714Y-9301906D01*
X84933333Y-9397144D01*
X85028571Y-9444763D01*
X85552381Y-9444763D01*
X85552381Y-10349525D02*
X85028571Y-10349525D01*
X84933333Y-10301906D01*
X84885714Y-10206668D01*
X84885714Y-10016191D01*
X84933333Y-9920953D01*
X85504762Y-10349525D02*
X85552381Y-10254287D01*
X85552381Y-10016191D01*
X85504762Y-9920953D01*
X85409524Y-9873334D01*
X85314286Y-9873334D01*
X85219048Y-9920953D01*
X85171429Y-10016191D01*
X85171429Y-10254287D01*
X85123810Y-10349525D01*
X85552381Y-10968572D02*
X85504762Y-10873334D01*
X85409524Y-10825715D01*
X84552381Y-10825715D01*
X85552381Y-11492382D02*
X85504762Y-11397144D01*
X85409524Y-11349525D01*
X84552381Y-11349525D01*
X81604716Y-6598504D02*
X81703944Y-7161251D01*
X81654330Y-6879878D02*
X82639138Y-6706230D01*
X82514989Y-6824828D01*
X82437736Y-6935157D01*
X82407378Y-7037217D01*
X82482028Y-5815213D02*
X82465489Y-5721421D01*
X82402056Y-5635899D01*
X82346892Y-5597272D01*
X82244831Y-5566915D01*
X82048980Y-5553095D01*
X81814501Y-5594440D01*
X81635188Y-5674411D01*
X81549666Y-5737845D01*
X81511039Y-5793009D01*
X81480682Y-5895069D01*
X81497220Y-5988861D01*
X81560653Y-6074384D01*
X81615818Y-6113010D01*
X81717878Y-6143368D01*
X81913729Y-6157188D01*
X82148208Y-6115843D01*
X82327521Y-6035871D01*
X82413043Y-5972438D01*
X82451670Y-5917273D01*
X82482028Y-5815213D01*
X82021455Y-5122766D02*
X81036647Y-5296414D01*
X81974560Y-5131035D02*
X82004917Y-5028975D01*
X81971841Y-4841392D01*
X81908408Y-4755869D01*
X81853243Y-4717243D01*
X81751183Y-4686885D01*
X81469809Y-4736499D01*
X81384287Y-4799933D01*
X81345660Y-4855097D01*
X81315303Y-4957157D01*
X81348379Y-5144740D01*
X81411812Y-5230263D01*
X81665775Y-3928286D02*
X81723658Y-4256556D01*
X81207806Y-4347515D02*
X82192614Y-4173867D01*
X82109924Y-3704910D01*
X78936184Y-4314074D02*
X79221898Y-4808946D01*
X79079041Y-4561511D02*
X79945066Y-4061511D01*
X79868968Y-4215418D01*
X79834108Y-4345515D01*
X79840488Y-4451803D01*
X79492685Y-3277964D02*
X79445066Y-3195485D01*
X79356208Y-3136816D01*
X79291159Y-3119386D01*
X79184871Y-3125765D01*
X78996104Y-3179764D01*
X78789907Y-3298812D01*
X78648760Y-3435289D01*
X78590091Y-3524148D01*
X78572661Y-3589197D01*
X78579041Y-3695485D01*
X78626660Y-3777964D01*
X78715518Y-3836633D01*
X78780567Y-3854063D01*
X78886855Y-3847683D01*
X79075622Y-3793684D01*
X79281819Y-3674636D01*
X79422966Y-3538159D01*
X79481635Y-3449301D01*
X79499065Y-3384252D01*
X79492685Y-3277964D01*
X78823058Y-2784801D02*
X77957033Y-3284801D01*
X78781819Y-2808611D02*
X78775439Y-2702323D01*
X78680201Y-2537365D01*
X78591342Y-2478696D01*
X78526294Y-2461266D01*
X78420006Y-2467646D01*
X78172569Y-2610503D01*
X78113900Y-2699362D01*
X78096470Y-2764410D01*
X78102850Y-2870698D01*
X78198089Y-3035656D01*
X78286947Y-3094325D01*
X78080292Y-1784007D02*
X78246959Y-2072683D01*
X77793327Y-2334588D02*
X78659352Y-1834588D01*
X78421256Y-1422194D01*
X88324762Y3992381D02*
X88372381Y3849524D01*
X88372381Y3611428D01*
X88324762Y3516190D01*
X88277143Y3468571D01*
X88181905Y3420952D01*
X88086667Y3420952D01*
X87991429Y3468571D01*
X87943810Y3516190D01*
X87896190Y3611428D01*
X87848571Y3801905D01*
X87800952Y3897143D01*
X87753333Y3944762D01*
X87658095Y3992381D01*
X87562857Y3992381D01*
X87467619Y3944762D01*
X87420000Y3897143D01*
X87372381Y3801905D01*
X87372381Y3563809D01*
X87420000Y3420952D01*
X87705714Y3087619D02*
X88372381Y2897143D01*
X87896190Y2706666D01*
X88372381Y2516190D01*
X87705714Y2325714D01*
X88372381Y1944762D02*
X87705714Y1944762D01*
X87372381Y1944762D02*
X87420000Y1992381D01*
X87467619Y1944762D01*
X87420000Y1897143D01*
X87372381Y1944762D01*
X87467619Y1944762D01*
X87705714Y1611429D02*
X87705714Y1230477D01*
X87372381Y1468572D02*
X88229524Y1468572D01*
X88324762Y1420953D01*
X88372381Y1325715D01*
X88372381Y1230477D01*
X88324762Y468571D02*
X88372381Y563809D01*
X88372381Y754286D01*
X88324762Y849524D01*
X88277143Y897143D01*
X88181905Y944762D01*
X87896190Y944762D01*
X87800952Y897143D01*
X87753333Y849524D01*
X87705714Y754286D01*
X87705714Y563809D01*
X87753333Y468571D01*
X88372381Y40000D02*
X87372381Y40000D01*
X88372381Y-388572D02*
X87848571Y-388572D01*
X87753333Y-340953D01*
X87705714Y-245715D01*
X87705714Y-102857D01*
X87753333Y-7619D01*
X87800952Y40000D01*
X88467619Y-626667D02*
X88467619Y-1388572D01*
X88372381Y-1626667D02*
X87372381Y-1626667D01*
X87372381Y-1864762D01*
X87420000Y-2007620D01*
X87515238Y-2102858D01*
X87610476Y-2150477D01*
X87800952Y-2198096D01*
X87943810Y-2198096D01*
X88134286Y-2150477D01*
X88229524Y-2102858D01*
X88324762Y-2007620D01*
X88372381Y-1864762D01*
X88372381Y-1626667D01*
X88372381Y-2626667D02*
X87372381Y-2626667D01*
X87372381Y-3007620D01*
X87420000Y-3102858D01*
X87467619Y-3150477D01*
X87562857Y-3198096D01*
X87705714Y-3198096D01*
X87800952Y-3150477D01*
X87848571Y-3102858D01*
X87896190Y-3007620D01*
X87896190Y-2626667D01*
X88324762Y-3579048D02*
X88372381Y-3721905D01*
X88372381Y-3960001D01*
X88324762Y-4055239D01*
X88277143Y-4102858D01*
X88181905Y-4150477D01*
X88086667Y-4150477D01*
X87991429Y-4102858D01*
X87943810Y-4055239D01*
X87896190Y-3960001D01*
X87848571Y-3769524D01*
X87800952Y-3674286D01*
X87753333Y-3626667D01*
X87658095Y-3579048D01*
X87562857Y-3579048D01*
X87467619Y-3626667D01*
X87420000Y-3674286D01*
X87372381Y-3769524D01*
X87372381Y-4007620D01*
X87420000Y-4150477D01*
X87372381Y-4436191D02*
X87372381Y-5007620D01*
X88372381Y-4721905D02*
X87372381Y-4721905D01*
X49409523Y-9928571D02*
X49742857Y-9928571D01*
X49742857Y-10452381D02*
X49742857Y-9452381D01*
X49266666Y-9452381D01*
X48885714Y-9452381D02*
X48885714Y-10261905D01*
X48838095Y-10357143D01*
X48790476Y-10404762D01*
X48695238Y-10452381D01*
X48504761Y-10452381D01*
X48409523Y-10404762D01*
X48361904Y-10357143D01*
X48314285Y-10261905D01*
X48314285Y-9452381D01*
X47885714Y-10404762D02*
X47742857Y-10452381D01*
X47504761Y-10452381D01*
X47409523Y-10404762D01*
X47361904Y-10357143D01*
X47314285Y-10261905D01*
X47314285Y-10166667D01*
X47361904Y-10071429D01*
X47409523Y-10023810D01*
X47504761Y-9976190D01*
X47695238Y-9928571D01*
X47790476Y-9880952D01*
X47838095Y-9833333D01*
X47885714Y-9738095D01*
X47885714Y-9642857D01*
X47838095Y-9547619D01*
X47790476Y-9500000D01*
X47695238Y-9452381D01*
X47457142Y-9452381D01*
X47314285Y-9500000D01*
X46885714Y-9928571D02*
X46552380Y-9928571D01*
X46409523Y-10452381D02*
X46885714Y-10452381D01*
X46885714Y-9452381D01*
X46409523Y-9452381D01*
X79612381Y1350476D02*
X79612381Y1921905D01*
X79612381Y1636191D02*
X78612381Y1636191D01*
X78755238Y1731429D01*
X78850476Y1826667D01*
X78898095Y1921905D01*
X78612381Y731429D02*
X78612381Y636190D01*
X78660000Y540952D01*
X78707619Y493333D01*
X78802857Y445714D01*
X78993333Y398095D01*
X79231429Y398095D01*
X79421905Y445714D01*
X79517143Y493333D01*
X79564762Y540952D01*
X79612381Y636190D01*
X79612381Y731429D01*
X79564762Y826667D01*
X79517143Y874286D01*
X79421905Y921905D01*
X79231429Y969524D01*
X78993333Y969524D01*
X78802857Y921905D01*
X78707619Y874286D01*
X78660000Y826667D01*
X78612381Y731429D01*
X79612381Y-30476D02*
X78612381Y-30476D01*
X79612381Y-601905D02*
X79040952Y-173333D01*
X78612381Y-601905D02*
X79183810Y-30476D01*
M02*
