M48
METRIC,TZ
T1C1.000
T2C1.600
%
G90
G05
T1
X2000Y-22000
X2000Y-24500
X2000Y-27000
X3000Y-3000
X5500Y-3000
X5750Y-37000
X5850Y-21600
X5850Y-26200
X8000Y-3000
X10250Y-40000
X10500Y-3000
X13000Y-3000
X13750Y-37000
X13850Y-21600
X13850Y-26200
X24250Y-37000
X24350Y-21600
X24350Y-26200
X28750Y-40000
X32250Y-37000
X32350Y-21600
X32350Y-26200
X42750Y-37000
X42850Y-21600
X42850Y-26200
X50750Y-37000
X50850Y-21600
X50850Y-26200
X61250Y-37000
X61350Y-21600
X61350Y-26200
X65750Y-40000
X69250Y-37000
X69350Y-21600
X69350Y-26200
X75850Y-21600
X75850Y-26200
X76000Y-3000
X78250Y-37000
X78500Y-3000
X81000Y-3000
X83500Y-3000
X83850Y-21600
X83850Y-26200
X84250Y-40000
X86000Y-3000
X86250Y-37000
X87000Y-22000
X87000Y-24500
X87000Y-27000
T2
X5250Y-10400
X5250Y-17700
X5250Y-33500
X10250Y-10900
X10250Y-18200
X10250Y-34000
X23750Y-10400
X23750Y-17700
X23750Y-33500
X28750Y-10900
X28750Y-18200
X28750Y-34000
X42250Y-10400
X42250Y-17700
X42250Y-33500
X47250Y-10900
X47250Y-18200
X47250Y-34000
X60750Y-10400
X60750Y-17700
X60750Y-33500
X65750Y-10900
X65750Y-18200
X65750Y-34000
X79250Y-10400
X79250Y-17700
X79250Y-33500
X84250Y-10900
X84250Y-18200
X84250Y-34000
T0
M30
