G04 #@! TF.FileFunction,Legend,Bot*
%FSLAX46Y46*%
G04 Gerber Fmt 4.6, Leading zero omitted, Abs format (unit mm)*
G04 Created by KiCad (PCBNEW 4.0.1-stable) date Friday, September 23, 2016 'AMt' 01:17:15 AM*
%MOMM*%
G01*
G04 APERTURE LIST*
%ADD10C,0.100000*%
%ADD11C,0.150000*%
G04 APERTURE END LIST*
D10*
D11*
X123734490Y-76204443D02*
X123734490Y-76487285D01*
X130522715Y-83275510D02*
X130664136Y-83416932D01*
X130664136Y-83416932D02*
X130805557Y-83275510D01*
X130805557Y-69416218D02*
X130664136Y-69274796D01*
X130664136Y-69274796D02*
X130522715Y-69416218D01*
X137593782Y-76204443D02*
X137735204Y-76345864D01*
X137735204Y-76345864D02*
X137593782Y-76487285D01*
X125966926Y-83305814D02*
X126653830Y-83184596D01*
X126451800Y-83790688D02*
X127300328Y-82942160D01*
X126977079Y-82618911D01*
X126855861Y-82578504D01*
X126775048Y-82578504D01*
X126653830Y-82618911D01*
X126532612Y-82740129D01*
X126492205Y-82861347D01*
X126492205Y-82942160D01*
X126532612Y-83063378D01*
X126855861Y-83386627D01*
X126047739Y-82497693D02*
X125764896Y-82214850D01*
X125199211Y-82538098D02*
X125603272Y-82942160D01*
X126451800Y-82093631D01*
X126047739Y-81689570D01*
X124997180Y-81447134D02*
X125280023Y-81729977D01*
X124835556Y-82174444D02*
X125684084Y-81325916D01*
X125280023Y-80921854D01*
X124835556Y-80477388D02*
X124633526Y-80679418D01*
X124916368Y-80800637D02*
X124633526Y-80679418D01*
X124512307Y-80396576D01*
X124593120Y-80962261D02*
X124633526Y-80679418D01*
X124350683Y-80719825D01*
X124189058Y-79830890D02*
X123987028Y-80032920D01*
X124269870Y-80154139D02*
X123987028Y-80032920D01*
X123865809Y-79750078D01*
X123946622Y-80315763D02*
X123987028Y-80032920D01*
X123704185Y-80073327D01*
M02*
