G04 #@! TF.FileFunction,Legend,Top*
%FSLAX46Y46*%
G04 Gerber Fmt 4.6, Leading zero omitted, Abs format (unit mm)*
G04 Created by KiCad (PCBNEW 4.0.1-stable) date Friday, September 23, 2016 'AMt' 01:17:15 AM*
%MOMM*%
G01*
G04 APERTURE LIST*
%ADD10C,0.100000*%
%ADD11C,0.250000*%
%ADD12C,0.300000*%
%ADD13C,0.150000*%
G04 APERTURE END LIST*
D10*
D11*
X123500001Y-46285714D02*
X122738096Y-46571429D01*
X123500001Y-46857143D01*
X123976191Y-46571429D02*
X124738096Y-46571429D01*
X125738096Y-46000000D02*
X125642858Y-45952381D01*
X125500001Y-45952381D01*
X125357143Y-46000000D01*
X125261905Y-46095238D01*
X125214286Y-46190476D01*
X125166667Y-46380952D01*
X125166667Y-46523810D01*
X125214286Y-46714286D01*
X125261905Y-46809524D01*
X125357143Y-46904762D01*
X125500001Y-46952381D01*
X125595239Y-46952381D01*
X125738096Y-46904762D01*
X125785715Y-46857143D01*
X125785715Y-46523810D01*
X125595239Y-46523810D01*
X126214286Y-46952381D02*
X126214286Y-45952381D01*
X126785715Y-46952381D01*
X126785715Y-45952381D01*
X127261905Y-46952381D02*
X127261905Y-45952381D01*
X127500000Y-45952381D01*
X127642858Y-46000000D01*
X127738096Y-46095238D01*
X127785715Y-46190476D01*
X127833334Y-46380952D01*
X127833334Y-46523810D01*
X127785715Y-46714286D01*
X127738096Y-46809524D01*
X127642858Y-46904762D01*
X127500000Y-46952381D01*
X127261905Y-46952381D01*
X128261905Y-46571429D02*
X129023810Y-46571429D01*
X129500000Y-46285714D02*
X130261905Y-46571429D01*
X129500000Y-46857143D01*
D10*
X148845239Y-87976190D02*
X149154762Y-87976190D01*
X148988096Y-88166667D01*
X149059524Y-88166667D01*
X149107143Y-88190476D01*
X149130953Y-88214286D01*
X149154762Y-88261905D01*
X149154762Y-88380952D01*
X149130953Y-88428571D01*
X149107143Y-88452381D01*
X149059524Y-88476190D01*
X148916667Y-88476190D01*
X148869048Y-88452381D01*
X148845239Y-88428571D01*
X149321429Y-87976190D02*
X149630952Y-87976190D01*
X149464286Y-88166667D01*
X149535714Y-88166667D01*
X149583333Y-88190476D01*
X149607143Y-88214286D01*
X149630952Y-88261905D01*
X149630952Y-88380952D01*
X149607143Y-88428571D01*
X149583333Y-88452381D01*
X149535714Y-88476190D01*
X149392857Y-88476190D01*
X149345238Y-88452381D01*
X149321429Y-88428571D01*
X148845239Y-90226190D02*
X149154762Y-90226190D01*
X148988096Y-90416667D01*
X149059524Y-90416667D01*
X149107143Y-90440476D01*
X149130953Y-90464286D01*
X149154762Y-90511905D01*
X149154762Y-90630952D01*
X149130953Y-90678571D01*
X149107143Y-90702381D01*
X149059524Y-90726190D01*
X148916667Y-90726190D01*
X148869048Y-90702381D01*
X148845239Y-90678571D01*
X149345238Y-90273810D02*
X149369048Y-90250000D01*
X149416667Y-90226190D01*
X149535714Y-90226190D01*
X149583333Y-90250000D01*
X149607143Y-90273810D01*
X149630952Y-90321429D01*
X149630952Y-90369048D01*
X149607143Y-90440476D01*
X149321429Y-90726190D01*
X149630952Y-90726190D01*
X149107143Y-63392857D02*
X149107143Y-63726190D01*
X148988096Y-63202381D02*
X148869048Y-63559524D01*
X149178572Y-63559524D01*
X149321429Y-63226190D02*
X149630952Y-63226190D01*
X149464286Y-63416667D01*
X149535714Y-63416667D01*
X149583333Y-63440476D01*
X149607143Y-63464286D01*
X149630952Y-63511905D01*
X149630952Y-63630952D01*
X149607143Y-63678571D01*
X149583333Y-63702381D01*
X149535714Y-63726190D01*
X149392857Y-63726190D01*
X149345238Y-63702381D01*
X149321429Y-63678571D01*
X149107143Y-61142857D02*
X149107143Y-61476190D01*
X148988096Y-60952381D02*
X148869048Y-61309524D01*
X149178572Y-61309524D01*
X149583333Y-61142857D02*
X149583333Y-61476190D01*
X149464286Y-60952381D02*
X149345238Y-61309524D01*
X149654762Y-61309524D01*
X149107143Y-65642857D02*
X149107143Y-65976190D01*
X148988096Y-65452381D02*
X148869048Y-65809524D01*
X149178572Y-65809524D01*
X149345238Y-65523810D02*
X149369048Y-65500000D01*
X149416667Y-65476190D01*
X149535714Y-65476190D01*
X149583333Y-65500000D01*
X149607143Y-65523810D01*
X149630952Y-65571429D01*
X149630952Y-65619048D01*
X149607143Y-65690476D01*
X149321429Y-65976190D01*
X149630952Y-65976190D01*
X149107143Y-67892857D02*
X149107143Y-68226190D01*
X148988096Y-67702381D02*
X148869048Y-68059524D01*
X149178572Y-68059524D01*
X149630952Y-68226190D02*
X149345238Y-68226190D01*
X149488095Y-68226190D02*
X149488095Y-67726190D01*
X149440476Y-67797619D01*
X149392857Y-67845238D01*
X149345238Y-67869048D01*
X148845239Y-72226190D02*
X149154762Y-72226190D01*
X148988096Y-72416667D01*
X149059524Y-72416667D01*
X149107143Y-72440476D01*
X149130953Y-72464286D01*
X149154762Y-72511905D01*
X149154762Y-72630952D01*
X149130953Y-72678571D01*
X149107143Y-72702381D01*
X149059524Y-72726190D01*
X148916667Y-72726190D01*
X148869048Y-72702381D01*
X148845239Y-72678571D01*
X149392857Y-72726190D02*
X149488095Y-72726190D01*
X149535714Y-72702381D01*
X149559524Y-72678571D01*
X149607143Y-72607143D01*
X149630952Y-72511905D01*
X149630952Y-72321429D01*
X149607143Y-72273810D01*
X149583333Y-72250000D01*
X149535714Y-72226190D01*
X149440476Y-72226190D01*
X149392857Y-72250000D01*
X149369048Y-72273810D01*
X149345238Y-72321429D01*
X149345238Y-72440476D01*
X149369048Y-72488095D01*
X149392857Y-72511905D01*
X149440476Y-72535714D01*
X149535714Y-72535714D01*
X149583333Y-72511905D01*
X149607143Y-72488095D01*
X149630952Y-72440476D01*
X149107143Y-70142857D02*
X149107143Y-70476190D01*
X148988096Y-69952381D02*
X148869048Y-70309524D01*
X149178572Y-70309524D01*
X149464286Y-69976190D02*
X149511905Y-69976190D01*
X149559524Y-70000000D01*
X149583333Y-70023810D01*
X149607143Y-70071429D01*
X149630952Y-70166667D01*
X149630952Y-70285714D01*
X149607143Y-70380952D01*
X149583333Y-70428571D01*
X149559524Y-70452381D01*
X149511905Y-70476190D01*
X149464286Y-70476190D01*
X149416667Y-70452381D01*
X149392857Y-70428571D01*
X149369048Y-70380952D01*
X149345238Y-70285714D01*
X149345238Y-70166667D01*
X149369048Y-70071429D01*
X149392857Y-70023810D01*
X149416667Y-70000000D01*
X149464286Y-69976190D01*
X148845239Y-74476190D02*
X149154762Y-74476190D01*
X148988096Y-74666667D01*
X149059524Y-74666667D01*
X149107143Y-74690476D01*
X149130953Y-74714286D01*
X149154762Y-74761905D01*
X149154762Y-74880952D01*
X149130953Y-74928571D01*
X149107143Y-74952381D01*
X149059524Y-74976190D01*
X148916667Y-74976190D01*
X148869048Y-74952381D01*
X148845239Y-74928571D01*
X149440476Y-74690476D02*
X149392857Y-74666667D01*
X149369048Y-74642857D01*
X149345238Y-74595238D01*
X149345238Y-74571429D01*
X149369048Y-74523810D01*
X149392857Y-74500000D01*
X149440476Y-74476190D01*
X149535714Y-74476190D01*
X149583333Y-74500000D01*
X149607143Y-74523810D01*
X149630952Y-74571429D01*
X149630952Y-74595238D01*
X149607143Y-74642857D01*
X149583333Y-74666667D01*
X149535714Y-74690476D01*
X149440476Y-74690476D01*
X149392857Y-74714286D01*
X149369048Y-74738095D01*
X149345238Y-74785714D01*
X149345238Y-74880952D01*
X149369048Y-74928571D01*
X149392857Y-74952381D01*
X149440476Y-74976190D01*
X149535714Y-74976190D01*
X149583333Y-74952381D01*
X149607143Y-74928571D01*
X149630952Y-74880952D01*
X149630952Y-74785714D01*
X149607143Y-74738095D01*
X149583333Y-74714286D01*
X149535714Y-74690476D01*
X148845239Y-83476190D02*
X149154762Y-83476190D01*
X148988096Y-83666667D01*
X149059524Y-83666667D01*
X149107143Y-83690476D01*
X149130953Y-83714286D01*
X149154762Y-83761905D01*
X149154762Y-83880952D01*
X149130953Y-83928571D01*
X149107143Y-83952381D01*
X149059524Y-83976190D01*
X148916667Y-83976190D01*
X148869048Y-83952381D01*
X148845239Y-83928571D01*
X149583333Y-83642857D02*
X149583333Y-83976190D01*
X149464286Y-83452381D02*
X149345238Y-83809524D01*
X149654762Y-83809524D01*
X148845239Y-81226190D02*
X149154762Y-81226190D01*
X148988096Y-81416667D01*
X149059524Y-81416667D01*
X149107143Y-81440476D01*
X149130953Y-81464286D01*
X149154762Y-81511905D01*
X149154762Y-81630952D01*
X149130953Y-81678571D01*
X149107143Y-81702381D01*
X149059524Y-81726190D01*
X148916667Y-81726190D01*
X148869048Y-81702381D01*
X148845239Y-81678571D01*
X149607143Y-81226190D02*
X149369048Y-81226190D01*
X149345238Y-81464286D01*
X149369048Y-81440476D01*
X149416667Y-81416667D01*
X149535714Y-81416667D01*
X149583333Y-81440476D01*
X149607143Y-81464286D01*
X149630952Y-81511905D01*
X149630952Y-81630952D01*
X149607143Y-81678571D01*
X149583333Y-81702381D01*
X149535714Y-81726190D01*
X149416667Y-81726190D01*
X149369048Y-81702381D01*
X149345238Y-81678571D01*
X148845239Y-78976190D02*
X149154762Y-78976190D01*
X148988096Y-79166667D01*
X149059524Y-79166667D01*
X149107143Y-79190476D01*
X149130953Y-79214286D01*
X149154762Y-79261905D01*
X149154762Y-79380952D01*
X149130953Y-79428571D01*
X149107143Y-79452381D01*
X149059524Y-79476190D01*
X148916667Y-79476190D01*
X148869048Y-79452381D01*
X148845239Y-79428571D01*
X149583333Y-78976190D02*
X149488095Y-78976190D01*
X149440476Y-79000000D01*
X149416667Y-79023810D01*
X149369048Y-79095238D01*
X149345238Y-79190476D01*
X149345238Y-79380952D01*
X149369048Y-79428571D01*
X149392857Y-79452381D01*
X149440476Y-79476190D01*
X149535714Y-79476190D01*
X149583333Y-79452381D01*
X149607143Y-79428571D01*
X149630952Y-79380952D01*
X149630952Y-79261905D01*
X149607143Y-79214286D01*
X149583333Y-79190476D01*
X149535714Y-79166667D01*
X149440476Y-79166667D01*
X149392857Y-79190476D01*
X149369048Y-79214286D01*
X149345238Y-79261905D01*
X148845239Y-76726190D02*
X149154762Y-76726190D01*
X148988096Y-76916667D01*
X149059524Y-76916667D01*
X149107143Y-76940476D01*
X149130953Y-76964286D01*
X149154762Y-77011905D01*
X149154762Y-77130952D01*
X149130953Y-77178571D01*
X149107143Y-77202381D01*
X149059524Y-77226190D01*
X148916667Y-77226190D01*
X148869048Y-77202381D01*
X148845239Y-77178571D01*
X149321429Y-76726190D02*
X149654762Y-76726190D01*
X149440476Y-77226190D01*
X146095239Y-91976190D02*
X146404762Y-91976190D01*
X146238096Y-92166667D01*
X146309524Y-92166667D01*
X146357143Y-92190476D01*
X146380953Y-92214286D01*
X146404762Y-92261905D01*
X146404762Y-92380952D01*
X146380953Y-92428571D01*
X146357143Y-92452381D01*
X146309524Y-92476190D01*
X146166667Y-92476190D01*
X146119048Y-92452381D01*
X146095239Y-92428571D01*
X146880952Y-92476190D02*
X146595238Y-92476190D01*
X146738095Y-92476190D02*
X146738095Y-91976190D01*
X146690476Y-92047619D01*
X146642857Y-92095238D01*
X146595238Y-92119048D01*
X143845239Y-91976190D02*
X144154762Y-91976190D01*
X143988096Y-92166667D01*
X144059524Y-92166667D01*
X144107143Y-92190476D01*
X144130953Y-92214286D01*
X144154762Y-92261905D01*
X144154762Y-92380952D01*
X144130953Y-92428571D01*
X144107143Y-92452381D01*
X144059524Y-92476190D01*
X143916667Y-92476190D01*
X143869048Y-92452381D01*
X143845239Y-92428571D01*
X144464286Y-91976190D02*
X144511905Y-91976190D01*
X144559524Y-92000000D01*
X144583333Y-92023810D01*
X144607143Y-92071429D01*
X144630952Y-92166667D01*
X144630952Y-92285714D01*
X144607143Y-92380952D01*
X144583333Y-92428571D01*
X144559524Y-92452381D01*
X144511905Y-92476190D01*
X144464286Y-92476190D01*
X144416667Y-92452381D01*
X144392857Y-92428571D01*
X144369048Y-92380952D01*
X144345238Y-92285714D01*
X144345238Y-92166667D01*
X144369048Y-92071429D01*
X144392857Y-92023810D01*
X144416667Y-92000000D01*
X144464286Y-91976190D01*
X141619048Y-92023810D02*
X141642858Y-92000000D01*
X141690477Y-91976190D01*
X141809524Y-91976190D01*
X141857143Y-92000000D01*
X141880953Y-92023810D01*
X141904762Y-92071429D01*
X141904762Y-92119048D01*
X141880953Y-92190476D01*
X141595239Y-92476190D01*
X141904762Y-92476190D01*
X142142857Y-92476190D02*
X142238095Y-92476190D01*
X142285714Y-92452381D01*
X142309524Y-92428571D01*
X142357143Y-92357143D01*
X142380952Y-92261905D01*
X142380952Y-92071429D01*
X142357143Y-92023810D01*
X142333333Y-92000000D01*
X142285714Y-91976190D01*
X142190476Y-91976190D01*
X142142857Y-92000000D01*
X142119048Y-92023810D01*
X142095238Y-92071429D01*
X142095238Y-92190476D01*
X142119048Y-92238095D01*
X142142857Y-92261905D01*
X142190476Y-92285714D01*
X142285714Y-92285714D01*
X142333333Y-92261905D01*
X142357143Y-92238095D01*
X142380952Y-92190476D01*
X134869048Y-92023810D02*
X134892858Y-92000000D01*
X134940477Y-91976190D01*
X135059524Y-91976190D01*
X135107143Y-92000000D01*
X135130953Y-92023810D01*
X135154762Y-92071429D01*
X135154762Y-92119048D01*
X135130953Y-92190476D01*
X134845239Y-92476190D01*
X135154762Y-92476190D01*
X135583333Y-91976190D02*
X135488095Y-91976190D01*
X135440476Y-92000000D01*
X135416667Y-92023810D01*
X135369048Y-92095238D01*
X135345238Y-92190476D01*
X135345238Y-92380952D01*
X135369048Y-92428571D01*
X135392857Y-92452381D01*
X135440476Y-92476190D01*
X135535714Y-92476190D01*
X135583333Y-92452381D01*
X135607143Y-92428571D01*
X135630952Y-92380952D01*
X135630952Y-92261905D01*
X135607143Y-92214286D01*
X135583333Y-92190476D01*
X135535714Y-92166667D01*
X135440476Y-92166667D01*
X135392857Y-92190476D01*
X135369048Y-92214286D01*
X135345238Y-92261905D01*
X132619048Y-92023810D02*
X132642858Y-92000000D01*
X132690477Y-91976190D01*
X132809524Y-91976190D01*
X132857143Y-92000000D01*
X132880953Y-92023810D01*
X132904762Y-92071429D01*
X132904762Y-92119048D01*
X132880953Y-92190476D01*
X132595239Y-92476190D01*
X132904762Y-92476190D01*
X133357143Y-91976190D02*
X133119048Y-91976190D01*
X133095238Y-92214286D01*
X133119048Y-92190476D01*
X133166667Y-92166667D01*
X133285714Y-92166667D01*
X133333333Y-92190476D01*
X133357143Y-92214286D01*
X133380952Y-92261905D01*
X133380952Y-92380952D01*
X133357143Y-92428571D01*
X133333333Y-92452381D01*
X133285714Y-92476190D01*
X133166667Y-92476190D01*
X133119048Y-92452381D01*
X133095238Y-92428571D01*
X137119048Y-92023810D02*
X137142858Y-92000000D01*
X137190477Y-91976190D01*
X137309524Y-91976190D01*
X137357143Y-92000000D01*
X137380953Y-92023810D01*
X137404762Y-92071429D01*
X137404762Y-92119048D01*
X137380953Y-92190476D01*
X137095239Y-92476190D01*
X137404762Y-92476190D01*
X137571429Y-91976190D02*
X137904762Y-91976190D01*
X137690476Y-92476190D01*
X128119048Y-92023810D02*
X128142858Y-92000000D01*
X128190477Y-91976190D01*
X128309524Y-91976190D01*
X128357143Y-92000000D01*
X128380953Y-92023810D01*
X128404762Y-92071429D01*
X128404762Y-92119048D01*
X128380953Y-92190476D01*
X128095239Y-92476190D01*
X128404762Y-92476190D01*
X128571429Y-91976190D02*
X128880952Y-91976190D01*
X128714286Y-92166667D01*
X128785714Y-92166667D01*
X128833333Y-92190476D01*
X128857143Y-92214286D01*
X128880952Y-92261905D01*
X128880952Y-92380952D01*
X128857143Y-92428571D01*
X128833333Y-92452381D01*
X128785714Y-92476190D01*
X128642857Y-92476190D01*
X128595238Y-92452381D01*
X128571429Y-92428571D01*
X130369048Y-92023810D02*
X130392858Y-92000000D01*
X130440477Y-91976190D01*
X130559524Y-91976190D01*
X130607143Y-92000000D01*
X130630953Y-92023810D01*
X130654762Y-92071429D01*
X130654762Y-92119048D01*
X130630953Y-92190476D01*
X130345239Y-92476190D01*
X130654762Y-92476190D01*
X131083333Y-92142857D02*
X131083333Y-92476190D01*
X130964286Y-91952381D02*
X130845238Y-92309524D01*
X131154762Y-92309524D01*
X139369048Y-92023810D02*
X139392858Y-92000000D01*
X139440477Y-91976190D01*
X139559524Y-91976190D01*
X139607143Y-92000000D01*
X139630953Y-92023810D01*
X139654762Y-92071429D01*
X139654762Y-92119048D01*
X139630953Y-92190476D01*
X139345239Y-92476190D01*
X139654762Y-92476190D01*
X139940476Y-92190476D02*
X139892857Y-92166667D01*
X139869048Y-92142857D01*
X139845238Y-92095238D01*
X139845238Y-92071429D01*
X139869048Y-92023810D01*
X139892857Y-92000000D01*
X139940476Y-91976190D01*
X140035714Y-91976190D01*
X140083333Y-92000000D01*
X140107143Y-92023810D01*
X140130952Y-92071429D01*
X140130952Y-92095238D01*
X140107143Y-92142857D01*
X140083333Y-92166667D01*
X140035714Y-92190476D01*
X139940476Y-92190476D01*
X139892857Y-92214286D01*
X139869048Y-92238095D01*
X139845238Y-92285714D01*
X139845238Y-92380952D01*
X139869048Y-92428571D01*
X139892857Y-92452381D01*
X139940476Y-92476190D01*
X140035714Y-92476190D01*
X140083333Y-92452381D01*
X140107143Y-92428571D01*
X140130952Y-92380952D01*
X140130952Y-92285714D01*
X140107143Y-92238095D01*
X140083333Y-92214286D01*
X140035714Y-92190476D01*
X121369048Y-92023810D02*
X121392858Y-92000000D01*
X121440477Y-91976190D01*
X121559524Y-91976190D01*
X121607143Y-92000000D01*
X121630953Y-92023810D01*
X121654762Y-92071429D01*
X121654762Y-92119048D01*
X121630953Y-92190476D01*
X121345239Y-92476190D01*
X121654762Y-92476190D01*
X121845238Y-92023810D02*
X121869048Y-92000000D01*
X121916667Y-91976190D01*
X122035714Y-91976190D01*
X122083333Y-92000000D01*
X122107143Y-92023810D01*
X122130952Y-92071429D01*
X122130952Y-92119048D01*
X122107143Y-92190476D01*
X121821429Y-92476190D01*
X122130952Y-92476190D01*
X112654762Y-92476190D02*
X112369048Y-92476190D01*
X112511905Y-92476190D02*
X112511905Y-91976190D01*
X112464286Y-92047619D01*
X112416667Y-92095238D01*
X112369048Y-92119048D01*
X112940476Y-92190476D02*
X112892857Y-92166667D01*
X112869048Y-92142857D01*
X112845238Y-92095238D01*
X112845238Y-92071429D01*
X112869048Y-92023810D01*
X112892857Y-92000000D01*
X112940476Y-91976190D01*
X113035714Y-91976190D01*
X113083333Y-92000000D01*
X113107143Y-92023810D01*
X113130952Y-92071429D01*
X113130952Y-92095238D01*
X113107143Y-92142857D01*
X113083333Y-92166667D01*
X113035714Y-92190476D01*
X112940476Y-92190476D01*
X112892857Y-92214286D01*
X112869048Y-92238095D01*
X112845238Y-92285714D01*
X112845238Y-92380952D01*
X112869048Y-92428571D01*
X112892857Y-92452381D01*
X112940476Y-92476190D01*
X113035714Y-92476190D01*
X113083333Y-92452381D01*
X113107143Y-92428571D01*
X113130952Y-92380952D01*
X113130952Y-92285714D01*
X113107143Y-92238095D01*
X113083333Y-92214286D01*
X113035714Y-92190476D01*
X114904762Y-92476190D02*
X114619048Y-92476190D01*
X114761905Y-92476190D02*
X114761905Y-91976190D01*
X114714286Y-92047619D01*
X114666667Y-92095238D01*
X114619048Y-92119048D01*
X115142857Y-92476190D02*
X115238095Y-92476190D01*
X115285714Y-92452381D01*
X115309524Y-92428571D01*
X115357143Y-92357143D01*
X115380952Y-92261905D01*
X115380952Y-92071429D01*
X115357143Y-92023810D01*
X115333333Y-92000000D01*
X115285714Y-91976190D01*
X115190476Y-91976190D01*
X115142857Y-92000000D01*
X115119048Y-92023810D01*
X115095238Y-92071429D01*
X115095238Y-92190476D01*
X115119048Y-92238095D01*
X115142857Y-92261905D01*
X115190476Y-92285714D01*
X115285714Y-92285714D01*
X115333333Y-92261905D01*
X115357143Y-92238095D01*
X115380952Y-92190476D01*
X116869048Y-92023810D02*
X116892858Y-92000000D01*
X116940477Y-91976190D01*
X117059524Y-91976190D01*
X117107143Y-92000000D01*
X117130953Y-92023810D01*
X117154762Y-92071429D01*
X117154762Y-92119048D01*
X117130953Y-92190476D01*
X116845239Y-92476190D01*
X117154762Y-92476190D01*
X117464286Y-91976190D02*
X117511905Y-91976190D01*
X117559524Y-92000000D01*
X117583333Y-92023810D01*
X117607143Y-92071429D01*
X117630952Y-92166667D01*
X117630952Y-92285714D01*
X117607143Y-92380952D01*
X117583333Y-92428571D01*
X117559524Y-92452381D01*
X117511905Y-92476190D01*
X117464286Y-92476190D01*
X117416667Y-92452381D01*
X117392857Y-92428571D01*
X117369048Y-92380952D01*
X117345238Y-92285714D01*
X117345238Y-92166667D01*
X117369048Y-92071429D01*
X117392857Y-92023810D01*
X117416667Y-92000000D01*
X117464286Y-91976190D01*
X119119048Y-92023810D02*
X119142858Y-92000000D01*
X119190477Y-91976190D01*
X119309524Y-91976190D01*
X119357143Y-92000000D01*
X119380953Y-92023810D01*
X119404762Y-92071429D01*
X119404762Y-92119048D01*
X119380953Y-92190476D01*
X119095239Y-92476190D01*
X119404762Y-92476190D01*
X119880952Y-92476190D02*
X119595238Y-92476190D01*
X119738095Y-92476190D02*
X119738095Y-91976190D01*
X119690476Y-92047619D01*
X119642857Y-92095238D01*
X119595238Y-92119048D01*
X108154762Y-92476190D02*
X107869048Y-92476190D01*
X108011905Y-92476190D02*
X108011905Y-91976190D01*
X107964286Y-92047619D01*
X107916667Y-92095238D01*
X107869048Y-92119048D01*
X108321429Y-91976190D02*
X108654762Y-91976190D01*
X108440476Y-92476190D01*
X105904762Y-92476190D02*
X105619048Y-92476190D01*
X105761905Y-92476190D02*
X105761905Y-91976190D01*
X105714286Y-92047619D01*
X105666667Y-92095238D01*
X105619048Y-92119048D01*
X106333333Y-91976190D02*
X106238095Y-91976190D01*
X106190476Y-92000000D01*
X106166667Y-92023810D01*
X106119048Y-92095238D01*
X106095238Y-92190476D01*
X106095238Y-92380952D01*
X106119048Y-92428571D01*
X106142857Y-92452381D01*
X106190476Y-92476190D01*
X106285714Y-92476190D01*
X106333333Y-92452381D01*
X106357143Y-92428571D01*
X106380952Y-92380952D01*
X106380952Y-92261905D01*
X106357143Y-92214286D01*
X106333333Y-92190476D01*
X106285714Y-92166667D01*
X106190476Y-92166667D01*
X106142857Y-92190476D01*
X106119048Y-92214286D01*
X106095238Y-92261905D01*
X103654762Y-92476190D02*
X103369048Y-92476190D01*
X103511905Y-92476190D02*
X103511905Y-91976190D01*
X103464286Y-92047619D01*
X103416667Y-92095238D01*
X103369048Y-92119048D01*
X104107143Y-91976190D02*
X103869048Y-91976190D01*
X103845238Y-92214286D01*
X103869048Y-92190476D01*
X103916667Y-92166667D01*
X104035714Y-92166667D01*
X104083333Y-92190476D01*
X104107143Y-92214286D01*
X104130952Y-92261905D01*
X104130952Y-92380952D01*
X104107143Y-92428571D01*
X104083333Y-92452381D01*
X104035714Y-92476190D01*
X103916667Y-92476190D01*
X103869048Y-92452381D01*
X103845238Y-92428571D01*
X100654762Y-86226190D02*
X100369048Y-86226190D01*
X100511905Y-86226190D02*
X100511905Y-85726190D01*
X100464286Y-85797619D01*
X100416667Y-85845238D01*
X100369048Y-85869048D01*
X100845238Y-85773810D02*
X100869048Y-85750000D01*
X100916667Y-85726190D01*
X101035714Y-85726190D01*
X101083333Y-85750000D01*
X101107143Y-85773810D01*
X101130952Y-85821429D01*
X101130952Y-85869048D01*
X101107143Y-85940476D01*
X100821429Y-86226190D01*
X101130952Y-86226190D01*
X100654762Y-88476190D02*
X100369048Y-88476190D01*
X100511905Y-88476190D02*
X100511905Y-87976190D01*
X100464286Y-88047619D01*
X100416667Y-88095238D01*
X100369048Y-88119048D01*
X100821429Y-87976190D02*
X101130952Y-87976190D01*
X100964286Y-88166667D01*
X101035714Y-88166667D01*
X101083333Y-88190476D01*
X101107143Y-88214286D01*
X101130952Y-88261905D01*
X101130952Y-88380952D01*
X101107143Y-88428571D01*
X101083333Y-88452381D01*
X101035714Y-88476190D01*
X100892857Y-88476190D01*
X100845238Y-88452381D01*
X100821429Y-88428571D01*
X100654762Y-90726190D02*
X100369048Y-90726190D01*
X100511905Y-90726190D02*
X100511905Y-90226190D01*
X100464286Y-90297619D01*
X100416667Y-90345238D01*
X100369048Y-90369048D01*
X101083333Y-90392857D02*
X101083333Y-90726190D01*
X100964286Y-90202381D02*
X100845238Y-90559524D01*
X101154762Y-90559524D01*
X100583334Y-72226190D02*
X100916667Y-72226190D01*
X100702381Y-72726190D01*
X100702381Y-74690476D02*
X100654762Y-74666667D01*
X100630953Y-74642857D01*
X100607143Y-74595238D01*
X100607143Y-74571429D01*
X100630953Y-74523810D01*
X100654762Y-74500000D01*
X100702381Y-74476190D01*
X100797619Y-74476190D01*
X100845238Y-74500000D01*
X100869048Y-74523810D01*
X100892857Y-74571429D01*
X100892857Y-74595238D01*
X100869048Y-74642857D01*
X100845238Y-74666667D01*
X100797619Y-74690476D01*
X100702381Y-74690476D01*
X100654762Y-74714286D01*
X100630953Y-74738095D01*
X100607143Y-74785714D01*
X100607143Y-74880952D01*
X100630953Y-74928571D01*
X100654762Y-74952381D01*
X100702381Y-74976190D01*
X100797619Y-74976190D01*
X100845238Y-74952381D01*
X100869048Y-74928571D01*
X100892857Y-74880952D01*
X100892857Y-74785714D01*
X100869048Y-74738095D01*
X100845238Y-74714286D01*
X100797619Y-74690476D01*
X100654762Y-77226190D02*
X100750000Y-77226190D01*
X100797619Y-77202381D01*
X100821429Y-77178571D01*
X100869048Y-77107143D01*
X100892857Y-77011905D01*
X100892857Y-76821429D01*
X100869048Y-76773810D01*
X100845238Y-76750000D01*
X100797619Y-76726190D01*
X100702381Y-76726190D01*
X100654762Y-76750000D01*
X100630953Y-76773810D01*
X100607143Y-76821429D01*
X100607143Y-76940476D01*
X100630953Y-76988095D01*
X100654762Y-77011905D01*
X100702381Y-77035714D01*
X100797619Y-77035714D01*
X100845238Y-77011905D01*
X100869048Y-76988095D01*
X100892857Y-76940476D01*
X100654762Y-81726190D02*
X100369048Y-81726190D01*
X100511905Y-81726190D02*
X100511905Y-81226190D01*
X100464286Y-81297619D01*
X100416667Y-81345238D01*
X100369048Y-81369048D01*
X101130952Y-81726190D02*
X100845238Y-81726190D01*
X100988095Y-81726190D02*
X100988095Y-81226190D01*
X100940476Y-81297619D01*
X100892857Y-81345238D01*
X100845238Y-81369048D01*
X100654762Y-79476190D02*
X100369048Y-79476190D01*
X100511905Y-79476190D02*
X100511905Y-78976190D01*
X100464286Y-79047619D01*
X100416667Y-79095238D01*
X100369048Y-79119048D01*
X100964286Y-78976190D02*
X101011905Y-78976190D01*
X101059524Y-79000000D01*
X101083333Y-79023810D01*
X101107143Y-79071429D01*
X101130952Y-79166667D01*
X101130952Y-79285714D01*
X101107143Y-79380952D01*
X101083333Y-79428571D01*
X101059524Y-79452381D01*
X101011905Y-79476190D01*
X100964286Y-79476190D01*
X100916667Y-79452381D01*
X100892857Y-79428571D01*
X100869048Y-79380952D01*
X100845238Y-79285714D01*
X100845238Y-79166667D01*
X100869048Y-79071429D01*
X100892857Y-79023810D01*
X100916667Y-79000000D01*
X100964286Y-78976190D01*
X100845238Y-69976190D02*
X100750000Y-69976190D01*
X100702381Y-70000000D01*
X100678572Y-70023810D01*
X100630953Y-70095238D01*
X100607143Y-70190476D01*
X100607143Y-70380952D01*
X100630953Y-70428571D01*
X100654762Y-70452381D01*
X100702381Y-70476190D01*
X100797619Y-70476190D01*
X100845238Y-70452381D01*
X100869048Y-70428571D01*
X100892857Y-70380952D01*
X100892857Y-70261905D01*
X100869048Y-70214286D01*
X100845238Y-70190476D01*
X100797619Y-70166667D01*
X100702381Y-70166667D01*
X100654762Y-70190476D01*
X100630953Y-70214286D01*
X100607143Y-70261905D01*
X100869048Y-67726190D02*
X100630953Y-67726190D01*
X100607143Y-67964286D01*
X100630953Y-67940476D01*
X100678572Y-67916667D01*
X100797619Y-67916667D01*
X100845238Y-67940476D01*
X100869048Y-67964286D01*
X100892857Y-68011905D01*
X100892857Y-68130952D01*
X100869048Y-68178571D01*
X100845238Y-68202381D01*
X100797619Y-68226190D01*
X100678572Y-68226190D01*
X100630953Y-68202381D01*
X100607143Y-68178571D01*
X100845238Y-65642857D02*
X100845238Y-65976190D01*
X100726191Y-65452381D02*
X100607143Y-65809524D01*
X100916667Y-65809524D01*
X100892857Y-59226190D02*
X100607143Y-59226190D01*
X100750000Y-59226190D02*
X100750000Y-58726190D01*
X100702381Y-58797619D01*
X100654762Y-58845238D01*
X100607143Y-58869048D01*
X100607143Y-61023810D02*
X100630953Y-61000000D01*
X100678572Y-60976190D01*
X100797619Y-60976190D01*
X100845238Y-61000000D01*
X100869048Y-61023810D01*
X100892857Y-61071429D01*
X100892857Y-61119048D01*
X100869048Y-61190476D01*
X100583334Y-61476190D01*
X100892857Y-61476190D01*
X100583334Y-63226190D02*
X100892857Y-63226190D01*
X100726191Y-63416667D01*
X100797619Y-63416667D01*
X100845238Y-63440476D01*
X100869048Y-63464286D01*
X100892857Y-63511905D01*
X100892857Y-63630952D01*
X100869048Y-63678571D01*
X100845238Y-63702381D01*
X100797619Y-63726190D01*
X100654762Y-63726190D01*
X100607143Y-63702381D01*
X100583334Y-63678571D01*
X107345238Y-45476190D02*
X107250000Y-45476190D01*
X107202381Y-45500000D01*
X107178572Y-45523810D01*
X107130953Y-45595238D01*
X107107143Y-45690476D01*
X107107143Y-45880952D01*
X107130953Y-45928571D01*
X107154762Y-45952381D01*
X107202381Y-45976190D01*
X107297619Y-45976190D01*
X107345238Y-45952381D01*
X107369048Y-45928571D01*
X107392857Y-45880952D01*
X107392857Y-45761905D01*
X107369048Y-45714286D01*
X107345238Y-45690476D01*
X107297619Y-45666667D01*
X107202381Y-45666667D01*
X107154762Y-45690476D01*
X107130953Y-45714286D01*
X107107143Y-45761905D01*
X105119048Y-45476190D02*
X104880953Y-45476190D01*
X104857143Y-45714286D01*
X104880953Y-45690476D01*
X104928572Y-45666667D01*
X105047619Y-45666667D01*
X105095238Y-45690476D01*
X105119048Y-45714286D01*
X105142857Y-45761905D01*
X105142857Y-45880952D01*
X105119048Y-45928571D01*
X105095238Y-45952381D01*
X105047619Y-45976190D01*
X104928572Y-45976190D01*
X104880953Y-45952381D01*
X104857143Y-45928571D01*
X102845238Y-45642857D02*
X102845238Y-45976190D01*
X102726191Y-45452381D02*
X102607143Y-45809524D01*
X102916667Y-45809524D01*
X100583334Y-51976190D02*
X100892857Y-51976190D01*
X100726191Y-52166667D01*
X100797619Y-52166667D01*
X100845238Y-52190476D01*
X100869048Y-52214286D01*
X100892857Y-52261905D01*
X100892857Y-52380952D01*
X100869048Y-52428571D01*
X100845238Y-52452381D01*
X100797619Y-52476190D01*
X100654762Y-52476190D01*
X100607143Y-52452381D01*
X100583334Y-52428571D01*
X100607143Y-49773810D02*
X100630953Y-49750000D01*
X100678572Y-49726190D01*
X100797619Y-49726190D01*
X100845238Y-49750000D01*
X100869048Y-49773810D01*
X100892857Y-49821429D01*
X100892857Y-49869048D01*
X100869048Y-49940476D01*
X100583334Y-50226190D01*
X100892857Y-50226190D01*
X100892857Y-47976190D02*
X100607143Y-47976190D01*
X100750000Y-47976190D02*
X100750000Y-47476190D01*
X100702381Y-47547619D01*
X100654762Y-47595238D01*
X100607143Y-47619048D01*
D12*
X114214287Y-53678571D02*
X114214287Y-52178571D01*
X114928573Y-53678571D02*
X114928573Y-52178571D01*
X115500001Y-52178571D01*
X115642859Y-52250000D01*
X115714287Y-52321429D01*
X115785716Y-52464286D01*
X115785716Y-52678571D01*
X115714287Y-52821429D01*
X115642859Y-52892857D01*
X115500001Y-52964286D01*
X114928573Y-52964286D01*
X117071430Y-52678571D02*
X117071430Y-53678571D01*
X116714287Y-52107143D02*
X116357144Y-53178571D01*
X117285716Y-53178571D01*
X117785715Y-52321429D02*
X117857144Y-52250000D01*
X118000001Y-52178571D01*
X118357144Y-52178571D01*
X118500001Y-52250000D01*
X118571430Y-52321429D01*
X118642858Y-52464286D01*
X118642858Y-52607143D01*
X118571430Y-52821429D01*
X117714287Y-53678571D01*
X118642858Y-53678571D01*
X119142858Y-52178571D02*
X120071429Y-52178571D01*
X119571429Y-52750000D01*
X119785715Y-52750000D01*
X119928572Y-52821429D01*
X120000001Y-52892857D01*
X120071429Y-53035714D01*
X120071429Y-53392857D01*
X120000001Y-53535714D01*
X119928572Y-53607143D01*
X119785715Y-53678571D01*
X119357143Y-53678571D01*
X119214286Y-53607143D01*
X119142858Y-53535714D01*
X121357143Y-52678571D02*
X121357143Y-53678571D01*
X121000000Y-52107143D02*
X120642857Y-53178571D01*
X121571429Y-53178571D01*
X123000000Y-53535714D02*
X122928571Y-53607143D01*
X122714285Y-53678571D01*
X122571428Y-53678571D01*
X122357143Y-53607143D01*
X122214285Y-53464286D01*
X122142857Y-53321429D01*
X122071428Y-53035714D01*
X122071428Y-52821429D01*
X122142857Y-52535714D01*
X122214285Y-52392857D01*
X122357143Y-52250000D01*
X122571428Y-52178571D01*
X122714285Y-52178571D01*
X122928571Y-52250000D01*
X123000000Y-52321429D01*
X123500000Y-52178571D02*
X124500000Y-52178571D01*
X123500000Y-53678571D01*
X124500000Y-53678571D01*
X125714285Y-52178571D02*
X125428571Y-52178571D01*
X125285714Y-52250000D01*
X125214285Y-52321429D01*
X125071428Y-52535714D01*
X124999999Y-52821429D01*
X124999999Y-53392857D01*
X125071428Y-53535714D01*
X125142856Y-53607143D01*
X125285714Y-53678571D01*
X125571428Y-53678571D01*
X125714285Y-53607143D01*
X125785714Y-53535714D01*
X125857142Y-53392857D01*
X125857142Y-53035714D01*
X125785714Y-52892857D01*
X125714285Y-52821429D01*
X125571428Y-52750000D01*
X125285714Y-52750000D01*
X125142856Y-52821429D01*
X125071428Y-52892857D01*
X124999999Y-53035714D01*
D13*
X108220178Y-52413194D02*
X109250178Y-51353194D01*
X112090178Y-51343194D02*
X109260178Y-51343194D01*
X108200178Y-52433194D02*
X108200000Y-54750000D01*
X108200000Y-54750000D02*
X112100000Y-54750000D01*
X112100000Y-54750000D02*
X112090178Y-51343194D01*
X130670000Y-69011445D02*
X130192703Y-69488742D01*
X137988555Y-76330000D02*
X137511258Y-76807297D01*
X130670000Y-83648555D02*
X131147297Y-83171258D01*
X123351445Y-76330000D02*
X123828742Y-75852703D01*
X130670000Y-69011445D02*
X131147297Y-69488742D01*
X123351445Y-76330000D02*
X123828742Y-76807297D01*
X130670000Y-83648555D02*
X130192703Y-83171258D01*
X137988555Y-76330000D02*
X137511258Y-75852703D01*
X130192703Y-69488742D02*
X129291142Y-68587181D01*
X108550001Y-50692857D02*
X108150001Y-50121429D01*
X107864286Y-50692857D02*
X107864286Y-49492857D01*
X108321429Y-49492857D01*
X108435715Y-49550000D01*
X108492858Y-49607143D01*
X108550001Y-49721429D01*
X108550001Y-49892857D01*
X108492858Y-50007143D01*
X108435715Y-50064286D01*
X108321429Y-50121429D01*
X107864286Y-50121429D01*
X109064286Y-50064286D02*
X109464286Y-50064286D01*
X109635715Y-50692857D02*
X109064286Y-50692857D01*
X109064286Y-49492857D01*
X109635715Y-49492857D01*
X110550000Y-50064286D02*
X110150000Y-50064286D01*
X110150000Y-50692857D02*
X110150000Y-49492857D01*
X110721429Y-49492857D01*
X111350000Y-49492857D02*
X111350000Y-49778571D01*
X111064286Y-49664286D02*
X111350000Y-49778571D01*
X111635714Y-49664286D01*
X111178571Y-50007143D02*
X111350000Y-49778571D01*
X111521428Y-50007143D01*
X112264286Y-49492857D02*
X112264286Y-49778571D01*
X111978572Y-49664286D02*
X112264286Y-49778571D01*
X112550000Y-49664286D01*
X112092857Y-50007143D02*
X112264286Y-49778571D01*
X112435714Y-50007143D01*
X134675256Y-70439127D02*
X134776271Y-69866706D01*
X134271194Y-70035066D02*
X134978301Y-69327959D01*
X135247675Y-69597333D01*
X135281347Y-69698348D01*
X135281347Y-69765692D01*
X135247675Y-69866707D01*
X135146660Y-69967722D01*
X135045645Y-70001394D01*
X134978302Y-70001394D01*
X134877287Y-69967722D01*
X134607912Y-69698348D01*
X135348691Y-70371783D02*
X135584393Y-70607485D01*
X135315019Y-71078890D02*
X134978301Y-70742172D01*
X135685408Y-70035066D01*
X136022126Y-70371783D01*
X136224157Y-71247249D02*
X135988454Y-71011546D01*
X135618064Y-71381936D02*
X136325171Y-70674829D01*
X136661889Y-71011547D01*
X137032278Y-71381936D02*
X136863919Y-71550294D01*
X136762904Y-71314592D02*
X136863919Y-71550294D01*
X137099622Y-71651310D01*
X136628217Y-71583966D02*
X136863919Y-71550294D01*
X136830248Y-71785997D01*
X137571026Y-71920684D02*
X137402667Y-72089042D01*
X137301652Y-71853340D02*
X137402667Y-72089042D01*
X137638370Y-72190058D01*
X137166965Y-72122714D02*
X137402667Y-72089042D01*
X137368996Y-72324745D01*
M02*
