G04 #@! TF.FileFunction,Paste,Top*
%FSLAX46Y46*%
G04 Gerber Fmt 4.6, Leading zero omitted, Abs format (unit mm)*
G04 Created by KiCad (PCBNEW 4.0.1-stable) date Friday, September 23, 2016 'AMt' 01:17:15 AM*
%MOMM*%
G01*
G04 APERTURE LIST*
%ADD10C,0.100000*%
%ADD11R,0.600000X0.500000*%
G04 APERTURE END LIST*
D10*
D11*
X111300000Y-52100000D03*
X109000000Y-52100000D03*
X111300000Y-53050000D03*
X109000000Y-53050000D03*
X111300000Y-54000000D03*
X109000000Y-54000000D03*
D10*
G36*
X128743134Y-69135188D02*
X129132042Y-68746280D01*
X130192702Y-69806940D01*
X129803794Y-70195848D01*
X128743134Y-69135188D01*
X128743134Y-69135188D01*
G37*
G36*
X128177449Y-69700874D02*
X128566357Y-69311966D01*
X129627017Y-70372626D01*
X129238109Y-70761534D01*
X128177449Y-69700874D01*
X128177449Y-69700874D01*
G37*
G36*
X127611764Y-70266559D02*
X128000672Y-69877651D01*
X129061332Y-70938311D01*
X128672424Y-71327219D01*
X127611764Y-70266559D01*
X127611764Y-70266559D01*
G37*
G36*
X127046078Y-70832244D02*
X127434986Y-70443336D01*
X128495646Y-71503996D01*
X128106738Y-71892904D01*
X127046078Y-70832244D01*
X127046078Y-70832244D01*
G37*
G36*
X126480393Y-71397930D02*
X126869301Y-71009022D01*
X127929961Y-72069682D01*
X127541053Y-72458590D01*
X126480393Y-71397930D01*
X126480393Y-71397930D01*
G37*
G36*
X125914707Y-71963615D02*
X126303615Y-71574707D01*
X127364275Y-72635367D01*
X126975367Y-73024275D01*
X125914707Y-71963615D01*
X125914707Y-71963615D01*
G37*
G36*
X125349022Y-72529301D02*
X125737930Y-72140393D01*
X126798590Y-73201053D01*
X126409682Y-73589961D01*
X125349022Y-72529301D01*
X125349022Y-72529301D01*
G37*
G36*
X124783336Y-73094986D02*
X125172244Y-72706078D01*
X126232904Y-73766738D01*
X125843996Y-74155646D01*
X124783336Y-73094986D01*
X124783336Y-73094986D01*
G37*
G36*
X124217651Y-73660672D02*
X124606559Y-73271764D01*
X125667219Y-74332424D01*
X125278311Y-74721332D01*
X124217651Y-73660672D01*
X124217651Y-73660672D01*
G37*
G36*
X123651966Y-74226357D02*
X124040874Y-73837449D01*
X125101534Y-74898109D01*
X124712626Y-75287017D01*
X123651966Y-74226357D01*
X123651966Y-74226357D01*
G37*
G36*
X123086280Y-74792042D02*
X123475188Y-74403134D01*
X124535848Y-75463794D01*
X124146940Y-75852702D01*
X123086280Y-74792042D01*
X123086280Y-74792042D01*
G37*
G36*
X123475188Y-78256866D02*
X123086280Y-77867958D01*
X124146940Y-76807298D01*
X124535848Y-77196206D01*
X123475188Y-78256866D01*
X123475188Y-78256866D01*
G37*
G36*
X124040874Y-78822551D02*
X123651966Y-78433643D01*
X124712626Y-77372983D01*
X125101534Y-77761891D01*
X124040874Y-78822551D01*
X124040874Y-78822551D01*
G37*
G36*
X124606559Y-79388236D02*
X124217651Y-78999328D01*
X125278311Y-77938668D01*
X125667219Y-78327576D01*
X124606559Y-79388236D01*
X124606559Y-79388236D01*
G37*
G36*
X125172244Y-79953922D02*
X124783336Y-79565014D01*
X125843996Y-78504354D01*
X126232904Y-78893262D01*
X125172244Y-79953922D01*
X125172244Y-79953922D01*
G37*
G36*
X125737930Y-80519607D02*
X125349022Y-80130699D01*
X126409682Y-79070039D01*
X126798590Y-79458947D01*
X125737930Y-80519607D01*
X125737930Y-80519607D01*
G37*
G36*
X126303615Y-81085293D02*
X125914707Y-80696385D01*
X126975367Y-79635725D01*
X127364275Y-80024633D01*
X126303615Y-81085293D01*
X126303615Y-81085293D01*
G37*
G36*
X126869301Y-81650978D02*
X126480393Y-81262070D01*
X127541053Y-80201410D01*
X127929961Y-80590318D01*
X126869301Y-81650978D01*
X126869301Y-81650978D01*
G37*
G36*
X127434986Y-82216664D02*
X127046078Y-81827756D01*
X128106738Y-80767096D01*
X128495646Y-81156004D01*
X127434986Y-82216664D01*
X127434986Y-82216664D01*
G37*
G36*
X128000672Y-82782349D02*
X127611764Y-82393441D01*
X128672424Y-81332781D01*
X129061332Y-81721689D01*
X128000672Y-82782349D01*
X128000672Y-82782349D01*
G37*
G36*
X128566357Y-83348034D02*
X128177449Y-82959126D01*
X129238109Y-81898466D01*
X129627017Y-82287374D01*
X128566357Y-83348034D01*
X128566357Y-83348034D01*
G37*
G36*
X129132042Y-83913720D02*
X128743134Y-83524812D01*
X129803794Y-82464152D01*
X130192702Y-82853060D01*
X129132042Y-83913720D01*
X129132042Y-83913720D01*
G37*
G36*
X131147298Y-82853060D02*
X131536206Y-82464152D01*
X132596866Y-83524812D01*
X132207958Y-83913720D01*
X131147298Y-82853060D01*
X131147298Y-82853060D01*
G37*
G36*
X131712983Y-82287374D02*
X132101891Y-81898466D01*
X133162551Y-82959126D01*
X132773643Y-83348034D01*
X131712983Y-82287374D01*
X131712983Y-82287374D01*
G37*
G36*
X132278668Y-81721689D02*
X132667576Y-81332781D01*
X133728236Y-82393441D01*
X133339328Y-82782349D01*
X132278668Y-81721689D01*
X132278668Y-81721689D01*
G37*
G36*
X132844354Y-81156004D02*
X133233262Y-80767096D01*
X134293922Y-81827756D01*
X133905014Y-82216664D01*
X132844354Y-81156004D01*
X132844354Y-81156004D01*
G37*
G36*
X133410039Y-80590318D02*
X133798947Y-80201410D01*
X134859607Y-81262070D01*
X134470699Y-81650978D01*
X133410039Y-80590318D01*
X133410039Y-80590318D01*
G37*
G36*
X133975725Y-80024633D02*
X134364633Y-79635725D01*
X135425293Y-80696385D01*
X135036385Y-81085293D01*
X133975725Y-80024633D01*
X133975725Y-80024633D01*
G37*
G36*
X134541410Y-79458947D02*
X134930318Y-79070039D01*
X135990978Y-80130699D01*
X135602070Y-80519607D01*
X134541410Y-79458947D01*
X134541410Y-79458947D01*
G37*
G36*
X135107096Y-78893262D02*
X135496004Y-78504354D01*
X136556664Y-79565014D01*
X136167756Y-79953922D01*
X135107096Y-78893262D01*
X135107096Y-78893262D01*
G37*
G36*
X135672781Y-78327576D02*
X136061689Y-77938668D01*
X137122349Y-78999328D01*
X136733441Y-79388236D01*
X135672781Y-78327576D01*
X135672781Y-78327576D01*
G37*
G36*
X136238466Y-77761891D02*
X136627374Y-77372983D01*
X137688034Y-78433643D01*
X137299126Y-78822551D01*
X136238466Y-77761891D01*
X136238466Y-77761891D01*
G37*
G36*
X136804152Y-77196206D02*
X137193060Y-76807298D01*
X138253720Y-77867958D01*
X137864812Y-78256866D01*
X136804152Y-77196206D01*
X136804152Y-77196206D01*
G37*
G36*
X137193060Y-75852702D02*
X136804152Y-75463794D01*
X137864812Y-74403134D01*
X138253720Y-74792042D01*
X137193060Y-75852702D01*
X137193060Y-75852702D01*
G37*
G36*
X136627374Y-75287017D02*
X136238466Y-74898109D01*
X137299126Y-73837449D01*
X137688034Y-74226357D01*
X136627374Y-75287017D01*
X136627374Y-75287017D01*
G37*
G36*
X136061689Y-74721332D02*
X135672781Y-74332424D01*
X136733441Y-73271764D01*
X137122349Y-73660672D01*
X136061689Y-74721332D01*
X136061689Y-74721332D01*
G37*
G36*
X135496004Y-74155646D02*
X135107096Y-73766738D01*
X136167756Y-72706078D01*
X136556664Y-73094986D01*
X135496004Y-74155646D01*
X135496004Y-74155646D01*
G37*
G36*
X134930318Y-73589961D02*
X134541410Y-73201053D01*
X135602070Y-72140393D01*
X135990978Y-72529301D01*
X134930318Y-73589961D01*
X134930318Y-73589961D01*
G37*
G36*
X134364633Y-73024275D02*
X133975725Y-72635367D01*
X135036385Y-71574707D01*
X135425293Y-71963615D01*
X134364633Y-73024275D01*
X134364633Y-73024275D01*
G37*
G36*
X133798947Y-72458590D02*
X133410039Y-72069682D01*
X134470699Y-71009022D01*
X134859607Y-71397930D01*
X133798947Y-72458590D01*
X133798947Y-72458590D01*
G37*
G36*
X133233262Y-71892904D02*
X132844354Y-71503996D01*
X133905014Y-70443336D01*
X134293922Y-70832244D01*
X133233262Y-71892904D01*
X133233262Y-71892904D01*
G37*
G36*
X132667576Y-71327219D02*
X132278668Y-70938311D01*
X133339328Y-69877651D01*
X133728236Y-70266559D01*
X132667576Y-71327219D01*
X132667576Y-71327219D01*
G37*
G36*
X132101891Y-70761534D02*
X131712983Y-70372626D01*
X132773643Y-69311966D01*
X133162551Y-69700874D01*
X132101891Y-70761534D01*
X132101891Y-70761534D01*
G37*
G36*
X131536206Y-70195848D02*
X131147298Y-69806940D01*
X132207958Y-68746280D01*
X132596866Y-69135188D01*
X131536206Y-70195848D01*
X131536206Y-70195848D01*
G37*
M02*
