G04 #@! TF.FileFunction,Copper,L1,Top,Signal*
%FSLAX46Y46*%
G04 Gerber Fmt 4.6, Leading zero omitted, Abs format (unit mm)*
G04 Created by KiCad (PCBNEW 4.0.1-stable) date Friday, September 23, 2016 'AMt' 01:17:15 AM*
%MOMM*%
G01*
G04 APERTURE LIST*
%ADD10C,0.100000*%
%ADD11R,0.600000X0.500000*%
%ADD12C,0.600000*%
%ADD13C,1.700000*%
%ADD14C,0.250000*%
%ADD15C,0.254000*%
G04 APERTURE END LIST*
D10*
D11*
X111300000Y-52100000D03*
X109000000Y-52100000D03*
X111300000Y-53050000D03*
X109000000Y-53050000D03*
X111300000Y-54000000D03*
X109000000Y-54000000D03*
D10*
G36*
X128743134Y-69135188D02*
X129132042Y-68746280D01*
X130192702Y-69806940D01*
X129803794Y-70195848D01*
X128743134Y-69135188D01*
X128743134Y-69135188D01*
G37*
G36*
X128177449Y-69700874D02*
X128566357Y-69311966D01*
X129627017Y-70372626D01*
X129238109Y-70761534D01*
X128177449Y-69700874D01*
X128177449Y-69700874D01*
G37*
G36*
X127611764Y-70266559D02*
X128000672Y-69877651D01*
X129061332Y-70938311D01*
X128672424Y-71327219D01*
X127611764Y-70266559D01*
X127611764Y-70266559D01*
G37*
G36*
X127046078Y-70832244D02*
X127434986Y-70443336D01*
X128495646Y-71503996D01*
X128106738Y-71892904D01*
X127046078Y-70832244D01*
X127046078Y-70832244D01*
G37*
G36*
X126480393Y-71397930D02*
X126869301Y-71009022D01*
X127929961Y-72069682D01*
X127541053Y-72458590D01*
X126480393Y-71397930D01*
X126480393Y-71397930D01*
G37*
G36*
X125914707Y-71963615D02*
X126303615Y-71574707D01*
X127364275Y-72635367D01*
X126975367Y-73024275D01*
X125914707Y-71963615D01*
X125914707Y-71963615D01*
G37*
G36*
X125349022Y-72529301D02*
X125737930Y-72140393D01*
X126798590Y-73201053D01*
X126409682Y-73589961D01*
X125349022Y-72529301D01*
X125349022Y-72529301D01*
G37*
G36*
X124783336Y-73094986D02*
X125172244Y-72706078D01*
X126232904Y-73766738D01*
X125843996Y-74155646D01*
X124783336Y-73094986D01*
X124783336Y-73094986D01*
G37*
G36*
X124217651Y-73660672D02*
X124606559Y-73271764D01*
X125667219Y-74332424D01*
X125278311Y-74721332D01*
X124217651Y-73660672D01*
X124217651Y-73660672D01*
G37*
G36*
X123651966Y-74226357D02*
X124040874Y-73837449D01*
X125101534Y-74898109D01*
X124712626Y-75287017D01*
X123651966Y-74226357D01*
X123651966Y-74226357D01*
G37*
G36*
X123086280Y-74792042D02*
X123475188Y-74403134D01*
X124535848Y-75463794D01*
X124146940Y-75852702D01*
X123086280Y-74792042D01*
X123086280Y-74792042D01*
G37*
G36*
X123475188Y-78256866D02*
X123086280Y-77867958D01*
X124146940Y-76807298D01*
X124535848Y-77196206D01*
X123475188Y-78256866D01*
X123475188Y-78256866D01*
G37*
G36*
X124040874Y-78822551D02*
X123651966Y-78433643D01*
X124712626Y-77372983D01*
X125101534Y-77761891D01*
X124040874Y-78822551D01*
X124040874Y-78822551D01*
G37*
G36*
X124606559Y-79388236D02*
X124217651Y-78999328D01*
X125278311Y-77938668D01*
X125667219Y-78327576D01*
X124606559Y-79388236D01*
X124606559Y-79388236D01*
G37*
G36*
X125172244Y-79953922D02*
X124783336Y-79565014D01*
X125843996Y-78504354D01*
X126232904Y-78893262D01*
X125172244Y-79953922D01*
X125172244Y-79953922D01*
G37*
G36*
X125737930Y-80519607D02*
X125349022Y-80130699D01*
X126409682Y-79070039D01*
X126798590Y-79458947D01*
X125737930Y-80519607D01*
X125737930Y-80519607D01*
G37*
G36*
X126303615Y-81085293D02*
X125914707Y-80696385D01*
X126975367Y-79635725D01*
X127364275Y-80024633D01*
X126303615Y-81085293D01*
X126303615Y-81085293D01*
G37*
G36*
X126869301Y-81650978D02*
X126480393Y-81262070D01*
X127541053Y-80201410D01*
X127929961Y-80590318D01*
X126869301Y-81650978D01*
X126869301Y-81650978D01*
G37*
G36*
X127434986Y-82216664D02*
X127046078Y-81827756D01*
X128106738Y-80767096D01*
X128495646Y-81156004D01*
X127434986Y-82216664D01*
X127434986Y-82216664D01*
G37*
G36*
X128000672Y-82782349D02*
X127611764Y-82393441D01*
X128672424Y-81332781D01*
X129061332Y-81721689D01*
X128000672Y-82782349D01*
X128000672Y-82782349D01*
G37*
G36*
X128566357Y-83348034D02*
X128177449Y-82959126D01*
X129238109Y-81898466D01*
X129627017Y-82287374D01*
X128566357Y-83348034D01*
X128566357Y-83348034D01*
G37*
G36*
X129132042Y-83913720D02*
X128743134Y-83524812D01*
X129803794Y-82464152D01*
X130192702Y-82853060D01*
X129132042Y-83913720D01*
X129132042Y-83913720D01*
G37*
G36*
X131147298Y-82853060D02*
X131536206Y-82464152D01*
X132596866Y-83524812D01*
X132207958Y-83913720D01*
X131147298Y-82853060D01*
X131147298Y-82853060D01*
G37*
G36*
X131712983Y-82287374D02*
X132101891Y-81898466D01*
X133162551Y-82959126D01*
X132773643Y-83348034D01*
X131712983Y-82287374D01*
X131712983Y-82287374D01*
G37*
G36*
X132278668Y-81721689D02*
X132667576Y-81332781D01*
X133728236Y-82393441D01*
X133339328Y-82782349D01*
X132278668Y-81721689D01*
X132278668Y-81721689D01*
G37*
G36*
X132844354Y-81156004D02*
X133233262Y-80767096D01*
X134293922Y-81827756D01*
X133905014Y-82216664D01*
X132844354Y-81156004D01*
X132844354Y-81156004D01*
G37*
G36*
X133410039Y-80590318D02*
X133798947Y-80201410D01*
X134859607Y-81262070D01*
X134470699Y-81650978D01*
X133410039Y-80590318D01*
X133410039Y-80590318D01*
G37*
G36*
X133975725Y-80024633D02*
X134364633Y-79635725D01*
X135425293Y-80696385D01*
X135036385Y-81085293D01*
X133975725Y-80024633D01*
X133975725Y-80024633D01*
G37*
G36*
X134541410Y-79458947D02*
X134930318Y-79070039D01*
X135990978Y-80130699D01*
X135602070Y-80519607D01*
X134541410Y-79458947D01*
X134541410Y-79458947D01*
G37*
G36*
X135107096Y-78893262D02*
X135496004Y-78504354D01*
X136556664Y-79565014D01*
X136167756Y-79953922D01*
X135107096Y-78893262D01*
X135107096Y-78893262D01*
G37*
G36*
X135672781Y-78327576D02*
X136061689Y-77938668D01*
X137122349Y-78999328D01*
X136733441Y-79388236D01*
X135672781Y-78327576D01*
X135672781Y-78327576D01*
G37*
G36*
X136238466Y-77761891D02*
X136627374Y-77372983D01*
X137688034Y-78433643D01*
X137299126Y-78822551D01*
X136238466Y-77761891D01*
X136238466Y-77761891D01*
G37*
G36*
X136804152Y-77196206D02*
X137193060Y-76807298D01*
X138253720Y-77867958D01*
X137864812Y-78256866D01*
X136804152Y-77196206D01*
X136804152Y-77196206D01*
G37*
G36*
X137193060Y-75852702D02*
X136804152Y-75463794D01*
X137864812Y-74403134D01*
X138253720Y-74792042D01*
X137193060Y-75852702D01*
X137193060Y-75852702D01*
G37*
G36*
X136627374Y-75287017D02*
X136238466Y-74898109D01*
X137299126Y-73837449D01*
X137688034Y-74226357D01*
X136627374Y-75287017D01*
X136627374Y-75287017D01*
G37*
G36*
X136061689Y-74721332D02*
X135672781Y-74332424D01*
X136733441Y-73271764D01*
X137122349Y-73660672D01*
X136061689Y-74721332D01*
X136061689Y-74721332D01*
G37*
G36*
X135496004Y-74155646D02*
X135107096Y-73766738D01*
X136167756Y-72706078D01*
X136556664Y-73094986D01*
X135496004Y-74155646D01*
X135496004Y-74155646D01*
G37*
G36*
X134930318Y-73589961D02*
X134541410Y-73201053D01*
X135602070Y-72140393D01*
X135990978Y-72529301D01*
X134930318Y-73589961D01*
X134930318Y-73589961D01*
G37*
G36*
X134364633Y-73024275D02*
X133975725Y-72635367D01*
X135036385Y-71574707D01*
X135425293Y-71963615D01*
X134364633Y-73024275D01*
X134364633Y-73024275D01*
G37*
G36*
X133798947Y-72458590D02*
X133410039Y-72069682D01*
X134470699Y-71009022D01*
X134859607Y-71397930D01*
X133798947Y-72458590D01*
X133798947Y-72458590D01*
G37*
G36*
X133233262Y-71892904D02*
X132844354Y-71503996D01*
X133905014Y-70443336D01*
X134293922Y-70832244D01*
X133233262Y-71892904D01*
X133233262Y-71892904D01*
G37*
G36*
X132667576Y-71327219D02*
X132278668Y-70938311D01*
X133339328Y-69877651D01*
X133728236Y-70266559D01*
X132667576Y-71327219D01*
X132667576Y-71327219D01*
G37*
G36*
X132101891Y-70761534D02*
X131712983Y-70372626D01*
X132773643Y-69311966D01*
X133162551Y-69700874D01*
X132101891Y-70761534D01*
X132101891Y-70761534D01*
G37*
G36*
X131536206Y-70195848D02*
X131147298Y-69806940D01*
X132207958Y-68746280D01*
X132596866Y-69135188D01*
X131536206Y-70195848D01*
X131536206Y-70195848D01*
G37*
D12*
X126250000Y-49250000D03*
X126250000Y-49250000D03*
D13*
X121500000Y-46500000D03*
X131500000Y-46500000D03*
D12*
X113050000Y-68253146D03*
X113875000Y-69000000D03*
X114925000Y-69600000D03*
X115900000Y-70200000D03*
X116800000Y-70800000D03*
X117825000Y-71400000D03*
X118850000Y-72000000D03*
X119950000Y-72700000D03*
X120975000Y-73395508D03*
X122000000Y-73961193D03*
X121075000Y-75100000D03*
X134493146Y-66850000D03*
X134449517Y-68025000D03*
X135730887Y-67875000D03*
X135675000Y-69062258D03*
X136800000Y-69068629D03*
X136775000Y-70225000D03*
X139000000Y-70900000D03*
X138200000Y-71800000D03*
X138875000Y-72800000D03*
X139600000Y-73600000D03*
X141125000Y-77375000D03*
X139296854Y-79300000D03*
X138200000Y-79334517D03*
X138175000Y-80440887D03*
X137177742Y-80575000D03*
X137096371Y-81625000D03*
X136090000Y-81750000D03*
X135975000Y-82766371D03*
X134855530Y-82800000D03*
X134724160Y-83800000D03*
X133800000Y-83900000D03*
X131872082Y-85450000D03*
X128875000Y-84725000D03*
X127525000Y-84000483D03*
X126529112Y-83875000D03*
X126275000Y-82997742D03*
X125266370Y-82875000D03*
X125025000Y-81975000D03*
X124150000Y-81725000D03*
X123925000Y-80822258D03*
X123350000Y-80000000D03*
X122750000Y-79100000D03*
X121750000Y-77532082D03*
D13*
X101500000Y-53250000D03*
X146500000Y-93500000D03*
X146500000Y-46500000D03*
X144250000Y-93500000D03*
X144250000Y-46500000D03*
X142000000Y-93500000D03*
X142000000Y-46500000D03*
X139750000Y-93500000D03*
X139750000Y-46500000D03*
X137500000Y-93500000D03*
X137500000Y-46500000D03*
X135250000Y-93500000D03*
X133000000Y-93500000D03*
X130750000Y-93500000D03*
X128500000Y-93500000D03*
X121750000Y-93500000D03*
X119500000Y-93500000D03*
X117250000Y-93500000D03*
X115000000Y-93500000D03*
X112750000Y-93500000D03*
X108250000Y-93500000D03*
X108250000Y-46500000D03*
X106000000Y-93500000D03*
X106000000Y-46500000D03*
X103750000Y-93500000D03*
X103750000Y-46500000D03*
X101500000Y-91500000D03*
X148500000Y-91500000D03*
X148500000Y-89250000D03*
X148500000Y-84750000D03*
X148500000Y-82500000D03*
X148500000Y-80250000D03*
X148500000Y-78000000D03*
X148500000Y-75750000D03*
X148500000Y-73500000D03*
X148500000Y-71250000D03*
X148500000Y-69000000D03*
X148500000Y-66750000D03*
X148500000Y-64500000D03*
X148500000Y-62250000D03*
X101500000Y-89250000D03*
X101500000Y-87000000D03*
X101500000Y-82500000D03*
X101500000Y-80250000D03*
X101500000Y-78000000D03*
X101500000Y-75750000D03*
X101500000Y-73500000D03*
X101500000Y-71250000D03*
X101500000Y-69000000D03*
X101500000Y-66750000D03*
X101500000Y-64500000D03*
X101500000Y-62250000D03*
X101500000Y-60000000D03*
X101500000Y-51000000D03*
X101500000Y-48750000D03*
D14*
X126250000Y-49250000D02*
X127000000Y-50000000D01*
X127000000Y-48500000D02*
X125500000Y-50000000D01*
X126250000Y-49250000D02*
X127000000Y-48500000D01*
X125950001Y-48950001D02*
X125500000Y-48500000D01*
X126250000Y-49250000D02*
X125950001Y-48950001D01*
X132349999Y-47349999D02*
X132750000Y-47750000D01*
X131500000Y-46500000D02*
X132349999Y-47349999D01*
X130650001Y-47349999D02*
X130250000Y-47750000D01*
X131500000Y-46500000D02*
X130650001Y-47349999D01*
X122349999Y-47349999D02*
X122750000Y-47750000D01*
X121500000Y-46500000D02*
X122349999Y-47349999D01*
X120650001Y-47349999D02*
X120250000Y-47750000D01*
X121500000Y-46500000D02*
X120650001Y-47349999D01*
X126250000Y-50250000D02*
X126250000Y-48250000D01*
X126250000Y-49250000D02*
X126250000Y-50250000D01*
X131500000Y-48750000D02*
X131000000Y-49250000D01*
X131000000Y-49250000D02*
X126250000Y-49250000D01*
X131500000Y-46500000D02*
X131500000Y-48750000D01*
X122000000Y-49250000D02*
X126250000Y-49250000D01*
X121500000Y-48750000D02*
X122000000Y-49250000D01*
X121500000Y-46500000D02*
X121500000Y-48750000D01*
X113250000Y-49000000D02*
X110750000Y-49000000D01*
X124000000Y-93500000D02*
X121750000Y-93500000D01*
X136090000Y-81750000D02*
X139090000Y-84750000D01*
X139090000Y-84750000D02*
X139090000Y-92910000D01*
X139090000Y-92910000D02*
X139160000Y-92910000D01*
X139160000Y-92910000D02*
X139750000Y-93500000D01*
X136908629Y-83700000D02*
X136908629Y-92408629D01*
X136908629Y-92408629D02*
X137500000Y-93000000D01*
X137500000Y-93000000D02*
X137500000Y-93500000D01*
X129467918Y-83188936D02*
X128866878Y-83789976D01*
X128866878Y-83789976D02*
X128866878Y-88633122D01*
X128866878Y-88633122D02*
X124000000Y-93500000D01*
X128250000Y-68253146D02*
X113050000Y-68253146D01*
X113050000Y-68253146D02*
X109753146Y-68253146D01*
X127865483Y-69000000D02*
X113875000Y-69000000D01*
X113875000Y-69000000D02*
X108250000Y-69000000D01*
X127334113Y-69600000D02*
X114925000Y-69600000D01*
X114925000Y-69600000D02*
X106600000Y-69600000D01*
X126800000Y-70200000D02*
X115900000Y-70200000D01*
X115900000Y-70200000D02*
X104950000Y-70200000D01*
X126271371Y-70800000D02*
X116800000Y-70800000D01*
X116800000Y-70800000D02*
X103300000Y-70800000D01*
X125700000Y-71400000D02*
X117825000Y-71400000D01*
X117825000Y-71400000D02*
X102800000Y-71400000D01*
X125208629Y-72000000D02*
X118850000Y-72000000D01*
X118850000Y-72000000D02*
X103000000Y-72000000D01*
X124600000Y-72700000D02*
X119950000Y-72700000D01*
X119950000Y-72700000D02*
X104550000Y-72700000D01*
X124341395Y-73395508D02*
X120975000Y-73395508D01*
X120975000Y-73395508D02*
X120095508Y-73395508D01*
X123775710Y-73961193D02*
X122000000Y-73961193D01*
X122000000Y-73961193D02*
X107361193Y-73961193D01*
X123294238Y-75100000D02*
X121075000Y-75100000D01*
X121075000Y-75100000D02*
X108900000Y-75100000D01*
X131872082Y-69471064D02*
X134493146Y-66850000D01*
X134493146Y-66850000D02*
X136243146Y-65100000D01*
X132437767Y-70036750D02*
X134449517Y-68025000D01*
X134449517Y-68025000D02*
X136474517Y-66000000D01*
X133003452Y-70602435D02*
X135730887Y-67875000D01*
X135730887Y-67875000D02*
X136855887Y-66750000D01*
X133569138Y-71168120D02*
X135675000Y-69062258D01*
X135675000Y-69062258D02*
X137237258Y-67500000D01*
X134134823Y-71733806D02*
X136800000Y-69068629D01*
X136800000Y-69068629D02*
X137268629Y-68600000D01*
X134700509Y-72299491D02*
X136775000Y-70225000D01*
X136775000Y-70225000D02*
X137400000Y-69600000D01*
X137300000Y-70900000D02*
X139000000Y-70900000D01*
X139000000Y-70900000D02*
X143650000Y-70900000D01*
X137500000Y-71800000D02*
X138200000Y-71800000D01*
X138200000Y-71800000D02*
X142300000Y-71800000D01*
X137594113Y-72800000D02*
X138875000Y-72800000D01*
X138875000Y-72800000D02*
X141050000Y-72800000D01*
X138877918Y-75127918D02*
X141125000Y-77375000D01*
X141125000Y-77375000D02*
X148500000Y-84750000D01*
X137528936Y-77532082D02*
X139296854Y-79300000D01*
X139296854Y-79300000D02*
X145500000Y-85503146D01*
X136963250Y-78097767D02*
X138200000Y-79334517D01*
X138200000Y-79334517D02*
X144365483Y-85500000D01*
X136397565Y-78663452D02*
X138175000Y-80440887D01*
X138175000Y-80440887D02*
X142600000Y-84865887D01*
X135831880Y-79229138D02*
X137177742Y-80575000D01*
X137177742Y-80575000D02*
X141802742Y-85200000D01*
X135266194Y-79794823D02*
X137096371Y-81625000D01*
X137096371Y-81625000D02*
X140771371Y-85300000D01*
X134700509Y-80360509D02*
X136090000Y-81750000D01*
X134134823Y-80926194D02*
X135975000Y-82766371D01*
X135975000Y-82766371D02*
X136908629Y-83700000D01*
X131872082Y-83188936D02*
X131872082Y-85450000D01*
X131872082Y-85450000D02*
X131872082Y-90127918D01*
X128902233Y-82623250D02*
X127525000Y-84000483D01*
X127525000Y-84000483D02*
X127125483Y-84400000D01*
X126639491Y-80360509D02*
X125025000Y-81975000D01*
X125025000Y-81975000D02*
X123100000Y-83900000D01*
X123700000Y-80000000D02*
X123350000Y-80000000D01*
X123350000Y-80000000D02*
X113000000Y-80000000D01*
X123500000Y-79100000D02*
X122750000Y-79100000D01*
X122750000Y-79100000D02*
X111650000Y-79100000D01*
X123811064Y-77532082D02*
X121750000Y-77532082D01*
X121750000Y-77532082D02*
X110967918Y-77532082D01*
X136243146Y-65100000D02*
X145650000Y-65100000D01*
X145650000Y-65100000D02*
X148500000Y-62250000D01*
X136474517Y-66000000D02*
X147000000Y-66000000D01*
X147000000Y-66000000D02*
X148500000Y-64500000D01*
X136855887Y-66750000D02*
X148500000Y-66750000D01*
X137237258Y-67500000D02*
X147000000Y-67500000D01*
X147000000Y-67500000D02*
X148500000Y-69000000D01*
X137268629Y-68600000D02*
X145850000Y-68600000D01*
X145850000Y-68600000D02*
X148500000Y-71250000D01*
X137400000Y-69600000D02*
X144600000Y-69600000D01*
X144600000Y-69600000D02*
X148500000Y-73500000D01*
X143650000Y-70900000D02*
X148500000Y-75750000D01*
X135935863Y-72264137D02*
X137300000Y-70900000D01*
X135266194Y-72865177D02*
X135867234Y-72264137D01*
X135867234Y-72264137D02*
X135935863Y-72264137D01*
X142300000Y-71800000D02*
X148500000Y-78000000D01*
X137100000Y-72200000D02*
X137500000Y-71800000D01*
X137062742Y-72200000D02*
X137100000Y-72200000D01*
X135831880Y-73430862D02*
X137062742Y-72200000D01*
X136397565Y-73996548D02*
X137594113Y-72800000D01*
X141050000Y-72800000D02*
X148500000Y-80250000D01*
X136963250Y-74562233D02*
X137925483Y-73600000D01*
X137925483Y-73600000D02*
X139600000Y-73600000D01*
X139600000Y-73600000D02*
X148500000Y-82500000D01*
X137528936Y-75127918D02*
X138877918Y-75127918D01*
X145500000Y-85503146D02*
X145500000Y-86250000D01*
X145500000Y-86250000D02*
X148500000Y-89250000D01*
X144365483Y-85500000D02*
X144365483Y-87365483D01*
X144365483Y-87365483D02*
X148500000Y-91500000D01*
X142600000Y-84865887D02*
X142600000Y-89600000D01*
X142600000Y-89600000D02*
X146500000Y-93500000D01*
X141802742Y-85200000D02*
X141802742Y-91052742D01*
X141802742Y-91052742D02*
X144250000Y-93500000D01*
X140771371Y-85300000D02*
X140771371Y-92271371D01*
X140771371Y-92271371D02*
X142000000Y-93500000D01*
X136908629Y-83700000D02*
X136908629Y-83708629D01*
X136100000Y-84000000D02*
X136099999Y-92650001D01*
X136099999Y-92650001D02*
X135250000Y-93500000D01*
X135922742Y-83822742D02*
X136100000Y-84000000D01*
X135900000Y-83822742D02*
X135922742Y-83822742D01*
X133569138Y-81491880D02*
X135900000Y-83822742D01*
X135000000Y-84054113D02*
X135000000Y-91500000D01*
X135000000Y-91500000D02*
X133000000Y-93500000D01*
X133003452Y-82057565D02*
X135000000Y-84054113D01*
X133800000Y-83900000D02*
X133800000Y-90450000D01*
X133800000Y-90450000D02*
X130750000Y-93500000D01*
X133124290Y-83224290D02*
X133800000Y-83900000D01*
X132437767Y-82623250D02*
X133038807Y-83224290D01*
X133038807Y-83224290D02*
X133124290Y-83224290D01*
X131872082Y-90127918D02*
X128500000Y-93500000D01*
X127125483Y-84400000D02*
X127125483Y-85874517D01*
X127125483Y-85874517D02*
X119500000Y-93500000D01*
X128336548Y-82057565D02*
X117250000Y-93144113D01*
X117250000Y-93144113D02*
X117250000Y-93500000D01*
X121062742Y-88200000D02*
X120300000Y-88200000D01*
X120300000Y-88200000D02*
X115000000Y-93500000D01*
X127770862Y-81491880D02*
X121062742Y-88200000D01*
X121700000Y-86400000D02*
X119850000Y-86400000D01*
X119850000Y-86400000D02*
X112750000Y-93500000D01*
X123968629Y-84131371D02*
X121700000Y-86400000D01*
X124000000Y-84131371D02*
X123968629Y-84131371D01*
X127205177Y-80926194D02*
X124000000Y-84131371D01*
X123100000Y-83900000D02*
X117850000Y-83900000D01*
X117850000Y-83900000D02*
X108250000Y-93500000D01*
X123468629Y-82400000D02*
X117100000Y-82400000D01*
X117100000Y-82400000D02*
X106000000Y-93500000D01*
X126073806Y-79794823D02*
X123468629Y-82400000D01*
X123537258Y-81200000D02*
X116050000Y-81200000D01*
X116050000Y-81200000D02*
X103750000Y-93500000D01*
X125508120Y-79229138D02*
X123537258Y-81200000D01*
X113000000Y-80000000D02*
X101500000Y-91500000D01*
X124341395Y-79358605D02*
X123700000Y-80000000D01*
X124942435Y-78663452D02*
X124341395Y-79264492D01*
X124341395Y-79264492D02*
X124341395Y-79358605D01*
X111650000Y-79100000D02*
X101500000Y-89250000D01*
X123775710Y-78824290D02*
X123500000Y-79100000D01*
X124376750Y-78097767D02*
X123775710Y-78698807D01*
X123775710Y-78698807D02*
X123775710Y-78824290D01*
X110967918Y-77532082D02*
X101500000Y-87000000D01*
X108900000Y-75100000D02*
X101500000Y-82500000D01*
X123811064Y-75127918D02*
X123322156Y-75127918D01*
X123322156Y-75127918D02*
X123294238Y-75100000D01*
X107361193Y-73961193D02*
X107361193Y-74388807D01*
X107361193Y-74388807D02*
X101500000Y-80250000D01*
X124376750Y-74562233D02*
X123775710Y-73961193D01*
X120091016Y-73400000D02*
X106100000Y-73400000D01*
X106100000Y-73400000D02*
X101500000Y-78000000D01*
X120095508Y-73395508D02*
X120091016Y-73400000D01*
X124942435Y-73996548D02*
X124341395Y-73395508D01*
X104550000Y-72700000D02*
X101500000Y-75750000D01*
X124729822Y-72829822D02*
X124600000Y-72700000D01*
X125508120Y-73430862D02*
X124907080Y-72829822D01*
X124907080Y-72829822D02*
X124729822Y-72829822D01*
X103000000Y-72000000D02*
X101500000Y-73500000D01*
X126073806Y-72865177D02*
X125208629Y-72000000D01*
X126639491Y-72299491D02*
X126038451Y-71698451D01*
X126038451Y-71698451D02*
X125998451Y-71698451D01*
X125998451Y-71698451D02*
X125700000Y-71400000D01*
X102702081Y-71250000D02*
X101500000Y-71250000D01*
X102800000Y-71400000D02*
X102800000Y-71347919D01*
X102800000Y-71347919D02*
X102702081Y-71250000D01*
X103300000Y-70800000D02*
X101500000Y-69000000D01*
X127205177Y-71733806D02*
X126271371Y-70800000D01*
X127770862Y-71168120D02*
X127169822Y-70567080D01*
X127169822Y-70567080D02*
X127167080Y-70567080D01*
X127167080Y-70567080D02*
X126800000Y-70200000D01*
X104950000Y-70200000D02*
X101500000Y-66750000D01*
X106600000Y-69600000D02*
X101500000Y-64500000D01*
X128336548Y-70602435D02*
X127334113Y-69600000D01*
X108250000Y-69000000D02*
X101500000Y-62250000D01*
X128902233Y-70036750D02*
X127865483Y-69000000D01*
X109753146Y-68253146D02*
X101500000Y-60000000D01*
X129467918Y-69471064D02*
X128250000Y-68253146D01*
X110750000Y-49000000D02*
X108250000Y-46500000D01*
X113250000Y-54000000D02*
X113250000Y-49000000D01*
X111300000Y-54000000D02*
X113250000Y-54000000D01*
X112500000Y-49750000D02*
X109250000Y-49750000D01*
X109250000Y-49750000D02*
X106000000Y-46500000D01*
X112500000Y-53000000D02*
X112500000Y-49750000D01*
X111400000Y-53000000D02*
X112500000Y-53000000D01*
X111300000Y-53050000D02*
X111350000Y-53050000D01*
X111350000Y-53050000D02*
X111400000Y-53000000D01*
X111250000Y-50500000D02*
X107750000Y-50500000D01*
X107750000Y-50500000D02*
X103750000Y-46500000D01*
X111300000Y-50550000D02*
X111250000Y-50500000D01*
X111300000Y-52100000D02*
X111300000Y-50550000D01*
X109000000Y-54000000D02*
X102250000Y-54000000D01*
X102250000Y-54000000D02*
X101500000Y-53250000D01*
X109000000Y-53050000D02*
X103550000Y-53050000D01*
X103550000Y-53050000D02*
X101500000Y-51000000D01*
X109000000Y-52100000D02*
X104850000Y-52100000D01*
X104850000Y-52100000D02*
X101500000Y-48750000D01*
D15*
G36*
X120740000Y-48750000D02*
X120797852Y-49040839D01*
X120962599Y-49287401D01*
X121462599Y-49787401D01*
X121709161Y-49952148D01*
X122000000Y-50010000D01*
X125687537Y-50010000D01*
X125719673Y-50042192D01*
X126063201Y-50184838D01*
X126435167Y-50185162D01*
X126778943Y-50043117D01*
X126812118Y-50010000D01*
X131000000Y-50010000D01*
X131290839Y-49952148D01*
X131537401Y-49787401D01*
X132037401Y-49287401D01*
X132202148Y-49040839D01*
X132260000Y-48750000D01*
X132260000Y-47877000D01*
X136943848Y-47877000D01*
X137203319Y-47984742D01*
X137794089Y-47985257D01*
X138056091Y-47877000D01*
X139193848Y-47877000D01*
X139453319Y-47984742D01*
X140044089Y-47985257D01*
X140306091Y-47877000D01*
X141443848Y-47877000D01*
X141703319Y-47984742D01*
X142294089Y-47985257D01*
X142556091Y-47877000D01*
X143693848Y-47877000D01*
X143953319Y-47984742D01*
X144544089Y-47985257D01*
X144806091Y-47877000D01*
X145943848Y-47877000D01*
X146203319Y-47984742D01*
X146794089Y-47985257D01*
X147056091Y-47877000D01*
X147123000Y-47877000D01*
X147123000Y-61458702D01*
X145185329Y-64123000D01*
X135500000Y-64123000D01*
X135450590Y-64133006D01*
X135400830Y-64170664D01*
X134438961Y-65373000D01*
X109799872Y-65373000D01*
X102877000Y-58944619D01*
X102877000Y-55627000D01*
X114000000Y-55627000D01*
X114049410Y-55616994D01*
X114091035Y-55588553D01*
X114118315Y-55546159D01*
X114127000Y-55500000D01*
X114127000Y-47877000D01*
X120740000Y-47877000D01*
X120740000Y-48750000D01*
X120740000Y-48750000D01*
G37*
X120740000Y-48750000D02*
X120797852Y-49040839D01*
X120962599Y-49287401D01*
X121462599Y-49787401D01*
X121709161Y-49952148D01*
X122000000Y-50010000D01*
X125687537Y-50010000D01*
X125719673Y-50042192D01*
X126063201Y-50184838D01*
X126435167Y-50185162D01*
X126778943Y-50043117D01*
X126812118Y-50010000D01*
X131000000Y-50010000D01*
X131290839Y-49952148D01*
X131537401Y-49787401D01*
X132037401Y-49287401D01*
X132202148Y-49040839D01*
X132260000Y-48750000D01*
X132260000Y-47877000D01*
X136943848Y-47877000D01*
X137203319Y-47984742D01*
X137794089Y-47985257D01*
X138056091Y-47877000D01*
X139193848Y-47877000D01*
X139453319Y-47984742D01*
X140044089Y-47985257D01*
X140306091Y-47877000D01*
X141443848Y-47877000D01*
X141703319Y-47984742D01*
X142294089Y-47985257D01*
X142556091Y-47877000D01*
X143693848Y-47877000D01*
X143953319Y-47984742D01*
X144544089Y-47985257D01*
X144806091Y-47877000D01*
X145943848Y-47877000D01*
X146203319Y-47984742D01*
X146794089Y-47985257D01*
X147056091Y-47877000D01*
X147123000Y-47877000D01*
X147123000Y-61458702D01*
X145185329Y-64123000D01*
X135500000Y-64123000D01*
X135450590Y-64133006D01*
X135400830Y-64170664D01*
X134438961Y-65373000D01*
X109799872Y-65373000D01*
X102877000Y-58944619D01*
X102877000Y-55627000D01*
X114000000Y-55627000D01*
X114049410Y-55616994D01*
X114091035Y-55588553D01*
X114118315Y-55546159D01*
X114127000Y-55500000D01*
X114127000Y-47877000D01*
X120740000Y-47877000D01*
X120740000Y-48750000D01*
G36*
X130740000Y-48435198D02*
X130685198Y-48490000D01*
X126812463Y-48490000D01*
X126780327Y-48457808D01*
X126436799Y-48315162D01*
X126064833Y-48314838D01*
X125721057Y-48456883D01*
X125687882Y-48490000D01*
X122314802Y-48490000D01*
X122260000Y-48435198D01*
X122260000Y-47877000D01*
X130740000Y-47877000D01*
X130740000Y-48435198D01*
X130740000Y-48435198D01*
G37*
X130740000Y-48435198D02*
X130685198Y-48490000D01*
X126812463Y-48490000D01*
X126780327Y-48457808D01*
X126436799Y-48315162D01*
X126064833Y-48314838D01*
X125721057Y-48456883D01*
X125687882Y-48490000D01*
X122314802Y-48490000D01*
X122260000Y-48435198D01*
X122260000Y-47877000D01*
X130740000Y-47877000D01*
X130740000Y-48435198D01*
M02*
