M48
METRIC,TZ
T1C0.400
T2C1.000
%
G90
G05
T1
X113.05Y-68.253
X113.875Y-69.
X114.925Y-69.6
X115.9Y-70.2
X116.8Y-70.8
X117.825Y-71.4
X118.85Y-72.
X119.95Y-72.7
X120.975Y-73.396
X121.075Y-75.1
X121.75Y-77.532
X122.Y-73.961
X122.75Y-79.1
X123.35Y-80.
X123.925Y-80.822
X124.15Y-81.725
X125.025Y-81.975
X125.266Y-82.875
X126.25Y-49.25
X126.25Y-49.25
X126.275Y-82.998
X126.529Y-83.875
X127.525Y-84.
X128.875Y-84.725
X131.872Y-85.45
X133.8Y-83.9
X134.45Y-68.025
X134.493Y-66.85
X134.724Y-83.8
X134.856Y-82.8
X135.675Y-69.062
X135.731Y-67.875
X135.975Y-82.766
X136.09Y-81.75
X136.775Y-70.225
X136.8Y-69.069
X137.096Y-81.625
X137.178Y-80.575
X138.175Y-80.441
X138.2Y-71.8
X138.2Y-79.335
X138.875Y-72.8
X139.Y-70.9
X139.297Y-79.3
X139.6Y-73.6
X141.125Y-77.375
T2
X101.5Y-48.75
X101.5Y-51.
X101.5Y-53.25
X101.5Y-60.
X101.5Y-62.25
X101.5Y-64.5
X101.5Y-66.75
X101.5Y-69.
X101.5Y-71.25
X101.5Y-73.5
X101.5Y-75.75
X101.5Y-78.
X101.5Y-80.25
X101.5Y-82.5
X101.5Y-87.
X101.5Y-89.25
X101.5Y-91.5
X103.75Y-46.5
X103.75Y-93.5
X106.Y-46.5
X106.Y-93.5
X108.25Y-46.5
X108.25Y-93.5
X112.75Y-93.5
X115.Y-93.5
X117.25Y-93.5
X119.5Y-93.5
X121.5Y-46.5
X121.75Y-93.5
X128.5Y-93.5
X130.75Y-93.5
X131.5Y-46.5
X133.Y-93.5
X135.25Y-93.5
X137.5Y-46.5
X137.5Y-93.5
X139.75Y-46.5
X139.75Y-93.5
X142.Y-46.5
X142.Y-93.5
X144.25Y-46.5
X144.25Y-93.5
X146.5Y-46.5
X146.5Y-93.5
X148.5Y-62.25
X148.5Y-64.5
X148.5Y-66.75
X148.5Y-69.
X148.5Y-71.25
X148.5Y-73.5
X148.5Y-75.75
X148.5Y-78.
X148.5Y-80.25
X148.5Y-82.5
X148.5Y-84.75
X148.5Y-89.25
X148.5Y-91.5
T0
M30
