G04 #@! TF.FileFunction,Soldermask,Top*
%FSLAX46Y46*%
G04 Gerber Fmt 4.6, Leading zero omitted, Abs format (unit mm)*
G04 Created by KiCad (PCBNEW 4.0.1-stable) date Friday, September 23, 2016 'AMt' 01:17:15 AM*
%MOMM*%
G01*
G04 APERTURE LIST*
%ADD10C,0.100000*%
%ADD11R,1.000000X0.900000*%
%ADD12C,1.000000*%
%ADD13C,2.100000*%
G04 APERTURE END LIST*
D10*
D11*
X111300000Y-52100000D03*
X109000000Y-52100000D03*
X111300000Y-53050000D03*
X109000000Y-53050000D03*
X111300000Y-54000000D03*
X109000000Y-54000000D03*
D10*
G36*
X128460291Y-69135188D02*
X129132042Y-68463437D01*
X130475545Y-69806940D01*
X129803794Y-70478691D01*
X128460291Y-69135188D01*
X128460291Y-69135188D01*
G37*
G36*
X127894606Y-69700874D02*
X128566357Y-69029123D01*
X129909860Y-70372626D01*
X129238109Y-71044377D01*
X127894606Y-69700874D01*
X127894606Y-69700874D01*
G37*
G36*
X127328921Y-70266559D02*
X128000672Y-69594808D01*
X129344175Y-70938311D01*
X128672424Y-71610062D01*
X127328921Y-70266559D01*
X127328921Y-70266559D01*
G37*
G36*
X126763235Y-70832244D02*
X127434986Y-70160493D01*
X128778489Y-71503996D01*
X128106738Y-72175747D01*
X126763235Y-70832244D01*
X126763235Y-70832244D01*
G37*
G36*
X126197550Y-71397930D02*
X126869301Y-70726179D01*
X128212804Y-72069682D01*
X127541053Y-72741433D01*
X126197550Y-71397930D01*
X126197550Y-71397930D01*
G37*
G36*
X125631864Y-71963615D02*
X126303615Y-71291864D01*
X127647118Y-72635367D01*
X126975367Y-73307118D01*
X125631864Y-71963615D01*
X125631864Y-71963615D01*
G37*
G36*
X125066179Y-72529301D02*
X125737930Y-71857550D01*
X127081433Y-73201053D01*
X126409682Y-73872804D01*
X125066179Y-72529301D01*
X125066179Y-72529301D01*
G37*
G36*
X124500493Y-73094986D02*
X125172244Y-72423235D01*
X126515747Y-73766738D01*
X125843996Y-74438489D01*
X124500493Y-73094986D01*
X124500493Y-73094986D01*
G37*
G36*
X123934808Y-73660672D02*
X124606559Y-72988921D01*
X125950062Y-74332424D01*
X125278311Y-75004175D01*
X123934808Y-73660672D01*
X123934808Y-73660672D01*
G37*
G36*
X123369123Y-74226357D02*
X124040874Y-73554606D01*
X125384377Y-74898109D01*
X124712626Y-75569860D01*
X123369123Y-74226357D01*
X123369123Y-74226357D01*
G37*
G36*
X122803437Y-74792042D02*
X123475188Y-74120291D01*
X124818691Y-75463794D01*
X124146940Y-76135545D01*
X122803437Y-74792042D01*
X122803437Y-74792042D01*
G37*
G36*
X123475188Y-78539709D02*
X122803437Y-77867958D01*
X124146940Y-76524455D01*
X124818691Y-77196206D01*
X123475188Y-78539709D01*
X123475188Y-78539709D01*
G37*
G36*
X124040874Y-79105394D02*
X123369123Y-78433643D01*
X124712626Y-77090140D01*
X125384377Y-77761891D01*
X124040874Y-79105394D01*
X124040874Y-79105394D01*
G37*
G36*
X124606559Y-79671079D02*
X123934808Y-78999328D01*
X125278311Y-77655825D01*
X125950062Y-78327576D01*
X124606559Y-79671079D01*
X124606559Y-79671079D01*
G37*
G36*
X125172244Y-80236765D02*
X124500493Y-79565014D01*
X125843996Y-78221511D01*
X126515747Y-78893262D01*
X125172244Y-80236765D01*
X125172244Y-80236765D01*
G37*
G36*
X125737930Y-80802450D02*
X125066179Y-80130699D01*
X126409682Y-78787196D01*
X127081433Y-79458947D01*
X125737930Y-80802450D01*
X125737930Y-80802450D01*
G37*
G36*
X126303615Y-81368136D02*
X125631864Y-80696385D01*
X126975367Y-79352882D01*
X127647118Y-80024633D01*
X126303615Y-81368136D01*
X126303615Y-81368136D01*
G37*
G36*
X126869301Y-81933821D02*
X126197550Y-81262070D01*
X127541053Y-79918567D01*
X128212804Y-80590318D01*
X126869301Y-81933821D01*
X126869301Y-81933821D01*
G37*
G36*
X127434986Y-82499507D02*
X126763235Y-81827756D01*
X128106738Y-80484253D01*
X128778489Y-81156004D01*
X127434986Y-82499507D01*
X127434986Y-82499507D01*
G37*
G36*
X128000672Y-83065192D02*
X127328921Y-82393441D01*
X128672424Y-81049938D01*
X129344175Y-81721689D01*
X128000672Y-83065192D01*
X128000672Y-83065192D01*
G37*
G36*
X128566357Y-83630877D02*
X127894606Y-82959126D01*
X129238109Y-81615623D01*
X129909860Y-82287374D01*
X128566357Y-83630877D01*
X128566357Y-83630877D01*
G37*
G36*
X129132042Y-84196563D02*
X128460291Y-83524812D01*
X129803794Y-82181309D01*
X130475545Y-82853060D01*
X129132042Y-84196563D01*
X129132042Y-84196563D01*
G37*
G36*
X130864455Y-82853060D02*
X131536206Y-82181309D01*
X132879709Y-83524812D01*
X132207958Y-84196563D01*
X130864455Y-82853060D01*
X130864455Y-82853060D01*
G37*
G36*
X131430140Y-82287374D02*
X132101891Y-81615623D01*
X133445394Y-82959126D01*
X132773643Y-83630877D01*
X131430140Y-82287374D01*
X131430140Y-82287374D01*
G37*
G36*
X131995825Y-81721689D02*
X132667576Y-81049938D01*
X134011079Y-82393441D01*
X133339328Y-83065192D01*
X131995825Y-81721689D01*
X131995825Y-81721689D01*
G37*
G36*
X132561511Y-81156004D02*
X133233262Y-80484253D01*
X134576765Y-81827756D01*
X133905014Y-82499507D01*
X132561511Y-81156004D01*
X132561511Y-81156004D01*
G37*
G36*
X133127196Y-80590318D02*
X133798947Y-79918567D01*
X135142450Y-81262070D01*
X134470699Y-81933821D01*
X133127196Y-80590318D01*
X133127196Y-80590318D01*
G37*
G36*
X133692882Y-80024633D02*
X134364633Y-79352882D01*
X135708136Y-80696385D01*
X135036385Y-81368136D01*
X133692882Y-80024633D01*
X133692882Y-80024633D01*
G37*
G36*
X134258567Y-79458947D02*
X134930318Y-78787196D01*
X136273821Y-80130699D01*
X135602070Y-80802450D01*
X134258567Y-79458947D01*
X134258567Y-79458947D01*
G37*
G36*
X134824253Y-78893262D02*
X135496004Y-78221511D01*
X136839507Y-79565014D01*
X136167756Y-80236765D01*
X134824253Y-78893262D01*
X134824253Y-78893262D01*
G37*
G36*
X135389938Y-78327576D02*
X136061689Y-77655825D01*
X137405192Y-78999328D01*
X136733441Y-79671079D01*
X135389938Y-78327576D01*
X135389938Y-78327576D01*
G37*
G36*
X135955623Y-77761891D02*
X136627374Y-77090140D01*
X137970877Y-78433643D01*
X137299126Y-79105394D01*
X135955623Y-77761891D01*
X135955623Y-77761891D01*
G37*
G36*
X136521309Y-77196206D02*
X137193060Y-76524455D01*
X138536563Y-77867958D01*
X137864812Y-78539709D01*
X136521309Y-77196206D01*
X136521309Y-77196206D01*
G37*
G36*
X137193060Y-76135545D02*
X136521309Y-75463794D01*
X137864812Y-74120291D01*
X138536563Y-74792042D01*
X137193060Y-76135545D01*
X137193060Y-76135545D01*
G37*
G36*
X136627374Y-75569860D02*
X135955623Y-74898109D01*
X137299126Y-73554606D01*
X137970877Y-74226357D01*
X136627374Y-75569860D01*
X136627374Y-75569860D01*
G37*
G36*
X136061689Y-75004175D02*
X135389938Y-74332424D01*
X136733441Y-72988921D01*
X137405192Y-73660672D01*
X136061689Y-75004175D01*
X136061689Y-75004175D01*
G37*
G36*
X135496004Y-74438489D02*
X134824253Y-73766738D01*
X136167756Y-72423235D01*
X136839507Y-73094986D01*
X135496004Y-74438489D01*
X135496004Y-74438489D01*
G37*
G36*
X134930318Y-73872804D02*
X134258567Y-73201053D01*
X135602070Y-71857550D01*
X136273821Y-72529301D01*
X134930318Y-73872804D01*
X134930318Y-73872804D01*
G37*
G36*
X134364633Y-73307118D02*
X133692882Y-72635367D01*
X135036385Y-71291864D01*
X135708136Y-71963615D01*
X134364633Y-73307118D01*
X134364633Y-73307118D01*
G37*
G36*
X133798947Y-72741433D02*
X133127196Y-72069682D01*
X134470699Y-70726179D01*
X135142450Y-71397930D01*
X133798947Y-72741433D01*
X133798947Y-72741433D01*
G37*
G36*
X133233262Y-72175747D02*
X132561511Y-71503996D01*
X133905014Y-70160493D01*
X134576765Y-70832244D01*
X133233262Y-72175747D01*
X133233262Y-72175747D01*
G37*
G36*
X132667576Y-71610062D02*
X131995825Y-70938311D01*
X133339328Y-69594808D01*
X134011079Y-70266559D01*
X132667576Y-71610062D01*
X132667576Y-71610062D01*
G37*
G36*
X132101891Y-71044377D02*
X131430140Y-70372626D01*
X132773643Y-69029123D01*
X133445394Y-69700874D01*
X132101891Y-71044377D01*
X132101891Y-71044377D01*
G37*
G36*
X131536206Y-70478691D02*
X130864455Y-69806940D01*
X132207958Y-68463437D01*
X132879709Y-69135188D01*
X131536206Y-70478691D01*
X131536206Y-70478691D01*
G37*
D12*
X126250000Y-49250000D03*
X126250000Y-49250000D03*
D13*
X121500000Y-46500000D03*
X131500000Y-46500000D03*
D12*
X113050000Y-68253146D03*
X113875000Y-69000000D03*
X114925000Y-69600000D03*
X115900000Y-70200000D03*
X116800000Y-70800000D03*
X117825000Y-71400000D03*
X118850000Y-72000000D03*
X119950000Y-72700000D03*
X120975000Y-73395508D03*
X122000000Y-73961193D03*
X121075000Y-75100000D03*
X134493146Y-66850000D03*
X134449517Y-68025000D03*
X135730887Y-67875000D03*
X135675000Y-69062258D03*
X136800000Y-69068629D03*
X136775000Y-70225000D03*
X139000000Y-70900000D03*
X138200000Y-71800000D03*
X138875000Y-72800000D03*
X139600000Y-73600000D03*
X141125000Y-77375000D03*
X139296854Y-79300000D03*
X138200000Y-79334517D03*
X138175000Y-80440887D03*
X137177742Y-80575000D03*
X137096371Y-81625000D03*
X136090000Y-81750000D03*
X135975000Y-82766371D03*
X134855530Y-82800000D03*
X134724160Y-83800000D03*
X133800000Y-83900000D03*
X131872082Y-85450000D03*
X128875000Y-84725000D03*
X127525000Y-84000483D03*
X126529112Y-83875000D03*
X126275000Y-82997742D03*
X125266370Y-82875000D03*
X125025000Y-81975000D03*
X124150000Y-81725000D03*
X123925000Y-80822258D03*
X123350000Y-80000000D03*
X122750000Y-79100000D03*
X121750000Y-77532082D03*
D13*
X101500000Y-53250000D03*
X146500000Y-93500000D03*
X146500000Y-46500000D03*
X144250000Y-93500000D03*
X144250000Y-46500000D03*
X142000000Y-93500000D03*
X142000000Y-46500000D03*
X139750000Y-93500000D03*
X139750000Y-46500000D03*
X137500000Y-93500000D03*
X137500000Y-46500000D03*
X135250000Y-93500000D03*
X133000000Y-93500000D03*
X130750000Y-93500000D03*
X128500000Y-93500000D03*
X121750000Y-93500000D03*
X119500000Y-93500000D03*
X117250000Y-93500000D03*
X115000000Y-93500000D03*
X112750000Y-93500000D03*
X108250000Y-93500000D03*
X108250000Y-46500000D03*
X106000000Y-93500000D03*
X106000000Y-46500000D03*
X103750000Y-93500000D03*
X103750000Y-46500000D03*
X101500000Y-91500000D03*
X148500000Y-91500000D03*
X148500000Y-89250000D03*
X148500000Y-84750000D03*
X148500000Y-82500000D03*
X148500000Y-80250000D03*
X148500000Y-78000000D03*
X148500000Y-75750000D03*
X148500000Y-73500000D03*
X148500000Y-71250000D03*
X148500000Y-69000000D03*
X148500000Y-66750000D03*
X148500000Y-64500000D03*
X148500000Y-62250000D03*
X101500000Y-89250000D03*
X101500000Y-87000000D03*
X101500000Y-82500000D03*
X101500000Y-80250000D03*
X101500000Y-78000000D03*
X101500000Y-75750000D03*
X101500000Y-73500000D03*
X101500000Y-71250000D03*
X101500000Y-69000000D03*
X101500000Y-66750000D03*
X101500000Y-64500000D03*
X101500000Y-62250000D03*
X101500000Y-60000000D03*
X101500000Y-51000000D03*
X101500000Y-48750000D03*
M02*
