G04 #@! TF.FileFunction,Paste,Bot*
%FSLAX46Y46*%
G04 Gerber Fmt 4.6, Leading zero omitted, Abs format (unit mm)*
G04 Created by KiCad (PCBNEW 4.0.1-stable) date Friday, September 23, 2016 'AMt' 01:17:15 AM*
%MOMM*%
G01*
G04 APERTURE LIST*
%ADD10C,0.100000*%
%ADD11C,0.450000*%
G04 APERTURE END LIST*
D10*
D11*
X124141076Y-75479658D02*
X123398614Y-74737196D01*
X124706761Y-74913973D02*
X123964299Y-74171511D01*
X125272447Y-74348287D02*
X124529985Y-73605825D01*
X125838132Y-73782602D02*
X125095670Y-73040140D01*
X126403818Y-73216916D02*
X125661356Y-72474454D01*
X126969503Y-72651231D02*
X126227041Y-71908769D01*
X127535188Y-72085546D02*
X126792726Y-71343084D01*
X128100874Y-71519860D02*
X127358412Y-70777398D01*
X128666559Y-70954175D02*
X127924097Y-70211713D01*
X129232245Y-70388489D02*
X128489783Y-69646027D01*
X129797930Y-69822804D02*
X129055468Y-69080342D01*
X132272804Y-69080342D02*
X131530342Y-69822804D01*
X132838489Y-69646027D02*
X132096027Y-70388489D01*
X133404175Y-70211713D02*
X132661713Y-70954175D01*
X133969860Y-70777398D02*
X133227398Y-71519860D01*
X134535546Y-71343084D02*
X133793084Y-72085546D01*
X135101231Y-71908769D02*
X134358769Y-72651231D01*
X135666916Y-72474454D02*
X134924454Y-73216916D01*
X136232602Y-73040140D02*
X135490140Y-73782602D01*
X136798287Y-73605825D02*
X136055825Y-74348287D01*
X137363973Y-74171511D02*
X136621511Y-74913973D01*
X137929658Y-74737196D02*
X137187196Y-75479658D01*
X137929658Y-77954532D02*
X137187196Y-77212070D01*
X137363973Y-78520217D02*
X136621511Y-77777755D01*
X136798287Y-79085903D02*
X136055825Y-78343441D01*
X136232602Y-79651588D02*
X135490140Y-78909126D01*
X135666916Y-80217274D02*
X134924454Y-79474812D01*
X135101231Y-80782959D02*
X134358769Y-80040497D01*
X134535546Y-81348644D02*
X133793084Y-80606182D01*
X133969860Y-81914330D02*
X133227398Y-81171868D01*
X133404175Y-82480015D02*
X132661713Y-81737553D01*
X132838489Y-83045701D02*
X132096027Y-82303239D01*
X132272804Y-83611386D02*
X131530342Y-82868924D01*
X129797930Y-82868924D02*
X129055468Y-83611386D01*
X129232245Y-82303239D02*
X128489783Y-83045701D01*
X128666559Y-81737553D02*
X127924097Y-82480015D01*
X128100874Y-81171868D02*
X127358412Y-81914330D01*
X127535188Y-80606182D02*
X126792726Y-81348644D01*
X126969503Y-80040497D02*
X126227041Y-80782959D01*
X126403818Y-79474812D02*
X125661356Y-80217274D01*
X125838132Y-78909126D02*
X125095670Y-79651588D01*
X125272447Y-78343441D02*
X124529985Y-79085903D01*
X124706761Y-77777755D02*
X123964299Y-78520217D01*
X124141076Y-77212070D02*
X123398614Y-77954532D01*
M02*
