G04 #@! TF.FileFunction,Copper,L2,Bot,Signal*
%FSLAX46Y46*%
G04 Gerber Fmt 4.6, Leading zero omitted, Abs format (unit mm)*
G04 Created by KiCad (PCBNEW 4.0.1-stable) date Friday, September 23, 2016 'AMt' 01:17:15 AM*
%MOMM*%
G01*
G04 APERTURE LIST*
%ADD10C,0.100000*%
%ADD11C,0.450000*%
%ADD12C,0.600000*%
%ADD13C,1.700000*%
%ADD14C,0.250000*%
%ADD15C,0.254000*%
G04 APERTURE END LIST*
D10*
D11*
X124141076Y-75479658D02*
X123398614Y-74737196D01*
X124706761Y-74913973D02*
X123964299Y-74171511D01*
X125272447Y-74348287D02*
X124529985Y-73605825D01*
X125838132Y-73782602D02*
X125095670Y-73040140D01*
X126403818Y-73216916D02*
X125661356Y-72474454D01*
X126969503Y-72651231D02*
X126227041Y-71908769D01*
X127535188Y-72085546D02*
X126792726Y-71343084D01*
X128100874Y-71519860D02*
X127358412Y-70777398D01*
X128666559Y-70954175D02*
X127924097Y-70211713D01*
X129232245Y-70388489D02*
X128489783Y-69646027D01*
X129797930Y-69822804D02*
X129055468Y-69080342D01*
X132272804Y-69080342D02*
X131530342Y-69822804D01*
X132838489Y-69646027D02*
X132096027Y-70388489D01*
X133404175Y-70211713D02*
X132661713Y-70954175D01*
X133969860Y-70777398D02*
X133227398Y-71519860D01*
X134535546Y-71343084D02*
X133793084Y-72085546D01*
X135101231Y-71908769D02*
X134358769Y-72651231D01*
X135666916Y-72474454D02*
X134924454Y-73216916D01*
X136232602Y-73040140D02*
X135490140Y-73782602D01*
X136798287Y-73605825D02*
X136055825Y-74348287D01*
X137363973Y-74171511D02*
X136621511Y-74913973D01*
X137929658Y-74737196D02*
X137187196Y-75479658D01*
X137929658Y-77954532D02*
X137187196Y-77212070D01*
X137363973Y-78520217D02*
X136621511Y-77777755D01*
X136798287Y-79085903D02*
X136055825Y-78343441D01*
X136232602Y-79651588D02*
X135490140Y-78909126D01*
X135666916Y-80217274D02*
X134924454Y-79474812D01*
X135101231Y-80782959D02*
X134358769Y-80040497D01*
X134535546Y-81348644D02*
X133793084Y-80606182D01*
X133969860Y-81914330D02*
X133227398Y-81171868D01*
X133404175Y-82480015D02*
X132661713Y-81737553D01*
X132838489Y-83045701D02*
X132096027Y-82303239D01*
X132272804Y-83611386D02*
X131530342Y-82868924D01*
X129797930Y-82868924D02*
X129055468Y-83611386D01*
X129232245Y-82303239D02*
X128489783Y-83045701D01*
X128666559Y-81737553D02*
X127924097Y-82480015D01*
X128100874Y-81171868D02*
X127358412Y-81914330D01*
X127535188Y-80606182D02*
X126792726Y-81348644D01*
X126969503Y-80040497D02*
X126227041Y-80782959D01*
X126403818Y-79474812D02*
X125661356Y-80217274D01*
X125838132Y-78909126D02*
X125095670Y-79651588D01*
X125272447Y-78343441D02*
X124529985Y-79085903D01*
X124706761Y-77777755D02*
X123964299Y-78520217D01*
X124141076Y-77212070D02*
X123398614Y-77954532D01*
D12*
X126250000Y-49250000D03*
X126250000Y-49250000D03*
D13*
X121500000Y-46500000D03*
X131500000Y-46500000D03*
D12*
X113050000Y-68253146D03*
X113875000Y-69000000D03*
X114925000Y-69600000D03*
X115900000Y-70200000D03*
X116800000Y-70800000D03*
X117825000Y-71400000D03*
X118850000Y-72000000D03*
X119950000Y-72700000D03*
X120975000Y-73395508D03*
X122000000Y-73961193D03*
X121075000Y-75100000D03*
X134493146Y-66850000D03*
X134449517Y-68025000D03*
X135730887Y-67875000D03*
X135675000Y-69062258D03*
X136800000Y-69068629D03*
X136775000Y-70225000D03*
X139000000Y-70900000D03*
X138200000Y-71800000D03*
X138875000Y-72800000D03*
X139600000Y-73600000D03*
X141125000Y-77375000D03*
X139296854Y-79300000D03*
X138200000Y-79334517D03*
X138175000Y-80440887D03*
X137177742Y-80575000D03*
X137096371Y-81625000D03*
X136090000Y-81750000D03*
X135975000Y-82766371D03*
X134855530Y-82800000D03*
X134724160Y-83800000D03*
X133800000Y-83900000D03*
X131872082Y-85450000D03*
X128875000Y-84725000D03*
X127525000Y-84000483D03*
X126529112Y-83875000D03*
X126275000Y-82997742D03*
X125266370Y-82875000D03*
X125025000Y-81975000D03*
X124150000Y-81725000D03*
X123925000Y-80822258D03*
X123350000Y-80000000D03*
X122750000Y-79100000D03*
X121750000Y-77532082D03*
D13*
X101500000Y-53250000D03*
X146500000Y-93500000D03*
X146500000Y-46500000D03*
X144250000Y-93500000D03*
X144250000Y-46500000D03*
X142000000Y-93500000D03*
X142000000Y-46500000D03*
X139750000Y-93500000D03*
X139750000Y-46500000D03*
X137500000Y-93500000D03*
X137500000Y-46500000D03*
X135250000Y-93500000D03*
X133000000Y-93500000D03*
X130750000Y-93500000D03*
X128500000Y-93500000D03*
X121750000Y-93500000D03*
X119500000Y-93500000D03*
X117250000Y-93500000D03*
X115000000Y-93500000D03*
X112750000Y-93500000D03*
X108250000Y-93500000D03*
X108250000Y-46500000D03*
X106000000Y-93500000D03*
X106000000Y-46500000D03*
X103750000Y-93500000D03*
X103750000Y-46500000D03*
X101500000Y-91500000D03*
X148500000Y-91500000D03*
X148500000Y-89250000D03*
X148500000Y-84750000D03*
X148500000Y-82500000D03*
X148500000Y-80250000D03*
X148500000Y-78000000D03*
X148500000Y-75750000D03*
X148500000Y-73500000D03*
X148500000Y-71250000D03*
X148500000Y-69000000D03*
X148500000Y-66750000D03*
X148500000Y-64500000D03*
X148500000Y-62250000D03*
X101500000Y-89250000D03*
X101500000Y-87000000D03*
X101500000Y-82500000D03*
X101500000Y-80250000D03*
X101500000Y-78000000D03*
X101500000Y-75750000D03*
X101500000Y-73500000D03*
X101500000Y-71250000D03*
X101500000Y-69000000D03*
X101500000Y-66750000D03*
X101500000Y-64500000D03*
X101500000Y-62250000D03*
X101500000Y-60000000D03*
X101500000Y-51000000D03*
X101500000Y-48750000D03*
D14*
X128225126Y-68250000D02*
X113053146Y-68250000D01*
X113053146Y-68250000D02*
X113050000Y-68253146D01*
X129426699Y-69451573D02*
X128225126Y-68250000D01*
X127843756Y-69000000D02*
X113875000Y-69000000D01*
X128861014Y-70017258D02*
X127843756Y-69000000D01*
X127300000Y-69600000D02*
X114925000Y-69600000D01*
X127681904Y-69981904D02*
X127300000Y-69600000D01*
X128295328Y-70582944D02*
X127694288Y-69981904D01*
X127694288Y-69981904D02*
X127681904Y-69981904D01*
X126781014Y-70200000D02*
X115900000Y-70200000D01*
X127729643Y-71148629D02*
X126781014Y-70200000D01*
X126249642Y-70800000D02*
X116800000Y-70800000D01*
X127163957Y-71714315D02*
X126249642Y-70800000D01*
X125718272Y-71400000D02*
X117825000Y-71400000D01*
X126598272Y-72280000D02*
X125718272Y-71400000D01*
X125431547Y-72231547D02*
X125200000Y-72000000D01*
X125200000Y-72000000D02*
X118850000Y-72000000D01*
X126032587Y-72845685D02*
X125431547Y-72244645D01*
X125431547Y-72244645D02*
X125431547Y-72231547D01*
X124755530Y-72700000D02*
X119950000Y-72700000D01*
X125466901Y-73411371D02*
X124755530Y-72700000D01*
X124249160Y-73325000D02*
X121045508Y-73325000D01*
X121045508Y-73325000D02*
X120975000Y-73395508D01*
X124901216Y-73977056D02*
X124249160Y-73325000D01*
X123266702Y-73941702D02*
X123247211Y-73961193D01*
X123247211Y-73961193D02*
X122000000Y-73961193D01*
X124335530Y-74542742D02*
X123734490Y-73941702D01*
X123734490Y-73941702D02*
X123266702Y-73941702D01*
X123769845Y-75108427D02*
X121083427Y-75108427D01*
X121083427Y-75108427D02*
X121075000Y-75100000D01*
X131901573Y-69451573D02*
X134493146Y-66860000D01*
X134493146Y-66860000D02*
X134493146Y-66850000D01*
X132467258Y-70017258D02*
X134449517Y-68034999D01*
X134449517Y-68034999D02*
X134449517Y-68025000D01*
X133032944Y-70582944D02*
X135730887Y-67885001D01*
X135730887Y-67885001D02*
X135730887Y-67875000D01*
X133598629Y-71148629D02*
X135675000Y-69072258D01*
X135675000Y-69072258D02*
X135675000Y-69062258D01*
X134164315Y-71714315D02*
X136800000Y-69078630D01*
X136800000Y-69078630D02*
X136800000Y-69068629D01*
X134730000Y-72280000D02*
X136775000Y-70235000D01*
X136775000Y-70235000D02*
X136775000Y-70225000D01*
X137266370Y-70875000D02*
X138975000Y-70875000D01*
X138975000Y-70875000D02*
X139000000Y-70900000D01*
X135295685Y-72845685D02*
X137266370Y-70875000D01*
X137447742Y-71825000D02*
X138175000Y-71825000D01*
X138175000Y-71825000D02*
X138200000Y-71800000D01*
X135861371Y-73411371D02*
X137447742Y-71825000D01*
X137028096Y-73346904D02*
X137575000Y-72800000D01*
X137575000Y-72800000D02*
X138875000Y-72800000D01*
X136427056Y-73977056D02*
X137028096Y-73376016D01*
X137028096Y-73376016D02*
X137028096Y-73346904D01*
X137935484Y-73600000D02*
X139600000Y-73600000D01*
X136992742Y-74542742D02*
X137935484Y-73600000D01*
X139088236Y-75338236D02*
X141125000Y-77375000D01*
X137558427Y-75108427D02*
X137788236Y-75338236D01*
X137788236Y-75338236D02*
X139088236Y-75338236D01*
X137558427Y-77583301D02*
X137580155Y-77583301D01*
X137580155Y-77583301D02*
X139296854Y-79300000D01*
X136992742Y-78148986D02*
X137014469Y-78148986D01*
X137014469Y-78148986D02*
X138200000Y-79334517D01*
X136427056Y-78714672D02*
X136448785Y-78714672D01*
X136448785Y-78714672D02*
X138175000Y-80440887D01*
X135861371Y-79280357D02*
X135883099Y-79280357D01*
X135883099Y-79280357D02*
X137177742Y-80575000D01*
X135295685Y-79846043D02*
X137074642Y-81625000D01*
X137074642Y-81625000D02*
X137096371Y-81625000D01*
X134730000Y-80411728D02*
X134751728Y-80411728D01*
X134751728Y-80411728D02*
X136090000Y-81750000D01*
X134164315Y-80977413D02*
X135953273Y-82766371D01*
X135953273Y-82766371D02*
X135975000Y-82766371D01*
X133598629Y-81543099D02*
X134855530Y-82800000D01*
X133032944Y-82108784D02*
X134724160Y-83800000D01*
X133175510Y-83275510D02*
X133800000Y-83900000D01*
X132467258Y-82674470D02*
X133068298Y-83275510D01*
X133068298Y-83275510D02*
X133175510Y-83275510D01*
X131875000Y-84550000D02*
X131875000Y-85447082D01*
X131875000Y-85447082D02*
X131872082Y-85450000D01*
X131901573Y-84523427D02*
X131875000Y-84550000D01*
X131901573Y-83240155D02*
X131901573Y-84523427D01*
X129426699Y-84173301D02*
X128875000Y-84725000D01*
X129426699Y-83240155D02*
X129426699Y-84173301D01*
X127525000Y-84000000D02*
X127525000Y-84000483D01*
X128249490Y-83275510D02*
X127525000Y-84000000D01*
X128861014Y-82674470D02*
X128259974Y-83275510D01*
X128259974Y-83275510D02*
X128249490Y-83275510D01*
X128295328Y-82108784D02*
X126529112Y-83875000D01*
X127729643Y-81543099D02*
X126275000Y-82997742D01*
X127163957Y-80977413D02*
X125266370Y-82875000D01*
X125987232Y-81012768D02*
X125025000Y-81975000D01*
X126598272Y-80411728D02*
X125997232Y-81012768D01*
X125997232Y-81012768D02*
X125987232Y-81012768D01*
X125427917Y-80447083D02*
X124150000Y-81725000D01*
X126032587Y-79846043D02*
X125431547Y-80447083D01*
X125431547Y-80447083D02*
X125427917Y-80447083D01*
X125466901Y-79280357D02*
X123925000Y-80822258D01*
X123615888Y-80000000D02*
X123350000Y-80000000D01*
X124901216Y-78714672D02*
X123615888Y-80000000D01*
X123484516Y-79000000D02*
X122850000Y-79000000D01*
X122850000Y-79000000D02*
X122750000Y-79100000D01*
X124335530Y-78148986D02*
X123484516Y-79000000D01*
X123769845Y-77583301D02*
X121801219Y-77583301D01*
X121801219Y-77583301D02*
X121750000Y-77532082D01*
X123769845Y-77583301D02*
X123666699Y-77583301D01*
D15*
G36*
X103453319Y-47984742D02*
X104044089Y-47985257D01*
X104306091Y-47877000D01*
X105443848Y-47877000D01*
X105703319Y-47984742D01*
X106294089Y-47985257D01*
X106556091Y-47877000D01*
X107693848Y-47877000D01*
X107953319Y-47984742D01*
X108544089Y-47985257D01*
X108806091Y-47877000D01*
X136943848Y-47877000D01*
X137203319Y-47984742D01*
X137794089Y-47985257D01*
X138056091Y-47877000D01*
X139193848Y-47877000D01*
X139453319Y-47984742D01*
X140044089Y-47985257D01*
X140306091Y-47877000D01*
X141443848Y-47877000D01*
X141703319Y-47984742D01*
X142294089Y-47985257D01*
X142556091Y-47877000D01*
X143693848Y-47877000D01*
X143953319Y-47984742D01*
X144544089Y-47985257D01*
X144806091Y-47877000D01*
X145943848Y-47877000D01*
X146203319Y-47984742D01*
X146794089Y-47985257D01*
X147056091Y-47877000D01*
X147123000Y-47877000D01*
X147123000Y-61693848D01*
X147015258Y-61953319D01*
X147014743Y-62544089D01*
X147123000Y-62806091D01*
X147123000Y-63943848D01*
X147015258Y-64203319D01*
X147014743Y-64794089D01*
X147123000Y-65056091D01*
X147123000Y-65373000D01*
X102877000Y-65373000D01*
X102877000Y-65056152D01*
X102984742Y-64796681D01*
X102985257Y-64205911D01*
X102877000Y-63943909D01*
X102877000Y-62806152D01*
X102984742Y-62546681D01*
X102985257Y-61955911D01*
X102877000Y-61693909D01*
X102877000Y-60556152D01*
X102984742Y-60296681D01*
X102985257Y-59705911D01*
X102877000Y-59443909D01*
X102877000Y-53806152D01*
X102984742Y-53546681D01*
X102985257Y-52955911D01*
X102877000Y-52693909D01*
X102877000Y-51556152D01*
X102984742Y-51296681D01*
X102985257Y-50705911D01*
X102877000Y-50443909D01*
X102877000Y-49306152D01*
X102984742Y-49046681D01*
X102985257Y-48455911D01*
X102877000Y-48193909D01*
X102877000Y-47877000D01*
X103193848Y-47877000D01*
X103453319Y-47984742D01*
X103453319Y-47984742D01*
G37*
X103453319Y-47984742D02*
X104044089Y-47985257D01*
X104306091Y-47877000D01*
X105443848Y-47877000D01*
X105703319Y-47984742D01*
X106294089Y-47985257D01*
X106556091Y-47877000D01*
X107693848Y-47877000D01*
X107953319Y-47984742D01*
X108544089Y-47985257D01*
X108806091Y-47877000D01*
X136943848Y-47877000D01*
X137203319Y-47984742D01*
X137794089Y-47985257D01*
X138056091Y-47877000D01*
X139193848Y-47877000D01*
X139453319Y-47984742D01*
X140044089Y-47985257D01*
X140306091Y-47877000D01*
X141443848Y-47877000D01*
X141703319Y-47984742D01*
X142294089Y-47985257D01*
X142556091Y-47877000D01*
X143693848Y-47877000D01*
X143953319Y-47984742D01*
X144544089Y-47985257D01*
X144806091Y-47877000D01*
X145943848Y-47877000D01*
X146203319Y-47984742D01*
X146794089Y-47985257D01*
X147056091Y-47877000D01*
X147123000Y-47877000D01*
X147123000Y-61693848D01*
X147015258Y-61953319D01*
X147014743Y-62544089D01*
X147123000Y-62806091D01*
X147123000Y-63943848D01*
X147015258Y-64203319D01*
X147014743Y-64794089D01*
X147123000Y-65056091D01*
X147123000Y-65373000D01*
X102877000Y-65373000D01*
X102877000Y-65056152D01*
X102984742Y-64796681D01*
X102985257Y-64205911D01*
X102877000Y-63943909D01*
X102877000Y-62806152D01*
X102984742Y-62546681D01*
X102985257Y-61955911D01*
X102877000Y-61693909D01*
X102877000Y-60556152D01*
X102984742Y-60296681D01*
X102985257Y-59705911D01*
X102877000Y-59443909D01*
X102877000Y-53806152D01*
X102984742Y-53546681D01*
X102985257Y-52955911D01*
X102877000Y-52693909D01*
X102877000Y-51556152D01*
X102984742Y-51296681D01*
X102985257Y-50705911D01*
X102877000Y-50443909D01*
X102877000Y-49306152D01*
X102984742Y-49046681D01*
X102985257Y-48455911D01*
X102877000Y-48193909D01*
X102877000Y-47877000D01*
X103193848Y-47877000D01*
X103453319Y-47984742D01*
M02*
