G04 #@! TF.FileFunction,Other,Fab,Top*
%FSLAX46Y46*%
G04 Gerber Fmt 4.6, Leading zero omitted, Abs format (unit mm)*
G04 Created by KiCad (PCBNEW 4.0.1-stable) date Sunday, May 29, 2016 'PMt' 06:37:48 PM*
%MOMM*%
G01*
G04 APERTURE LIST*
%ADD10C,0.100000*%
%ADD11C,0.150000*%
G04 APERTURE END LIST*
D10*
D11*
X16350000Y-15575000D02*
X17650000Y-15575000D01*
X17650000Y-15775000D02*
X16350000Y-15775000D01*
X16350000Y-15975000D02*
X17650000Y-15975000D01*
X16350000Y-13120000D02*
X17650000Y-13120000D01*
X17650000Y-13120000D02*
X17650000Y-16830000D01*
X17650000Y-16830000D02*
X16350000Y-16830000D01*
X16350000Y-16830000D02*
X16350000Y-13120000D01*
X34850000Y-15575000D02*
X36150000Y-15575000D01*
X36150000Y-15775000D02*
X34850000Y-15775000D01*
X34850000Y-15975000D02*
X36150000Y-15975000D01*
X34850000Y-13120000D02*
X36150000Y-13120000D01*
X36150000Y-13120000D02*
X36150000Y-16830000D01*
X36150000Y-16830000D02*
X34850000Y-16830000D01*
X34850000Y-16830000D02*
X34850000Y-13120000D01*
X53350000Y-15575000D02*
X54650000Y-15575000D01*
X54650000Y-15775000D02*
X53350000Y-15775000D01*
X53350000Y-15975000D02*
X54650000Y-15975000D01*
X53350000Y-13120000D02*
X54650000Y-13120000D01*
X54650000Y-13120000D02*
X54650000Y-16830000D01*
X54650000Y-16830000D02*
X53350000Y-16830000D01*
X53350000Y-16830000D02*
X53350000Y-13120000D01*
X69550000Y-15575000D02*
X70850000Y-15575000D01*
X70850000Y-15775000D02*
X69550000Y-15775000D01*
X69550000Y-15975000D02*
X70850000Y-15975000D01*
X69550000Y-13120000D02*
X70850000Y-13120000D01*
X70850000Y-13120000D02*
X70850000Y-16830000D01*
X70850000Y-16830000D02*
X69550000Y-16830000D01*
X69550000Y-16830000D02*
X69550000Y-13120000D01*
X74150000Y-15575000D02*
X75450000Y-15575000D01*
X75450000Y-15775000D02*
X74150000Y-15775000D01*
X74150000Y-15975000D02*
X75450000Y-15975000D01*
X74150000Y-13120000D02*
X75450000Y-13120000D01*
X75450000Y-13120000D02*
X75450000Y-16830000D01*
X75450000Y-16830000D02*
X74150000Y-16830000D01*
X74150000Y-16830000D02*
X74150000Y-13120000D01*
X16350000Y-23500000D02*
X17650000Y-23500000D01*
X17650000Y-23700000D02*
X16350000Y-23700000D01*
X16350000Y-23900000D02*
X17650000Y-23900000D01*
X16350000Y-21045000D02*
X17650000Y-21045000D01*
X17650000Y-21045000D02*
X17650000Y-24755000D01*
X17650000Y-24755000D02*
X16350000Y-24755000D01*
X16350000Y-24755000D02*
X16350000Y-21045000D01*
X34850000Y-23475000D02*
X36150000Y-23475000D01*
X36150000Y-23675000D02*
X34850000Y-23675000D01*
X34850000Y-23875000D02*
X36150000Y-23875000D01*
X34850000Y-21020000D02*
X36150000Y-21020000D01*
X36150000Y-21020000D02*
X36150000Y-24730000D01*
X36150000Y-24730000D02*
X34850000Y-24730000D01*
X34850000Y-24730000D02*
X34850000Y-21020000D01*
X53350000Y-23475000D02*
X54650000Y-23475000D01*
X54650000Y-23675000D02*
X53350000Y-23675000D01*
X53350000Y-23875000D02*
X54650000Y-23875000D01*
X53350000Y-21020000D02*
X54650000Y-21020000D01*
X54650000Y-21020000D02*
X54650000Y-24730000D01*
X54650000Y-24730000D02*
X53350000Y-24730000D01*
X53350000Y-24730000D02*
X53350000Y-21020000D01*
X69550000Y-23500000D02*
X70850000Y-23500000D01*
X70850000Y-23700000D02*
X69550000Y-23700000D01*
X69550000Y-23900000D02*
X70850000Y-23900000D01*
X69550000Y-21045000D02*
X70850000Y-21045000D01*
X70850000Y-21045000D02*
X70850000Y-24755000D01*
X70850000Y-24755000D02*
X69550000Y-24755000D01*
X69550000Y-24755000D02*
X69550000Y-21045000D01*
X74150000Y-23475000D02*
X75450000Y-23475000D01*
X75450000Y-23675000D02*
X74150000Y-23675000D01*
X74150000Y-23875000D02*
X75450000Y-23875000D01*
X74150000Y-21020000D02*
X75450000Y-21020000D01*
X75450000Y-21020000D02*
X75450000Y-24730000D01*
X75450000Y-24730000D02*
X74150000Y-24730000D01*
X74150000Y-24730000D02*
X74150000Y-21020000D01*
X17650000Y-34525000D02*
X16350000Y-34525000D01*
X16350000Y-34325000D02*
X17650000Y-34325000D01*
X17650000Y-34125000D02*
X16350000Y-34125000D01*
X17650000Y-36980000D02*
X16350000Y-36980000D01*
X16350000Y-36980000D02*
X16350000Y-33270000D01*
X16350000Y-33270000D02*
X17650000Y-33270000D01*
X17650000Y-33270000D02*
X17650000Y-36980000D01*
X36150000Y-34500000D02*
X34850000Y-34500000D01*
X34850000Y-34300000D02*
X36150000Y-34300000D01*
X36150000Y-34100000D02*
X34850000Y-34100000D01*
X36150000Y-36955000D02*
X34850000Y-36955000D01*
X34850000Y-36955000D02*
X34850000Y-33245000D01*
X34850000Y-33245000D02*
X36150000Y-33245000D01*
X36150000Y-33245000D02*
X36150000Y-36955000D01*
X54650000Y-34500000D02*
X53350000Y-34500000D01*
X53350000Y-34300000D02*
X54650000Y-34300000D01*
X54650000Y-34100000D02*
X53350000Y-34100000D01*
X54650000Y-36955000D02*
X53350000Y-36955000D01*
X53350000Y-36955000D02*
X53350000Y-33245000D01*
X53350000Y-33245000D02*
X54650000Y-33245000D01*
X54650000Y-33245000D02*
X54650000Y-36955000D01*
X70850000Y-34525000D02*
X69550000Y-34525000D01*
X69550000Y-34325000D02*
X70850000Y-34325000D01*
X70850000Y-34125000D02*
X69550000Y-34125000D01*
X70850000Y-36980000D02*
X69550000Y-36980000D01*
X69550000Y-36980000D02*
X69550000Y-33270000D01*
X69550000Y-33270000D02*
X70850000Y-33270000D01*
X70850000Y-33270000D02*
X70850000Y-36980000D01*
X75450000Y-34525000D02*
X74150000Y-34525000D01*
X74150000Y-34325000D02*
X75450000Y-34325000D01*
X75450000Y-34125000D02*
X74150000Y-34125000D01*
X75450000Y-36980000D02*
X74150000Y-36980000D01*
X74150000Y-36980000D02*
X74150000Y-33270000D01*
X74150000Y-33270000D02*
X75450000Y-33270000D01*
X75450000Y-33270000D02*
X75450000Y-36980000D01*
X17361905Y-15184524D02*
X16561905Y-15184524D01*
X16561905Y-14994048D01*
X16600000Y-14879762D01*
X16676190Y-14803571D01*
X16752381Y-14765476D01*
X16904762Y-14727381D01*
X17019048Y-14727381D01*
X17171429Y-14765476D01*
X17247619Y-14803571D01*
X17323810Y-14879762D01*
X17361905Y-14994048D01*
X17361905Y-15184524D01*
X35861905Y-15184524D02*
X35061905Y-15184524D01*
X35061905Y-14994048D01*
X35100000Y-14879762D01*
X35176190Y-14803571D01*
X35252381Y-14765476D01*
X35404762Y-14727381D01*
X35519048Y-14727381D01*
X35671429Y-14765476D01*
X35747619Y-14803571D01*
X35823810Y-14879762D01*
X35861905Y-14994048D01*
X35861905Y-15184524D01*
X54361905Y-15184524D02*
X53561905Y-15184524D01*
X53561905Y-14994048D01*
X53600000Y-14879762D01*
X53676190Y-14803571D01*
X53752381Y-14765476D01*
X53904762Y-14727381D01*
X54019048Y-14727381D01*
X54171429Y-14765476D01*
X54247619Y-14803571D01*
X54323810Y-14879762D01*
X54361905Y-14994048D01*
X54361905Y-15184524D01*
X70561905Y-15184524D02*
X69761905Y-15184524D01*
X69761905Y-14994048D01*
X69800000Y-14879762D01*
X69876190Y-14803571D01*
X69952381Y-14765476D01*
X70104762Y-14727381D01*
X70219048Y-14727381D01*
X70371429Y-14765476D01*
X70447619Y-14803571D01*
X70523810Y-14879762D01*
X70561905Y-14994048D01*
X70561905Y-15184524D01*
X75161905Y-15184524D02*
X74361905Y-15184524D01*
X74361905Y-14994048D01*
X74400000Y-14879762D01*
X74476190Y-14803571D01*
X74552381Y-14765476D01*
X74704762Y-14727381D01*
X74819048Y-14727381D01*
X74971429Y-14765476D01*
X75047619Y-14803571D01*
X75123810Y-14879762D01*
X75161905Y-14994048D01*
X75161905Y-15184524D01*
X17361905Y-23109524D02*
X16561905Y-23109524D01*
X16561905Y-22919048D01*
X16600000Y-22804762D01*
X16676190Y-22728571D01*
X16752381Y-22690476D01*
X16904762Y-22652381D01*
X17019048Y-22652381D01*
X17171429Y-22690476D01*
X17247619Y-22728571D01*
X17323810Y-22804762D01*
X17361905Y-22919048D01*
X17361905Y-23109524D01*
X35861905Y-23084524D02*
X35061905Y-23084524D01*
X35061905Y-22894048D01*
X35100000Y-22779762D01*
X35176190Y-22703571D01*
X35252381Y-22665476D01*
X35404762Y-22627381D01*
X35519048Y-22627381D01*
X35671429Y-22665476D01*
X35747619Y-22703571D01*
X35823810Y-22779762D01*
X35861905Y-22894048D01*
X35861905Y-23084524D01*
X54361905Y-23084524D02*
X53561905Y-23084524D01*
X53561905Y-22894048D01*
X53600000Y-22779762D01*
X53676190Y-22703571D01*
X53752381Y-22665476D01*
X53904762Y-22627381D01*
X54019048Y-22627381D01*
X54171429Y-22665476D01*
X54247619Y-22703571D01*
X54323810Y-22779762D01*
X54361905Y-22894048D01*
X54361905Y-23084524D01*
X70561905Y-23109524D02*
X69761905Y-23109524D01*
X69761905Y-22919048D01*
X69800000Y-22804762D01*
X69876190Y-22728571D01*
X69952381Y-22690476D01*
X70104762Y-22652381D01*
X70219048Y-22652381D01*
X70371429Y-22690476D01*
X70447619Y-22728571D01*
X70523810Y-22804762D01*
X70561905Y-22919048D01*
X70561905Y-23109524D01*
X75161905Y-23084524D02*
X74361905Y-23084524D01*
X74361905Y-22894048D01*
X74400000Y-22779762D01*
X74476190Y-22703571D01*
X74552381Y-22665476D01*
X74704762Y-22627381D01*
X74819048Y-22627381D01*
X74971429Y-22665476D01*
X75047619Y-22703571D01*
X75123810Y-22779762D01*
X75161905Y-22894048D01*
X75161905Y-23084524D01*
X17361905Y-35334524D02*
X16561905Y-35334524D01*
X16561905Y-35144048D01*
X16600000Y-35029762D01*
X16676190Y-34953571D01*
X16752381Y-34915476D01*
X16904762Y-34877381D01*
X17019048Y-34877381D01*
X17171429Y-34915476D01*
X17247619Y-34953571D01*
X17323810Y-35029762D01*
X17361905Y-35144048D01*
X17361905Y-35334524D01*
X35861905Y-35309524D02*
X35061905Y-35309524D01*
X35061905Y-35119048D01*
X35100000Y-35004762D01*
X35176190Y-34928571D01*
X35252381Y-34890476D01*
X35404762Y-34852381D01*
X35519048Y-34852381D01*
X35671429Y-34890476D01*
X35747619Y-34928571D01*
X35823810Y-35004762D01*
X35861905Y-35119048D01*
X35861905Y-35309524D01*
X54361905Y-35309524D02*
X53561905Y-35309524D01*
X53561905Y-35119048D01*
X53600000Y-35004762D01*
X53676190Y-34928571D01*
X53752381Y-34890476D01*
X53904762Y-34852381D01*
X54019048Y-34852381D01*
X54171429Y-34890476D01*
X54247619Y-34928571D01*
X54323810Y-35004762D01*
X54361905Y-35119048D01*
X54361905Y-35309524D01*
X70561905Y-35334524D02*
X69761905Y-35334524D01*
X69761905Y-35144048D01*
X69800000Y-35029762D01*
X69876190Y-34953571D01*
X69952381Y-34915476D01*
X70104762Y-34877381D01*
X70219048Y-34877381D01*
X70371429Y-34915476D01*
X70447619Y-34953571D01*
X70523810Y-35029762D01*
X70561905Y-35144048D01*
X70561905Y-35334524D01*
X75161905Y-35334524D02*
X74361905Y-35334524D01*
X74361905Y-35144048D01*
X74400000Y-35029762D01*
X74476190Y-34953571D01*
X74552381Y-34915476D01*
X74704762Y-34877381D01*
X74819048Y-34877381D01*
X74971429Y-34915476D01*
X75047619Y-34953571D01*
X75123810Y-35029762D01*
X75161905Y-35144048D01*
X75161905Y-35334524D01*
M02*
