M48
METRIC,TZ
T1C0.400
T2C0.900
T3C1.016
T4C1.500
T5C1.600
%
G90
G05
T1
X51.54Y-2.48
X56.89Y-0.96
X58.8Y-7.32
X58.82Y-5.04
X62.34Y-11.61
X62.56Y-8.83
X64.23Y-12.92
X66.56Y-5.921
X68.8Y-18.05
X70.1Y-21.72
X70.587Y-18.953
X70.87Y-1.28
X70.97Y-12.64
X71.75Y-17.83
X72.41Y-10.07
X72.49Y-20.7
X74.819Y-18.141
X75.1Y-22.35
X76.277Y-3.96
X77.3Y-16.985
X77.9Y-15.735
X78.578Y-6.241
X78.8Y-14.45
X78.95Y-15.735
X79.15Y-6.8
X79.8Y-7.35
X80.66Y-8.23
X80.9Y-13.825
X83.3Y-11.325
X85.Y-27.75
X85.05Y-25.55
X85.2Y-19.9
X85.2Y-20.775
X91.75Y-27.75
X91.95Y-7.5
X93.8Y-15.735
X93.85Y-16.6
X94.417Y-17.917
X94.6Y-6.85
X95.083Y-8.183
X95.55Y-15.9
X95.65Y-10.75
X95.66Y3.
X96.2Y-12.6
X131.7Y-38.55
X132.7Y-15.6
X134.95Y-4.7
X134.988Y-6.612
X135.15Y-10.35
T2
X97.93Y-6.22
X97.93Y-8.76
X97.93Y-11.3
X97.93Y-13.84
X97.93Y-16.38
X100.47Y-7.49
X100.47Y-10.03
X100.47Y-12.57
X100.47Y-15.11
X100.47Y-17.65
X130.71Y-2.72
X130.71Y-5.26
X130.71Y-7.8
X130.71Y-10.34
X130.71Y-12.88
X133.25Y-3.99
X133.25Y-6.53
X133.25Y-9.07
X133.25Y-11.61
X133.25Y-14.15
T3
X69.64Y3.71
X69.64Y1.17
X72.18Y3.71
X72.18Y1.17
X74.72Y3.71
X74.72Y1.17
T4
X5.25Y-2.4
X5.25Y-18.2
X5.25Y-34.
X10.25Y-1.9
X10.25Y-17.7
X10.25Y-33.5
X23.75Y-2.4
X23.75Y-18.2
X23.75Y-34.
X28.75Y-1.9
X28.75Y-17.7
X28.75Y-33.5
X42.25Y-2.4
X42.25Y-18.2
X42.25Y-34.
X47.25Y-1.9
X47.25Y-17.7
X47.25Y-33.5
X60.75Y-2.4
X60.75Y-18.2
X60.75Y-34.
X65.75Y-1.9
X65.75Y-17.7
X65.75Y-33.5
X71.083Y-58.8
X76.083Y-58.3
X79.25Y-2.4
X79.25Y-18.2
X79.25Y-34.
X84.25Y-1.9
X84.25Y-17.7
X84.25Y-33.5
X89.583Y-58.8
X94.583Y-58.3
X97.75Y-2.4
X97.75Y-18.2
X97.75Y-34.
X102.75Y-1.9
X102.75Y-17.7
X102.75Y-33.5
X128.45Y-2.4
X128.45Y-18.2
X128.45Y-34.
X133.45Y-1.9
X133.45Y-17.7
X133.45Y-33.5
X136.617Y-58.8
X141.617Y-58.3
X146.95Y-2.4
X146.95Y-18.2
X146.95Y-34.
X151.95Y-1.9
X151.95Y-17.7
X151.95Y-33.5
X155.117Y-58.8
X160.117Y-58.3
X165.45Y-2.4
X165.45Y-18.2
X165.45Y-34.
X170.45Y-1.9
X170.45Y-17.7
X170.45Y-33.5
X183.95Y-2.4
X183.95Y-18.2
X183.95Y-34.
X188.95Y-1.9
X188.95Y-17.7
X188.95Y-33.5
X202.45Y-2.4
X202.45Y-18.2
X202.45Y-34.
X207.45Y-1.9
X207.45Y-17.7
X207.45Y-33.5
X220.95Y-2.4
X220.95Y-18.2
X220.95Y-34.
X225.95Y-1.9
X225.95Y-17.7
X225.95Y-33.5
T5
X103.77Y-4.16
X103.77Y-19.71
X127.41Y-0.66
X127.41Y-16.21
T0
M30
