G04 #@! TF.FileFunction,Soldermask,Bot*
%FSLAX46Y46*%
G04 Gerber Fmt 4.6, Leading zero omitted, Abs format (unit mm)*
G04 Created by KiCad (PCBNEW 4.0.1-stable) date Monday, April 18, 2016 'PMt' 04:19:38 PM*
%MOMM*%
G01*
G04 APERTURE LIST*
%ADD10C,0.100000*%
%ADD11C,2.200000*%
%ADD12C,2.400000*%
%ADD13C,3.400000*%
G04 APERTURE END LIST*
D10*
D11*
X84250000Y-40000000D03*
X65750000Y-40000000D03*
X28750000Y-40000000D03*
X10250000Y-40000000D03*
X86000000Y-3000000D03*
X83500000Y-3000000D03*
X81000000Y-3000000D03*
X78500000Y-3000000D03*
X76000000Y-3000000D03*
X13000000Y-3000000D03*
X10500000Y-3000000D03*
X8000000Y-3000000D03*
X5500000Y-3000000D03*
X3000000Y-3000000D03*
D12*
X5850000Y-26200000D03*
X5850000Y-21600000D03*
X13850000Y-21600000D03*
X13850000Y-26200000D03*
X75850000Y-26200000D03*
X61350000Y-26200000D03*
X42850000Y-26200000D03*
X24350000Y-26200000D03*
X83850000Y-26200000D03*
X69350000Y-26200000D03*
X50850000Y-26200000D03*
X32350000Y-26200000D03*
X83850000Y-21599999D03*
X69350000Y-21600000D03*
X50850000Y-21600000D03*
X32350000Y-21600000D03*
X75850000Y-21600000D03*
X61350000Y-21600000D03*
X42850000Y-21600000D03*
X24350000Y-21600000D03*
D11*
X87000000Y-22000000D03*
X87000000Y-24500000D03*
X2000000Y-22000000D03*
X2000000Y-24500000D03*
D12*
X86250000Y-37000000D03*
X78250000Y-37000000D03*
X61250000Y-37000000D03*
X42750000Y-37000000D03*
X24250000Y-37000000D03*
X69250000Y-37000000D03*
X50750000Y-37000000D03*
X32250000Y-37000000D03*
D13*
X84250000Y-34000000D03*
X65750000Y-34000000D03*
X47250000Y-34000000D03*
X28750000Y-34000000D03*
X79250000Y-33500000D03*
X60750000Y-33500000D03*
X42250000Y-33500000D03*
X23750000Y-33500000D03*
X84250000Y-18200000D03*
X65750000Y-18200000D03*
X47250000Y-18200000D03*
X28750000Y-18200000D03*
X79250000Y-17700000D03*
X60750000Y-17700000D03*
X42250000Y-17700000D03*
X23750000Y-17700000D03*
X79250000Y-10400000D03*
X60750000Y-10400000D03*
X42250000Y-10400000D03*
X23750000Y-10400000D03*
X84250000Y-10900000D03*
X65750000Y-10900000D03*
X47250000Y-10900000D03*
X28750000Y-10900000D03*
X5250000Y-10400000D03*
X5250000Y-17700000D03*
X10250000Y-10900000D03*
X10250000Y-18200000D03*
X10250000Y-34000000D03*
D12*
X13750000Y-37000000D03*
X5750000Y-37000000D03*
D13*
X5250000Y-33500000D03*
D11*
X87000000Y-27000000D03*
X2000000Y-27000000D03*
M02*
