G04 #@! TF.FileFunction,Copper,L2,Bot,Signal*
%FSLAX46Y46*%
G04 Gerber Fmt 4.6, Leading zero omitted, Abs format (unit mm)*
G04 Created by KiCad (PCBNEW 4.0.1-stable) date Monday, April 18, 2016 'PMt' 04:19:38 PM*
%MOMM*%
G01*
G04 APERTURE LIST*
%ADD10C,0.100000*%
%ADD11C,1.800000*%
%ADD12C,2.000000*%
%ADD13C,3.000000*%
%ADD14C,0.250000*%
G04 APERTURE END LIST*
D10*
D11*
X84250000Y-40000000D03*
X65750000Y-40000000D03*
X28750000Y-40000000D03*
X10250000Y-40000000D03*
X86000000Y-3000000D03*
X83500000Y-3000000D03*
X81000000Y-3000000D03*
X78500000Y-3000000D03*
X76000000Y-3000000D03*
X13000000Y-3000000D03*
X10500000Y-3000000D03*
X8000000Y-3000000D03*
X5500000Y-3000000D03*
X3000000Y-3000000D03*
D12*
X5850000Y-26200000D03*
X5850000Y-21600000D03*
X13850000Y-21600000D03*
X13850000Y-26200000D03*
X75850000Y-26200000D03*
X61350000Y-26200000D03*
X42850000Y-26200000D03*
X24350000Y-26200000D03*
X83850000Y-26200000D03*
X69350000Y-26200000D03*
X50850000Y-26200000D03*
X32350000Y-26200000D03*
X83850000Y-21599999D03*
X69350000Y-21600000D03*
X50850000Y-21600000D03*
X32350000Y-21600000D03*
X75850000Y-21600000D03*
X61350000Y-21600000D03*
X42850000Y-21600000D03*
X24350000Y-21600000D03*
D11*
X87000000Y-22000000D03*
X87000000Y-24500000D03*
X2000000Y-22000000D03*
X2000000Y-24500000D03*
D12*
X86250000Y-37000000D03*
X78250000Y-37000000D03*
X61250000Y-37000000D03*
X42750000Y-37000000D03*
X24250000Y-37000000D03*
X69250000Y-37000000D03*
X50750000Y-37000000D03*
X32250000Y-37000000D03*
D13*
X84250000Y-34000000D03*
X65750000Y-34000000D03*
X47250000Y-34000000D03*
X28750000Y-34000000D03*
X79250000Y-33500000D03*
X60750000Y-33500000D03*
X42250000Y-33500000D03*
X23750000Y-33500000D03*
X84250000Y-18200000D03*
X65750000Y-18200000D03*
X47250000Y-18200000D03*
X28750000Y-18200000D03*
X79250000Y-17700000D03*
X60750000Y-17700000D03*
X42250000Y-17700000D03*
X23750000Y-17700000D03*
X79250000Y-10400000D03*
X60750000Y-10400000D03*
X42250000Y-10400000D03*
X23750000Y-10400000D03*
X84250000Y-10900000D03*
X65750000Y-10900000D03*
X47250000Y-10900000D03*
X28750000Y-10900000D03*
X5250000Y-10400000D03*
X5250000Y-17700000D03*
X10250000Y-10900000D03*
X10250000Y-18200000D03*
X10250000Y-34000000D03*
D12*
X13750000Y-37000000D03*
X5750000Y-37000000D03*
D13*
X5250000Y-33500000D03*
D11*
X87000000Y-27000000D03*
X2000000Y-27000000D03*
D14*
X65600000Y-4350000D02*
X14350000Y-4350000D01*
X14350000Y-4350000D02*
X13000000Y-3000000D01*
X68250000Y-7000000D02*
X65600000Y-4350000D01*
X80350000Y-7000000D02*
X68250000Y-7000000D01*
X84250000Y-10900000D02*
X80350000Y-7000000D01*
X65750000Y-10900000D02*
X60500000Y-5650000D01*
X60500000Y-5650000D02*
X13150000Y-5650000D01*
X13150000Y-5650000D02*
X10500000Y-3000000D01*
X47250000Y-10900000D02*
X43150000Y-6800000D01*
X43150000Y-6800000D02*
X11800000Y-6800000D01*
X11800000Y-6800000D02*
X8000000Y-3000000D01*
X25600000Y-7750000D02*
X10250000Y-7750000D01*
X10250000Y-7750000D02*
X5500000Y-3000000D01*
X28750000Y-10900000D02*
X25600000Y-7750000D01*
X10250000Y-10900000D02*
X3000000Y-3650000D01*
X3000000Y-3650000D02*
X3000000Y-3000000D01*
X79250000Y-17700000D02*
X79250000Y-22800000D01*
X79250000Y-22800000D02*
X75850000Y-26200000D01*
X3750001Y-19199999D02*
X3750001Y-24100001D01*
X5250000Y-17700000D02*
X3750001Y-19199999D01*
X3750001Y-24100001D02*
X4850001Y-25200001D01*
X4850001Y-25200001D02*
X5850000Y-26200000D01*
X10250000Y-10900000D02*
X10250000Y-13021320D01*
X10250000Y-13021320D02*
X10250000Y-18200000D01*
X10250000Y-34000000D02*
X10250000Y-31878680D01*
X10250000Y-31878680D02*
X10250000Y-18200000D01*
X28750000Y-10900000D02*
X28750000Y-13021320D01*
X28750000Y-13021320D02*
X28750000Y-18200000D01*
X28750000Y-34000000D02*
X28750000Y-18200000D01*
X47250000Y-34000000D02*
X47250000Y-18200000D01*
X47250000Y-10900000D02*
X47250000Y-13021320D01*
X47250000Y-13021320D02*
X47250000Y-18200000D01*
X65750000Y-18200000D02*
X65750000Y-10900000D01*
X65750000Y-34000000D02*
X65750000Y-18200000D01*
X84250000Y-34000000D02*
X84250000Y-40000000D01*
X84250000Y-18200000D02*
X84250000Y-10900000D01*
X85300000Y-29800000D02*
X84250000Y-30850000D01*
X84250000Y-30850000D02*
X84250000Y-34000000D01*
X85300000Y-19250000D02*
X85300000Y-29800000D01*
X84250000Y-18200000D02*
X85300000Y-19250000D01*
X60750000Y-17700000D02*
X59250001Y-19199999D01*
X42250000Y-17700000D02*
X40750001Y-19199999D01*
X23750000Y-17700000D02*
X22250001Y-19199999D01*
X59250001Y-19199999D02*
X59250001Y-24100001D01*
X40750001Y-19199999D02*
X40750001Y-24100001D01*
X22250001Y-19199999D02*
X22250001Y-24100001D01*
X60350001Y-25200001D02*
X61350000Y-26200000D01*
X41850001Y-25200001D02*
X42850000Y-26200000D01*
X23350001Y-25200001D02*
X24350000Y-26200000D01*
X59250001Y-24100001D02*
X60350001Y-25200001D01*
X40750001Y-24100001D02*
X41850001Y-25200001D01*
X22250001Y-24100001D02*
X23350001Y-25200001D01*
X28750000Y-40000000D02*
X28750000Y-34000000D01*
X10250000Y-40000000D02*
X10250000Y-34000000D01*
X65750000Y-40000000D02*
X65750000Y-34000000D01*
X28750000Y-34900000D02*
X28750000Y-33768630D01*
M02*
